<?xml version="1.0" encoding="utf-8" ?>
<svg baseProfile="full" height="200mm" version="1.1" viewBox="0,0,200,200" width="200mm" xmlns="http://www.w3.org/2000/svg" xmlns:ev="http://www.w3.org/2001/xml-events" xmlns:xlink="http://www.w3.org/1999/xlink"><defs /><rect fill="#1a1a1a" height="200" width="200" x="0" y="0" /><text alignment-baseline="middle" fill="#e1ed5e" style="dominant-baseline: central; font-size:9.0px; font-family:Arial;" text-anchor="middle" x="100.0" y="100.0">2022</text><line stroke="#e1ed5e" stroke-width="0.3" x1="100.0" x2="100.0" y1="15.0" y2="10.0" /><path d="M 100.0 14.0 a86.0,86.0 0 0,1 42.46469731375804,11.215312516191453" fill="none" id="id73" stroke="none" /><text fill="#e1ed5e" style="font-size:6.75px; font-family:Arial;" text-anchor="middle"><textPath startOffset="22.20632615414155" xlink:href="#id73">January</textPath></text><path d="M 100.72285384407766 79.0124445844662 l 1.0483691537296334 -30.4386645932716 a51.4567132189962,51.4567132189962 0 0,0 0.8849554149596928,0.0381080417213291 l -1.5721654010786577 30.416108825026075" fill="#9aff23" stroke="none" /><path d="M 102.52436894288641 79.15227682838746 l 4.001103668857275 -33.043466924404036 a54.28482442424966,54.28482442424966 0 0,0 0.9266814296014785,0.12030984549738127 l -4.569299826966599 32.96969875574252" fill="#79ff26" stroke="none" /><path d="M 105.01212808612495 79.60689891045804 l 8.031912672546465 -32.679852601342674 a54.65240537056595,54.65240537056595 0 0,0 0.911631038728193,0.23239505008361977 l -8.593252599959683 32.53675455509019" fill="#75ff27" stroke="none" /><line stroke="#e1ed5e" stroke-width="0.3" x1="143.23703022742887" x2="145.7803849466894" y1="26.81831364943548" y2="22.513508569990506" /><path d="M 143.74570117128098 25.957352633546492 a86.0,86.0 0 0,1 28.547481713284135,27.462654790039103" fill="none" id="id74" stroke="none" /><text fill="#e1ed5e" style="font-size:6.75px; font-family:Arial;" text-anchor="middle"><textPath startOffset="19.985693538727396" xlink:href="#id74">February</textPath></text><path d="M 110.68208982089419 81.91981866633111 l 13.819907936884425 -23.391157133386095 a48.16866002258338,48.16866002258338 0 0,0 0.7102306839265621,0.42790604024039125 l -14.220500687028625 23.149804483687088" fill="#c0ff1e" stroke="none" /><path d="M 110.99172775467656 82.1063720568725 l 10.091495107747974 -16.428123301280504 a40.280080619950134,40.280080619950134 0 0,0 0.5876688210882807,0.3679981618526401 l -10.372783081208517 16.25198079810492" fill="#ffdb14" stroke="none" /><path d="M 112.19680574252982 82.90503203632743 l 12.266953901834624 -17.19328719260353 a42.1207784543345,42.1207784543345 0 0,0 0.5865913779902167,0.42618358267115763 l -12.561090596178628 16.9795843751157" fill="#fff216" stroke="none" /><line stroke="#e1ed5e" stroke-width="0.3" x1="172.23445277983987" x2="176.4835382374775" y1="55.19839476539836" y2="52.563006222186495" /><path d="M 173.08426987136738 54.67131705675599 a86.0,86.0 0 0,1 12.851231095245387,41.99856678651699" fill="none" id="id75" stroke="none" /><text fill="#e1ed5e" style="font-size:6.75px; font-family:Arial;" text-anchor="middle"><textPath startOffset="22.20632615414155" xlink:href="#id75">March</textPath></text><path d="M 118.21658344932153 89.55222093294921 l 25.376059890104216 -14.553962221380896 a50.253414021059804,50.253414021059804 0 0,0 0.42390515679992635,0.7540799733385705 l -25.622822688196575 14.11499873810753" fill="#a8ff21" stroke="none" /><path d="M 118.73160827565052 90.50648371742162 l 26.23319851972723 -13.295457262731643 a50.410030404617785,50.410030404617785 0 0,0 0.3856126967245764,0.7773716661910416 l -26.458171229405217 12.841926008041652" fill="#a6ff21" stroke="none" /><path d="M 119.47837535516314 92.15188598940014 l 27.6775203013477 -11.151665931835078 a50.83965118909343,50.83965118909343 0 0,0 0.3200633242363157,0.8145262492057954 l -27.865377175465714 10.673590677733499" fill="#a1ff22" stroke="none" /><path d="M 120.37134235888165 94.90015583598534 l 30.18969487437503 -7.557810207403372 a52.121345917858314,52.121345917858314 0 0,0 0.21038954952828665,0.8722005095868637 l -30.315317224164133 7.037024466157102" fill="#92ff23" stroke="none" /><path d="M 120.45610955862082 95.25157060432595 l 16.868769649264035 -3.9157084802404665 a38.317279300807,38.317279300807 0 0,0 0.14360880741829293,0.6437701247988574 l -16.933672843684366 3.624760185891645" fill="#ffc011" stroke="none" /><path d="M 120.87857604477298 97.74499172005257 l 33.7526748249313 -3.6454862169418987 a54.94897093573625,54.94897093573625 0 0,0 0.09347310393467502,0.9412614003902452 l -33.810425054548205 3.063949285847219" fill="#72ff27" stroke="none" /><path d="M 120.96714384426684 98.82574320788733 l 3.935194361924559 -0.22038904020954267 a24.941360931856828,24.941360931856828 0 0,0 0.02031698529952897,0.4288594484857395 l -3.9384049554575844 0.15261848510080342" fill="#ff0000" stroke="none" /><line stroke="#e1ed5e" stroke-width="0.3" x1="184.98032266829074" x2="189.97916517819016" y1="98.17113171792111" y2="98.06355123074" /><path d="M 185.9800911702706 98.14961562048488 a86.0,86.0 0 0,1 -9.607161424134198,41.387399972396054" fill="none" id="id76" stroke="none" /><text fill="#e1ed5e" style="font-size:6.75px; font-family:Arial;" text-anchor="middle"><textPath startOffset="21.466115282336823" xlink:href="#id76">April</textPath></text><path d="M 120.99513854157772 99.54816195383933 l 7.792340017510146 -0.16769956919116302 a28.794144346494804,28.794144346494804 0 0,0 0.006399146034122011,0.495620912449104 l -7.794072170661983 0.0335423986815963" fill="#ff3a05" stroke="none" /><path d="M 120.9904718944345 100.63252640178507 l 19.79858239066588 0.5966100306364993 a40.80756946746978,40.80756946746978 0 0,0 -0.027200901717663754,0.7019344088431724 l -19.785379356097014 -0.9373216864936779" fill="#ffe115" stroke="none" /><path d="M 120.81339534386255 102.79330883721812 l 33.539952940022765 4.501305308404272 a54.840658869153394,54.840658869153394 0 0,0 -0.13361782637690817,0.9345227664716318 l -33.457501062629255 -5.077973546856313" fill="#73ff27" stroke="none" /><path d="M 120.23288151984713 105.62410040840565 l 19.715649141800753 5.480326184958655 a41.46315704323583,41.46315704323583 0 0,0 -0.1970632557553773,0.686003045554849 l -19.618393249159276 -5.818886706018086" fill="#ffea16" stroke="none" /><path d="M 119.67450827220406 107.3425965602758 l 59.02352481661219 22.027789680827375 a84.0,84.0 0 0,0 -0.517222881625973,1.3503057326674246 l -58.635607655392704 -23.040518980327946" fill="#4dd2ff" stroke="none" /><path d="M 119.12269723197855 108.67885076344098 l 28.93615357722204 13.132695430891129 a52.776857508651304,52.776857508651304 0 0,0 -0.3825703502973366,0.8240224994843491 l -28.705808610084873 -13.62883799765431" fill="#8aff24" stroke="none" /><path d="M 118.64920377521936 109.65438752849418 l 26.150540863491706 13.5377069508643 a50.446906406966235,50.446906406966235 0 0,0 -0.40585134787002464,0.7677178010962618 l -25.913637007396787 -13.985839767046695" fill="#a5ff21" stroke="none" /><line stroke="#e1ed5e" stroke-width="0.3" x1="174.80103733775053" x2="179.2010983576182" y1="140.37084112569926" y2="142.7455964860345" /><path d="M 175.68104954172406 140.8457921977663 a86.0,86.0 0 0,1 -30.038265399797805,32.042727171017184" fill="none" id="id77" stroke="none" /><text fill="#e1ed5e" style="font-size:6.75px; font-family:Arial;" text-anchor="middle"><textPath startOffset="22.206326154141568" xlink:href="#id77">May</textPath></text><path d="M 117.55443506779139 111.5257021239791 l 25.342540910584464 16.639132872813096 a51.31674656957399,51.31674656957399 0 0,0 -0.49116698575759077,0.7342280012958465 l -25.05237081941615 -17.072897788314748" fill="#9bff22" stroke="none" /><path d="M 117.14729908036423 112.12312394758627 l 23.885905236678376 16.887312014995246 a50.252654171329176,50.252654171329176 0 0,0 -0.5054464784640561,0.7020209509882863 l -23.591678965838714 -17.295966571434665" fill="#a8ff21" stroke="none" /><path d="M 116.93607887273984 112.41649034213515 l 13.143097288323258 9.635709763307686 a37.296868072517285,37.296868072517285 0 0,0 -0.38404892896387627,0.514496300726119 l -12.97528709266429 -9.860518943543118" fill="#ffb310" stroke="none" /><path d="M 116.27256486870786 113.27417163493432 l 24.236071939067216 19.770317787729294 a52.27703068488834,52.27703068488834 0 0,0 -0.5748083570870806,0.6923936950723661 l -23.892167582086593 -20.18457273991543" fill="#90ff24" stroke="none" /><path d="M 115.80600337817218 113.82643327865902 l 17.105509965280344 14.96318750374301 a43.72653628348315,43.72653628348315 0 0,0 -0.5004421919650484,0.5622521078239839 l -16.845408923666955 -15.25541378130786" fill="#f7ff18" stroke="none" /><path d="M 115.56566222782051 114.09645910891815 l 16.24361334816075 14.710420153803268 a42.914639757613344,42.914639757613344 0 0,0 -0.5005759599141423,0.5432763395340122 l -15.987990980250887 -14.987847748138615" fill="#fffd17" stroke="none" /><path d="M 115.07121518719521 114.62390073753431 l 12.108583308714854 11.749199927107206 a37.87191419700871,37.87191419700871 0 0,0 -0.4579965551153676,0.46394809230138634 l -11.904546128543952 -11.955888513389256" fill="#ffba11" stroke="none" /><path d="M 114.81725581225074 114.88116024355365 l 24.081076667741517 24.184934462269272 a55.12930278253432,55.12930278253432 0 0,0 -0.6782218094931906,0.6637827873578175 l -23.661204905872534 -24.59586735254966" fill="#70ff27" stroke="none" /><path d="M 114.55890576462653 115.13401014063108 l 10.273321707015356 10.679137388861594 a35.81840457896917,35.81840457896917 0 0,0 -0.4480100643898768,0.42362147925891563 l -10.087975808234672 -10.854393504866431" fill="#ff9e0e" stroke="none" /><path d="M 114.29624159901734 115.38237550388516 l 23.005939282738176 24.753778426001528 a54.793827670813116,54.793827670813116 0 0,0 -0.6964046329416684,0.6361491205977372 l -22.576435100329643 -25.146120313185847" fill="#74ff27" stroke="none" /><path d="M 114.0293411484842 115.62618273729858 l 19.567034564364906 21.794185093491652 a50.28916771662221,50.28916771662221 0 0,0 -0.6491077845501717,0.5727621493975305 l -19.18898442690815 -22.12777038466147" fill="#a7ff21" stroke="none" /><path d="M 113.48314897796784 116.09983520530334 l 18.837213624024553 22.492967745847718 a50.33895388613715,50.33895388613715 0 0,0 -0.6691002727348658,0.5506239723461481 l -18.447243222744994 -22.813886837051044" fill="#a7ff21" stroke="none" /><path d="M 113.20401910651253 116.32954008644616 l 11.29846074512753 13.97291734921069 a38.96935264435146,38.96935264435146 0 0,0 -0.5252372990304267,0.4172802763280622 l -11.056265953379752 -14.165331539543878" fill="#ffc912" stroke="none" /><path d="M 112.63410532772338 116.77436683061366 l 17.650878775507106 23.435162821806408 a50.33871807070351,50.33871807070351 0 0,0 -0.6966280019623358,0.5153487418283268 l -17.244865803126206 -23.735521512374504" fill="#a7ff21" stroke="none" /><path d="M 112.04921762599082 117.19931262002967 l 10.151687897987534 14.490737838599022 a38.69288699690223,38.69288699690223 0 0,0 -0.5487814288615281,0.3774568708271907 l -9.900749584503123 -14.663335498791309" fill="#ffc512" stroke="none" /><path d="M 111.45004920935366 117.60387380957326 l 8.091503209864534 12.440278537829338 a35.840247784118205,35.840247784118205 0 0,0 -0.5200559866175235,0.331924336256688 l -7.87616542120008 -12.577717302909836" fill="#ff9f0e" stroke="none" /><path d="M 111.1453310114006 117.79835938074945 l 9.377664554322356 14.975512501083648 a38.66936804652352,38.66936804652352 0 0,0 -0.5671890325620091,0.3484138292790686 l -9.118496321828038 -15.134714797191094" fill="#ffc512" stroke="none" /><line stroke="#e1ed5e" stroke-width="0.3" x1="143.8653032363475" x2="146.44561519142675" y1="172.8068346515853" y2="177.08958963109032" /><path d="M 144.38136562736335 173.6633856474863 a86.0,86.0 0 0,1 -40.68145358897372,12.25698825130547" fill="none" id="id78" stroke="none" /><text fill="#e1ed5e" style="font-size:6.75px; font-family:Arial;" text-anchor="middle"><textPath startOffset="21.466115282336833" xlink:href="#id78">June</textPath></text><path d="M 110.8373102113329 117.98757091392108 l 9.141543041220356 15.172967324000656 a38.71402683157265,38.71402683157265 0 0,0 -0.5737642377073665,0.33899002504988895 l -8.879010932484606 -15.328075921344293" fill="#ffc612" stroke="none" /><path d="M 109.57404056367764 118.69057910512821 l 13.410882954288649 26.18091777025683 a50.415850096615934,50.415850096615934 0 0,0 -0.7757945214082458,0.3889994782641738 l -12.958234525197643 -26.407885089430305" fill="#a6ff21" stroke="none" /><path d="M 107.2578585660854 119.70592522655815 l 16.383976523438076 44.48439072555436 a68.40565055923562,68.40565055923562 0 0,0 -1.1084335632240727,0.39744483959493165 l -15.615823399584269 -44.75982310618925" fill="#39ff87" stroke="none" /><path d="M 106.57524785965236 119.94407469862006 l 5.544050406399357 16.81624142515437 a38.70656574770429,38.70656574770429 0 0,0 -0.6345640186556529,0.2031673599023024 l -5.2537650426527644 -16.90918163171638" fill="#ffc612" stroke="none" /><path d="M 106.2309692047433 120.05430185196036 l 4.964376530147999 15.977788072935429 a37.73125058197151,37.73125058197151 0 0,0 -0.6218919081945894,0.18737093048191789 l -4.688609647513164 -16.060874372523074" fill="#ffb911" stroke="none" /><path d="M 105.18746579009965 120.34920634021253 l 6.863625642751093 26.924386607594897 a48.785462946639306,48.785462946639306 0 0,0 -0.8155226914142625,0.2004356359811217 l -6.399149666593619 -27.03854350189005" fill="#b9ff1f" stroke="none" /><path d="M 104.83641907484287 120.43548508189849 l 4.077465620613604 17.228653384365895 a38.70458198676005,38.70458198676005 0 0,0 -0.6496469179288049,0.14785752345181943 l -3.7802985532919373 -17.2962876413954" fill="#ffc612" stroke="none" /><path d="M 103.41894727170886 120.7198165907248 l 4.913280052921094 29.775908624793974 a51.178552902856566,51.178552902856566 0 0,0 -0.870435411872123,0.1359441099260492 l -4.400008777440453 -29.856071042067132" fill="#9dff22" stroke="none" /><path d="M 102.34483914955558 120.86867818915974 l 1.961071449476854 17.453209527330653 a38.56303857636425,38.56303857636425 0 0,0 -0.6602862689476795,0.06844137152409747 l -1.6603525839235718 -17.48438026731051" fill="#ffc412" stroke="none" /><path d="M 101.26447882468166 120.96189622390904 l 1.9060261764046005 31.59714668998582 a52.65458283935553,52.65458283935553 0 0,0 -0.9051872694151518,0.04678784241133439 l -1.3618508385759691 -31.625274339159358" fill="#8cff24" stroke="none" /><line stroke="#e1ed5e" stroke-width="0.3" x1="102.19456741930631" x2="102.32365962044197" y1="184.97166512339345" y2="189.96999836594603" /><path d="M 102.22038585953345 185.97133177190398 a86.0,86.0 0 0,1 -42.740103519485714,-10.115201625700543" fill="none" id="id79" stroke="none" /><text fill="#e1ed5e" style="font-size:6.75px; font-family:Arial;" text-anchor="middle"><textPath startOffset="22.20632615414155" xlink:href="#id79">July</textPath></text><path d="M 100.18074693466247 120.99922214144158 l 0.2639114535201031 30.661295852616867 a51.66243161618138,51.66243161618138 0 0,0 -0.889316776365096,0.0 l 0.263911453520082 -30.661295852616867" fill="#97ff23" stroke="none" /><path d="M 98.01472825383883 120.90594882070398 l -1.6716117632734255 17.602945308951064 a38.68213701555998,38.68213701555998 0 0,0 -0.6623255030681698,-0.06865274647860548 l 1.9743698629471886 -17.5715631940167" fill="#ffc512" stroke="none" /><path d="M 97.65516085044442 120.86867818915974 l -1.9656575800896627 17.494025326533933 a38.604111220041034,38.604111220041034 0 0,0 -0.6597122321117571,-0.07988196390927244 l 2.2664972352528094 -17.457597833899314" fill="#ffc412" stroke="none" /><path d="M 97.2962882734958 120.8252237178851 l -4.117900013847682 31.717948402413402 a52.98414218612414,52.98414218612414 0 0,0 -0.9034336398734633,-0.12520767038038158 l 4.663262244907976 -31.642366166540416" fill="#88ff25" stroke="none" /><path d="M 96.22490169976321 120.6578951692458 l -1.8741333870357844 10.255534548634229 a31.42537120828954,31.42537120828954 0 0,0 -0.5312868810975718,-0.10182239523578122 l 2.0503878827050515 -10.22175495504998" fill="#ff6108" stroke="none" /><path d="M 90.42595943632237 118.69057910512821 l -8.01124000117639 15.639657465023094 a38.57210436970203,38.57210436970203 0 0,0 -0.5883331399196702,-0.30778809246457134 l 8.279264043622556 -15.499439953613805" fill="#ffc412" stroke="none" /><path d="M 90.10565033884886 118.52300852407294 l -8.40220921296287 15.729603076777504 a38.833046083363506,38.833046083363506 0 0,0 -0.5868915701196862,-0.32002007835094604 l 8.671723594951198 -15.582642346666793" fill="#ffc712" stroke="none" /><line stroke="#e1ed5e" stroke-width="0.3" x1="58.666819895761336" x2="56.23545636021788" y1="174.27360380694188" y2="178.64263932499728" /><path d="M 58.180547188652646 175.14741091055294 a86.0,86.0 0 0,1 -31.652253787137756,-30.449443065178592" fill="none" id="id80" stroke="none" /><text fill="#e1ed5e" style="font-size:6.75px; font-family:Arial;" text-anchor="middle"><textPath startOffset="22.20632615414155" xlink:href="#id80">August</textPath></text><path d="M 89.7882731507175 118.34994917583269 l -8.637556566715498 15.52124595006631 a38.76278298256385,38.76278298256385 0 0,0 -0.5802442203873615,-0.3294778117798722 l 8.903449554024066 -15.370264972491805" fill="#ffc612" stroke="none" /><path d="M 88.24862548938628 117.40417183066458 l -9.80812847792866 14.526160596186307 a38.52737076420051,38.52737076420051 0 0,0 -0.5464339112237361,-0.37584222679010465 l 10.056719273775286 -14.3551775800311" fill="#ffc312" stroke="none" /><path d="M 87.95078237400918 117.19931262002967 l -10.162889929381297 14.506727859354 a38.71241047689662,38.71241047689662 0 0,0 -0.5424764036403388,-0.3870425103555433 l 10.411093660870524 -14.329641087154236" fill="#ffc612" stroke="none" /><path d="M 87.36589467227662 116.77436683061367 l -10.596359965851029 14.068841799694226 a38.61292576804643,38.61292576804643 0 0,0 -0.5274732910317186,-0.4044440269481201 l 10.836961985376234 -13.88435843091874" fill="#ffc412" stroke="none" /><path d="M 86.24171649860922 115.8653595955263 l -11.674207811054266 13.462108474255164 a38.81896440841311,38.81896440841311 0 0,0 -0.5010560550070178,-0.44212371175512327 l 11.904206218967872 -13.259161620727753" fill="#ffc712" stroke="none" /><path d="M 85.97065885151581 115.62618273729859 l -12.069687743649654 13.44347851180312 a39.06666756008199,39.06666756008199 0 0,0 -0.4965195796483094,-0.4535588636431214 l 12.299306872764818 -13.233726881573421" fill="#ffca12" stroke="none" /><path d="M 84.43433777217949 114.09645910891817 l -12.954566474527715 11.731818017710614 a38.477309476679665,38.477309476679665 0 0,0 -0.44036575343152784,-0.4947555922656258 l 13.154591077607583 -11.507088255704124" fill="#ffc312" stroke="none" /><path d="M 83.95833913139862 113.55231037782056 l -22.435935629665614 18.954319366342595 a50.37068998542269,50.37068998542269 0 0,0 -0.5538473240836518,-0.6671447805170442 l 22.758878953642803 -18.565313328711788" fill="#a6ff21" stroke="none" /><path d="M 83.06392112726016 112.41649034213515 l -12.397606014487469 9.089161458279003 a36.372491369492465,36.372491369492465 0 0,0 -0.3658383418514583,-0.5081174597060761 l 12.552224148714535 -8.874410393121789" fill="#ffa60f" stroke="none" /><path d="M 82.85270091963577 112.12312394758628 l -14.427380925776928 10.200144429890042 a38.66896337559419,38.66896337559419 0 0,0 -0.3795802395821741,-0.546813645550147 l 14.600822072521236 -9.950289522152882" fill="#ffc512" stroke="none" /><path d="M 82.6465618267979 111.8261652097733 l -25.928637528814086 17.670063305011457 a52.37714743732672,52.37714743732672 0 0,0 -0.5013163801117615,-0.7493999687674223 l 26.22895701433658 -17.221126422038214" fill="#8fff24" stroke="none" /><line stroke="#e1ed5e" stroke-width="0.3" x1="26.63291911575756" x2="22.317208475507996" y1="142.92168965132927" y2="145.44649492493687" /><path d="M 25.769776987707644 143.4266507060508 a86.0,86.0 0 0,1 -11.730757126820373,-40.83630448921669" fill="none" id="id81" stroke="none" /><text fill="#e1ed5e" style="font-size:6.75px; font-family:Arial;" text-anchor="middle"><textPath startOffset="21.46611528233685" xlink:href="#id81">September</textPath></text><path d="M 81.18737489456691 109.33194174019688 l -15.976749321169857 7.925214744210726 a38.83439226924642,38.83439226924642 0 0,0 -0.2918991595736706,-0.6013987263969192 l 16.110801737358244 -7.649027061848523" fill="#ffc712" stroke="none" /><path d="M 81.02952815118164 109.00673069616217 l -16.13349918221656 7.659803271051909 a38.859517967005715,38.859517967005715 0 0,0 -0.28168595294986115,-0.6067264826951925 l 16.262959752006246 -7.380956721077889" fill="#ffc812" stroke="none" /><path d="M 79.4281124754447 104.21870165774334 l -17.643797938046365 3.618234812983394 a39.01097523290991,39.01097523290991 0 0,0 -0.1292379124589599,-0.658981331312704 l 17.70346578348099 -3.3139897546027353" fill="#ffca12" stroke="none" /><path d="M 79.10278846688536 102.07522291339032 l -16.549667027077437 1.6434847381023943 a37.631070945417484,37.631070945417484 0 0,0 -0.058463280100965034,-0.6451374242475999 l 16.575504903455474 -1.3583659253062284" fill="#ffb711" stroke="none" /><path d="M 79.07016306316243 101.71520430193888 l -17.606125668616016 1.4428255021010963 a38.66514665913117,38.66514665913117 0 0,0 -0.048650773070591555,-0.6638011453290149 l 17.62835300035094 -1.1395512202753206" fill="#ffc512" stroke="none" /><line stroke="#e1ed5e" stroke-width="0.3" x1="15.007084014347285" x2="10.007500721073583" y1="101.09737516637583" y2="101.16192664675087" /><path d="M 14.007167355692545 101.11028546245083 a86.0,86.0 0 0,1 10.666146001902534,-42.60595125391555" fill="none" id="id82" stroke="none" /><text fill="#e1ed5e" style="font-size:6.75px; font-family:Arial;" text-anchor="middle"><textPath startOffset="22.20632615414155" xlink:href="#id82">October</textPath></text><path d="M 79.00019446554 99.90962569577889 l -35.432981605348296 -0.15248860537343303 a56.43330972714403,56.43330972714403 0 0,0 0.012541612134301662,-0.9713616811431355 l 35.42510698609628 0.7623865445770405" fill="#62ff29" stroke="none" /><path d="M 79.16333360222342 97.38593545837743 l -16.751961258982806 -2.1016177489127816 a37.8832758428276,37.8832758428276 0 0,0 0.08674187958661247,-0.6463277560471481 l 16.71330338033836 2.3896638470245892" fill="#ffbb11" stroke="none" /><path d="M 79.21141760316559 97.0276538004421 l -29.563368392068977 -4.226962859173951 a50.86402460650639,50.86402460650639 0 0,0 0.13138445575529936,-0.8656594067464692 l 29.486228042874377 4.735221378312512" fill="#a0ff22" stroke="none" /><path d="M 79.3925641242962 95.95851677861259 l -16.54734541414231 -3.2452275602422107 a37.86256629854104,37.86256629854104 0 0,0 0.13093362966977373,-0.6384788784019294 l 16.48903248855754 3.5295820948075427" fill="#ffba11" stroke="none" /><path d="M 79.62865764111835 94.90015583598534 l -17.132578039142025 -4.289038816794039 a38.66128772879423,38.66128772879423 0 0,0 0.16717079716152333,-0.6441772747232832 l 17.056210910110195 4.583312517066187" fill="#ffc512" stroke="none" /><path d="M 79.71946130924805 94.55025226153421 l -15.594194225734174 -4.1904421776352745 a37.147405339373435,37.147405339373435 0 0,0 0.17125525123738836,-0.6160962565246946 l 15.519752203930425 4.458249737578912" fill="#ffb110" stroke="none" /><path d="M 79.81627453868168 94.20196356495316 l -14.79011346724897 -4.248651564644573 a36.388258396968,36.388258396968 0 0,0 0.1781189703611296,-0.6005286203744092 l 14.714788599776133 4.502609571765521" fill="#ffa60f" stroke="none" /><path d="M 80.2630227832202 92.82701384747504 l -57.94322895569297 -21.05823877520696 a82.65117356649009,82.65117356649009 0 0,0 0.49746329017904356,-1.3329542944924897 l 57.572161077012304 22.05251620672879" fill="#4bdfff" stroke="none" /><path d="M 81.10775173730289 90.83032412892265 l -41.818899162210194 -20.297518075701518 a67.48450889460418,67.48450889460418 0 0,0 0.5162243159368817,-1.040676720494005 l 41.4633148333199 21.014354384694485" fill="#37ff7c" stroke="none" /><path d="M 81.43458229118936 90.18545643968196 l -14.35312583339061 -7.58773009732421 a37.23532781372106,37.23532781372106 0 0,0 0.30442877183624156,-0.564060279494951 l 14.220388962335896 7.833671360151634" fill="#ffb210" stroke="none" /><path d="M 81.6062741919709 89.86733742301443 l -14.235888790955173 -7.842209844145544 a37.2530238696698,37.2530238696698 0 0,0 0.31424231034584243,-0.5590020060060018 l 14.0987888393169 8.08609536008633" fill="#ffb210" stroke="none" /><line stroke="#e1ed5e" stroke-width="0.3" x1="26.266209847984243" x2="21.928928074336255" y1="57.711370442889674" y2="55.22380399835377" /><path d="M 25.398753493254645 57.213857153982495 a86.0,86.0 0 0,1 29.58750427330803,-30.492523968695096" fill="none" id="id83" stroke="none" /><text fill="#e1ed5e" style="font-size:6.75px; font-family:Arial;" text-anchor="middle"><textPath startOffset="21.46611528233685" xlink:href="#id83">November</textPath></text><path d="M 82.95767976084542 87.72973835380427 l -13.517129815304735 -9.73216775720031 a37.656166656769784,37.656166656769784 0 0,0 0.38326336590329535,-0.5227708003720657 l 13.347603836887806 9.963401001243877" fill="#ffb811" stroke="none" /><path d="M 84.07557802195018 86.31012108654704 l -11.519748245965895 -9.903276791968588 a36.19142820371995,36.19142820371995 0 0,0 0.41018354196303136,-0.4689106958585838 l 11.34757284042502 10.100103044030115" fill="#ffa40f" stroke="none" /><path d="M 84.31358615837235 86.03803664274999 l -21.880952575740444 -19.47551946344124 a50.29286506971759,50.29286506971759 0 0,0 0.5811373114669596,-0.6417063340790065 l 21.54247162365744 19.849278584789804" fill="#a7ff21" stroke="none" /><path d="M 84.5562425177563 85.77008943001954 l -11.081755336809454 -10.210752634681516 a36.06866851156931,36.06866851156931 0 0,0 0.42463588138453184,-0.452971951380404 l 10.904352133454466 10.399994002939971" fill="#ffa20f" stroke="none" /><path d="M 85.05521093208273 85.24692304244772 l -11.5856142084529 -11.436993673249413 a37.279781352003866,37.279781352003866 0 0,0 0.4547497790463614,-0.4527969389761325 l 11.387028629239225 11.634726462875655" fill="#ffb210" stroke="none" /><path d="M 86.65592168130627 83.78471172551755 l -18.686686588251348 -22.707451401788727 a50.40783237187212,50.40783237187212 0 0,0 0.6747366840696956,-0.5455901403932439 l 18.293046505617152 23.025747639446106" fill="#a6ff21" stroke="none" /><path d="M 86.93701828274178 83.55741782278169 l -9.642528655242632 -12.137203683026113 a36.501292594826985,36.501292594826985 0 0,0 0.49531809924409637,-0.3866036330655193 l 9.43217800083911 12.301385705314855" fill="#ffa80f" stroke="none" /><path d="M 87.51073957382395 83.11751280151077 l -9.251957238306213 -12.506429068394285 a36.556653907001476,36.556653907001476 0 0,0 0.5091030787398289,-0.3698850378429487 l 9.035308843212603 12.663833341053902" fill="#ffa90f" stroke="none" /><path d="M 87.80319425747018 82.90503203632743 l -17.54901016328896 -24.596584783629094 a51.215223658438696,51.215223658438696 0 0,0 0.7220587097391384,-0.5058482699045195 l 17.123020313966162 24.895017896297556" fill="#9cff22" stroke="none" /><path d="M 88.09926311788651 82.69761687909137 l -16.804398310364316 -24.431775995255574 a50.65298434990518,50.65298434990518 0 0,0 0.7226379202633626,-0.4879283495479974 l 16.381355695694413 24.717416257102236" fill="#a3ff22" stroke="none" /><line stroke="#e1ed5e" stroke-width="0.3" x1="56.762969772571076" x2="54.21961505331055" y1="26.818313649435495" y2="22.513508569990535" /><path d="M 56.25429882871897 25.957352633546506 a86.0,86.0 0 0,1 42.265352541879196,-11.944610805530505" fill="none" id="id84" stroke="none" /><text fill="#e1ed5e" style="font-size:6.75px; font-family:Arial;" text-anchor="middle"><textPath startOffset="22.20632615414155" xlink:href="#id84">December</textPath></text><path d="M 89.63071344664047 81.73862282372117 l -14.842259970320729 -26.138742146980025 a51.05871790434341,51.05871790434341 0 0,0 0.7680104299451396,-0.42739697275722344 l 14.390125451303545 26.390354517297435" fill="#9eff22" stroke="none" /><path d="M 89.94658935756843 81.56283822128135 l -14.051235118715724 -25.76885639000576 a50.350829085567085,50.350829085567085 0 0,0 0.7645052983495116,-0.40837225388316856 l 13.605584773837908 26.006907370390678" fill="#a6ff21" stroke="none" /><path d="M 90.26544431104013 81.39251694778311 l -13.596001728156955 -25.98858949684878 a50.33015593255115,50.33015593255115 0 0,0 0.7711047537771666,-0.39498980475579 l 13.146636486791024 26.218771826917074" fill="#a7ff21" stroke="none" /><path d="M 90.58718382345135 81.22770947309562 l -13.098059132005957 -26.121892402104155 a50.22177981733199,50.22177981733199 0 0,0 0.7761147891714338,-0.38083615641689894 l 12.646473075824098 26.343483718655882" fill="#a8ff21" stroke="none" /><path d="M 91.23893434514133 80.91482961587045 l -12.595598404105372 -27.438344957397657 a51.19125491195507,51.19125491195507 0 0,0 0.8039900594327786,-0.3607269039197727 l 12.121426226205818 27.651092191833957" fill="#9dff22" stroke="none" /><path d="M 91.56875222667455 80.76684994638697 l -12.045537883777543 -27.4779776165678 a51.00223719668453,51.00223719668453 0 0,0 0.8070891337852175,-0.3455534468237248 l 11.570764992202017 27.68125059135431" fill="#9fff22" stroke="none" /><path d="M 95.692805502759 79.44645832069477 l -3.452591041708507 -16.47545146215415 a37.83332664042028,37.83332664042028 0 0,0 0.6385429429984191,-0.12808570726535984 l 3.168481689242951 16.53244112549672" fill="#ffba11" stroke="none" /></svg>