<?xml version="1.0" encoding="utf-8" ?>
<svg baseProfile="full" height="200mm" version="1.1" viewBox="0,0,200,200" width="200mm" xmlns="http://www.w3.org/2000/svg" xmlns:ev="http://www.w3.org/2001/xml-events" xmlns:xlink="http://www.w3.org/1999/xlink"><defs /><rect fill="#1a1a1a" height="200" width="200" x="0" y="0" /><text alignment-baseline="middle" fill="#e1ed5e" style="dominant-baseline: central; font-size:9.0px; font-family:Arial;" text-anchor="middle" x="100.0" y="100.0">2019</text><line stroke="#e1ed5e" stroke-width="0.3" x1="100.0" x2="100.0" y1="15.0" y2="10.0" /><path d="M 100.0 14.0 a86.0,86.0 0 0,1 42.46469731375804,11.215312516191453" fill="none" id="id37" stroke="none" /><text fill="#e1ed5e" style="font-size:6.75px; font-family:Arial;" text-anchor="middle"><textPath startOffset="22.20632615414155" xlink:href="#id37">January</textPath></text><path d="M 100.36148047927253 79.00311137660856 l 0.8932006630481473 -51.882289406344235 a72.8899774664446,72.8899774664446 0 0,0 1.2543093532199692,0.0323951100206214 l -1.7861366514629842 51.859227504181256" fill="#3cffa3" stroke="none" /><path d="M 101.08401301168833 79.027996857942 l 3.2520390350649873 -62.916009426173986 a84.0,84.0 0 0,0 1.4433518046415523,0.08706692247878367 l -4.334552888546152 62.8507092343149" fill="#4dd2ff" stroke="none" /><line stroke="#e1ed5e" stroke-width="0.3" x1="143.23703022742887" x2="145.7803849466894" y1="26.81831364943548" y2="22.513508569990506" /><path d="M 143.74570117128098 25.957352633546492 a86.0,86.0 0 0,1 28.547481713284135,27.462654790039103" fill="none" id="id38" stroke="none" /><text fill="#e1ed5e" style="font-size:6.75px; font-family:Arial;" text-anchor="middle"><textPath startOffset="19.985693538727396" xlink:href="#id38">February</textPath></text><line stroke="#e1ed5e" stroke-width="0.3" x1="172.23445277983987" x2="176.4835382374775" y1="55.19839476539836" y2="52.563006222186495" /><path d="M 173.08426987136738 54.67131705675599 a86.0,86.0 0 0,1 12.851231095245387,41.99856678651699" fill="none" id="id39" stroke="none" /><text fill="#e1ed5e" style="font-size:6.75px; font-family:Arial;" text-anchor="middle"><textPath startOffset="22.20632615414155" xlink:href="#id39">March</textPath></text><path d="M 120.67395015179393 96.31383870115 l 40.32887366459223 -7.190630345779904 a61.96490224355834,61.96490224355834 0 0,0 0.1781878617890402,1.0516748469154293 l -40.44667338790149 6.495369710548637" fill="#52ff2b" stroke="none" /><path d="M 120.73433829027371 96.67025291283417 l 41.14598287542379 -6.607672485612219 a62.67317173508377,62.67317173508377 0 0,0 0.1618881050521401,1.066640343205829 l -41.25362687391523 5.898433030014307" fill="#49ff2c" stroke="none" /><path d="M 120.96714384426684 98.82574320788733 l 44.54915777637072 -2.494958373460398 a65.61896766924659,65.61896766924659 0 0,0 0.05345256039350766,1.1282990676299718 l -44.585503944997726 1.7277481992074268" fill="#31ff3c" stroke="none" /><path d="M 120.98425023603335 99.18683210126433 l 31.679289579414625 -1.2276150470459153 a52.703066522974424,52.703066522974424 0 0,0 0.027326051972695692,0.9068186312855626 l -31.695727325842967 0.6821262683353536" fill="#cfff1d" stroke="none" /><line stroke="#e1ed5e" stroke-width="0.3" x1="184.98032266829074" x2="189.97916517819016" y1="98.17113171792111" y2="98.06355123074" /><path d="M 185.9800911702706 98.14961562048488 a86.0,86.0 0 0,1 -9.607161424134198,41.387399972396054" fill="none" id="id40" stroke="none" /><text fill="#e1ed5e" style="font-size:6.75px; font-family:Arial;" text-anchor="middle"><textPath startOffset="21.466115282336823" xlink:href="#id40">April</textPath></text><path d="M 120.92983693683757 101.71520430193887 l 31.345628626248548 2.568780503592557 a52.45070853335946,52.45070853335946 0 0,0 -0.08148693054544295,0.8992014883725579 l -31.296767099426027 -3.1079633805136853" fill="#d2ff1c" stroke="none" /><line stroke="#e1ed5e" stroke-width="0.3" x1="174.80103733775053" x2="179.2010983576182" y1="140.37084112569926" y2="142.7455964860345" /><path d="M 175.68104954172406 140.8457921977663 a86.0,86.0 0 0,1 -30.038265399797805,32.042727171017184" fill="none" id="id41" stroke="none" /><text fill="#e1ed5e" style="font-size:6.75px; font-family:Arial;" text-anchor="middle"><textPath startOffset="22.206326154141568" xlink:href="#id41">May</textPath></text><path d="M 118.12598468904814 110.60418214915192 l 28.039740822351682 16.40399262142611 a53.48565897913197,53.48565897913197 0 0,0 -0.4717412818484797,0.7906655228858868 l -27.753218664804972 -16.8842202381981" fill="#c4ff1e" stroke="none" /><path d="M 112.63410532772338 116.77436683061366 l 23.40769462926907 31.078516933743092 a59.90751062016263,59.90751062016263 0 0,0 -0.8290487129061304,0.6133104180524569 l -22.869260945944376 -31.476837300535315" fill="#6cff28" stroke="none" /><line stroke="#e1ed5e" stroke-width="0.3" x1="143.8653032363475" x2="146.44561519142675" y1="172.8068346515853" y2="177.08958963109032" /><path d="M 144.38136562736335 173.6633856474863 a86.0,86.0 0 0,1 -40.68145358897372,12.25698825130547" fill="none" id="id42" stroke="none" /><text fill="#e1ed5e" style="font-size:6.75px; font-family:Arial;" text-anchor="middle"><textPath startOffset="21.466115282336833" xlink:href="#id42">June</textPath></text><path d="M 110.21172684928248 118.3499491758327 l 15.383745396099245 27.643801123823252 a52.636045312040764,52.636045312040764 0 0,0 -0.7954990502614234,0.43376950931642677 l -14.905623533969173 -27.90451128489945" fill="#d0ff1d" stroke="none" /><path d="M 108.2653958097858 119.30500536409082 l 14.405495098310203 33.64607897131903 a57.60023113549525,57.60023113549525 0 0,0 -0.91482481063003,0.3823968450378415 l -13.824198828182713 -33.88906085937684" fill="#8bff24" stroke="none" /><path d="M 107.59598834532513 119.57807347666477 l 15.853819687320007 40.86199617659633 a64.82974252963652,64.82974252963652 0 0,0 -1.0438507871292486,0.3946950489309811 l -15.148098679430483 -41.12883947563394" fill="#2fff30" stroke="none" /><path d="M 107.2578585660854 119.70592522655815 l 12.385076720528556 33.62691537147954 a56.83517214656608,56.83517214656608 0 0,0 -0.9209474928437221,0.33021900519141406 l -11.804409667055099 -33.835121917710914" fill="#95ff23" stroke="none" /><path d="M 105.88484417918355 120.15858648285463 l 10.464745176874683 35.84707840103448 a58.3433249926521,58.3433249926521 0 0,0 -0.9664678244803451,0.27313346098431274 l -9.846146184289733 -36.021900655357314" fill="#81ff25" stroke="none" /><path d="M 103.7750983002368 120.6578951692458 l 9.2038742130511 50.3649583461727 a72.19902664837856,72.19902664837856 0 0,0 -1.2244646475969951,0.21288887426035027 l -8.335560593982054 -50.51592579895406" fill="#3bff9a" stroke="none" /><line stroke="#e1ed5e" stroke-width="0.3" x1="102.19456741930631" x2="102.32365962044197" y1="184.97166512339345" y2="189.96999836594603" /><path d="M 102.22038585953345 185.97133177190398 a86.0,86.0 0 0,1 -42.740103519485714,-10.115201625700543" fill="none" id="id43" stroke="none" /><text fill="#e1ed5e" style="font-size:6.75px; font-family:Arial;" text-anchor="middle"><textPath startOffset="22.20632615414155" xlink:href="#id43">July</textPath></text><path d="M 98.01472825383883 120.90594882070398 l -4.026834805846747 42.40467458585738 a63.59544371509748,63.59544371509748 0 0,0 -1.0888975506834637,-0.11286868336180023 l 4.756164953135804 -42.32907653403982" fill="#3eff2e" stroke="none" /><path d="M 97.65516085044442 120.86867818915974 l -4.747840969424136 42.254994464332164 a63.520895463897325,63.520895463897325 0 0,0 -1.0855194021529593,-0.13144128225124102 l 5.474487794628485 -42.167007653355576" fill="#3fff2d" stroke="none" /><line stroke="#e1ed5e" stroke-width="0.3" x1="58.666819895761336" x2="56.23545636021788" y1="174.27360380694188" y2="178.64263932499728" /><path d="M 58.180547188652646 175.14741091055294 a86.0,86.0 0 0,1 -31.652253787137756,-30.449443065178592" fill="none" id="id44" stroke="none" /><text fill="#e1ed5e" style="font-size:6.75px; font-family:Arial;" text-anchor="middle"><textPath startOffset="22.20632615414155" xlink:href="#id44">August</textPath></text><path d="M 84.9287848128048 114.62390073753433 l -20.718810000625716 20.10387464352644 a49.869271960419326,49.869271960419326 0 0,0 -0.5924788876964607,-0.6212117450503604 l 21.061795439701136 -19.744255781893578" fill="#f8ff18" stroke="none" /><path d="M 83.50135304334701 112.99209946851258 l -23.373324571754814 18.40566432774144 a50.750307240129324,50.750307240129324 0 0,0 -0.5345534278859576,-0.6909823640698329 l 23.68668481685884 -18.000603969558355" fill="#ebff1a" stroke="none" /><path d="M 83.28015986056508 112.70617746262583 l -30.794445132568146 23.40211876754997 a59.677603517194086,59.677603517194086 0 0,0 -0.6145052091062374,-0.8232301486038642 l 31.192711608369468 -22.868575739436796" fill="#6fff27" stroke="none" /><path d="M 82.05923443525364 110.91462005526583 l -36.51511048700792 22.214690660965594 a63.74161642990105,63.74161642990105 0 0,0 -0.562198398891689,-0.942276854133959 l 36.89208976159784 -21.582851712945523" fill="#3cff2e" stroke="none" /><line stroke="#e1ed5e" stroke-width="0.3" x1="26.63291911575756" x2="22.317208475507996" y1="142.92168965132927" y2="145.44649492493687" /><path d="M 25.769776987707644 143.4266507060508 a86.0,86.0 0 0,1 -11.730757126820373,-40.83630448921669" fill="none" id="id45" stroke="none" /><text fill="#e1ed5e" style="font-size:6.75px; font-family:Arial;" text-anchor="middle"><textPath startOffset="21.46611528233685" xlink:href="#id45">September</textPath></text><path d="M 80.87730276802145 108.67885076344099 l -38.619404595877484 17.52744631129053 a63.41072724600764,63.41072724600764 0 0,0 -0.442543209598836,-0.9978181096500552 l 38.9153888902076 -16.860079865147778" fill="#40ff2d" stroke="none" /><path d="M 79.35854240842038 103.8639653848113 l -46.18464173319761 8.645506557627264 a67.9868696090918,67.9868696090918 0 0,0 -0.20542898813897928,-1.1521548614391284 l 46.32661716367578 -7.849232945454923" fill="#34ff5f" stroke="none" /><line stroke="#e1ed5e" stroke-width="0.3" x1="15.007084014347285" x2="10.007500721073583" y1="101.09737516637583" y2="101.16192664675087" /><path d="M 14.007167355692545 101.11028546245083 a86.0,86.0 0 0,1 10.666146001902534,-42.60595125391555" fill="none" id="id46" stroke="none" /><text fill="#e1ed5e" style="font-size:6.75px; font-family:Arial;" text-anchor="middle"><textPath startOffset="22.20632615414155" xlink:href="#id46">October</textPath></text><path d="M 79.08570108090925 98.10471618934814 l -45.22801458231972 -4.09862764979182 a66.41334662486528,66.41334662486528 0 0,0 0.11297503021441166,-1.1376431366082085 l 45.15076242642308 4.8765463171044585" fill="#32ff48" stroke="none" /><path d="M 79.26566170972629 96.67025291283419 l -12.928350300125885 -2.0761760588181817 a34.09399665915548,34.09399665915548 0 0,0 0.0980415710277207,-0.5786469020207474 l 12.89069686757794 2.298408749154757" fill="#ff0000" stroke="none" /><line stroke="#e1ed5e" stroke-width="0.3" x1="26.266209847984243" x2="21.928928074336255" y1="57.711370442889674" y2="55.22380399835377" /><path d="M 25.398753493254645 57.213857153982495 a86.0,86.0 0 0,1 29.58750427330803,-30.492523968695096" fill="none" id="id47" stroke="none" /><text fill="#e1ed5e" style="font-size:6.75px; font-family:Arial;" text-anchor="middle"><textPath startOffset="21.46611528233685" xlink:href="#id47">November</textPath></text><line stroke="#e1ed5e" stroke-width="0.3" x1="56.762969772571076" x2="54.21961505331055" y1="26.818313649435495" y2="22.513508569990535" /><path d="M 56.25429882871897 25.957352633546506 a86.0,86.0 0 0,1 42.265352541879196,-11.944610805530505" fill="none" id="id48" stroke="none" /><text fill="#e1ed5e" style="font-size:6.75px; font-family:Arial;" text-anchor="middle"><textPath startOffset="22.20632615414155" xlink:href="#id48">December</textPath></text></svg>