<?xml version="1.0" encoding="utf-8" ?>
<svg baseProfile="full" height="200mm" version="1.1" viewBox="0,0,200,200" width="200mm" xmlns="http://www.w3.org/2000/svg" xmlns:ev="http://www.w3.org/2001/xml-events" xmlns:xlink="http://www.w3.org/1999/xlink"><defs /><rect fill="#1a1a1a" height="200" width="200" x="0" y="0" /><text alignment-baseline="middle" fill="#e1ed5e" style="dominant-baseline: central; font-size:9.0px; font-family:Arial;" text-anchor="middle" x="100.0" y="100.0">2016</text><line stroke="#e1ed5e" stroke-width="0.3" x1="100.0" x2="100.0" y1="15.0" y2="10.0" /><path d="M 100.0 14.0 a86.0,86.0 0 0,1 42.35913384403234,11.155469271406648" fill="none" id="id1" stroke="none" /><text fill="#e1ed5e" style="font-size:6.75px; font-family:Arial;" text-anchor="middle"><textPath startOffset="22.145653131862478" xlink:href="#id1">January</textPath></text><line stroke="#e1ed5e" stroke-width="0.3" x1="143.13028292997686" x2="145.6673583964461" y1="26.7553504044142" y2="22.446841604673864" /><path d="M 143.63769802327073 25.89364864446614 a86.0,86.0 0 0,1 29.32050498858742,28.57503671076993" fill="none" id="id2" stroke="none" /><text fill="#e1ed5e" style="font-size:6.75px; font-family:Arial;" text-anchor="middle"><textPath startOffset="20.669276256404974" xlink:href="#id2">February</textPath></text><line stroke="#e1ed5e" stroke-width="0.3" x1="172.87174338648825" x2="177.1583165268699" y1="56.24261187166439" y2="53.66864786411523" /><path d="M 173.72905801456457 55.72781907015455 a86.0,86.0 0 0,1 12.242430191666344,42.057860355516425" fill="none" id="id3" stroke="none" /><text fill="#e1ed5e" style="font-size:6.75px; font-family:Arial;" text-anchor="middle"><textPath startOffset="22.145653131862474" xlink:href="#id3">March</textPath></text><path d="M 119.83427380445688 93.10060997987247 l 13.567757985185438 -4.719570525312571 a35.36518021773352,35.36518021773352 0 0,0 0.19453304208899166,0.5751023726797857 l -13.646776448846794 4.485966478158624" fill="#ff0000" stroke="none" /><line stroke="#e1ed5e" stroke-width="0.3" x1="184.99686870605535" x2="189.99668451229388" y1="99.2704041080226" y2="99.22748670261217" /><path d="M 185.99683186730306 99.26182062694052 a86.0,86.0 0 0,1 -10.086455211305974,41.156179273409016" fill="none" id="id4" stroke="none" /><text fill="#e1ed5e" style="font-size:6.75px; font-family:Arial;" text-anchor="middle"><textPath startOffset="21.40746469413373" xlink:href="#id4">April</textPath></text><path d="M 120.592083275326 104.11899336999214 l 22.581977774827713 4.5170280001381995 a44.02931310692625,44.02931310692625 0 0,0 -0.1546105875874074,0.7398676312684755 l -22.50110947641594 -4.904012082692084" fill="#ff9a0e" stroke="none" /><path d="M 120.51834098615036 104.47187691870673 l 30.28199080431645 6.59981895328268 a51.99284719558394,51.99284719558394 0 0,0 -0.19754592775712687,0.8704238073677325 l -30.164234015001657 -7.1186770945894295" fill="#e5ff1a" stroke="none" /><path d="M 120.43855184770803 104.8234425847677 l 30.164234015001657 7.1186770945894295 a51.99284719558394,51.99284719558394 0 0,0 -0.21245880101492037,0.8669044098845152 l -30.03758768747044 -7.635437329082045" fill="#e5ff1a" stroke="none" /><path d="M 120.16314734710363 105.8691983318838 l 36.86465384649033 10.730763463491467 a59.39468697269138,59.39468697269138 0 0,0 -0.2933635954780965,0.9765119980081078 l -36.6750139310086 -11.362013065090299" fill="#7bff26" stroke="none" /><path d="M 120.05942366710727 106.21446072829308 l 38.89262598763536 12.049034948929078 a61.71628174839402,61.71628174839402 0 0,0 -0.32220390907886653,1.0092991560869422 l -38.68005736277924 -12.714903138707404" fill="#5cff2a" stroke="none" /><line stroke="#e1ed5e" stroke-width="0.3" x1="174.33088141563837" x2="178.70328620479359" y1="141.23008692659167" y2="143.65538615756765" /><path d="M 175.20536237346943 141.71514677278685 a86.0,86.0 0 0,1 -30.301960400862466,31.631185727798858" fill="none" id="id5" stroke="none" /><text fill="#e1ed5e" style="font-size:6.75px; font-family:Arial;" text-anchor="middle"><textPath startOffset="22.145653131862474" xlink:href="#id5">May</textPath></text><path d="M 117.21940702142032 112.02048342749411 l 30.6431318382647 21.39128588865864 a58.37095985959684,58.37095985959684 0 0,0 -0.5806101047135004,0.8167008240749982 l -30.27140663502124 -21.914163939443142" fill="#89ff24" stroke="none" /><path d="M 113.86319453409587 115.77377054828091 l 41.58958360228761 47.32131164484274 a84.0,84.0 0 0,0 -1.0912820809485777,0.9426234701411293 l -40.77112204157618 -48.02827924744859" fill="#4dd2ff" stroke="none" /><path d="M 112.7482090630111 116.68781488649013 l 27.987924044664158 36.637090998897015 a67.1042333109591,67.1042333109591 0 0,0 -0.9213954812690308,0.6914323465965632 l -27.35487557448436 -37.112142372757596" fill="#32ff4b" stroke="none" /><path d="M 112.45986205192187 116.90419585922612 l 26.752446771657926 36.294832001921954 a66.08889262687795,66.08889262687795 0 0,0 -0.9190100785906773,0.6652924248633112 l -26.125455682693282 -36.74872519815835" fill="#31ff3c" stroke="none" /><line stroke="#e1ed5e" stroke-width="0.3" x1="143.1302829299769" x2="145.66735839644613" y1="173.24464959558577" y2="177.55315839532614" /><path d="M 143.63769802327073 174.10635135553383 a86.0,86.0 0 0,1 -40.68552437913181,11.842963189579606" fill="none" id="id6" stroke="none" /><text fill="#e1ed5e" style="font-size:6.75px; font-family:Arial;" text-anchor="middle"><textPath startOffset="21.407464694133747" xlink:href="#id6">June</textPath></text><path d="M 110.34350942703117 118.27599006163325 l 18.60532287500368 32.87382279252606 a58.77361862831705,58.77361862831705 0 0,0 -0.8823202312225802,0.4894081589989561 l -18.038258455625005 -33.18836386695816" fill="#84ff25" stroke="none" /><path d="M 109.3889696526874 118.78422872680471 l 16.75103242705886 33.51328592588782 a58.46648396797714,58.46648396797714 0 0,0 -0.9016081711768063,0.44102173668419353 l -16.173264006619984 -33.79590141266924" fill="#88ff25" stroke="none" /><line stroke="#e1ed5e" stroke-width="0.3" x1="101.45913802915013" x2="101.54496967792366" y1="184.9874750549273" y2="189.98673829345242" /><path d="M 101.47630435890484 185.9873277026323 a86.0,86.0 0 0,1 -42.54439059252881,-10.42667462771756" fill="none" id="id7" stroke="none" /><text fill="#e1ed5e" style="font-size:6.75px; font-family:Arial;" text-anchor="middle"><textPath startOffset="22.145653131862474" xlink:href="#id7">July</textPath></text><line stroke="#e1ed5e" stroke-width="0.3" x1="58.13341422392154" x2="55.67067388415222" y1="173.97424548756322" y2="178.32567169271397" /><path d="M 57.64086615596768 174.84453072859336 a86.0,86.0 0 0,1 -31.369924170532247,-30.572349798747897" fill="none" id="id8" stroke="none" /><text fill="#e1ed5e" style="font-size:6.75px; font-family:Arial;" text-anchor="middle"><textPath startOffset="22.145653131862474" xlink:href="#id8">August</textPath></text><line stroke="#e1ed5e" stroke-width="0.3" x1="26.387840678322732" x2="22.057713659400548" y1="142.50000000000003" y2="145.00000000000006" /><path d="M 25.521815274538298 143.00000000000003 a86.0,86.0 0 0,1 -11.493303480769221,-40.785679425670985" fill="none" id="id9" stroke="none" /><text fill="#e1ed5e" style="font-size:6.75px; font-family:Arial;" text-anchor="middle"><textPath startOffset="21.40746469413373" xlink:href="#id9">September</textPath></text><path d="M 81.4637452351635 109.86951160357371 l -27.10836199366162 14.433675877063296 a51.71146836775338,51.71146836775338 0 0,0 -0.4104706913505543,-0.7871316732540491 l 27.352140753987126 -13.966197960704744" fill="#eaff1a" stroke="none" /><path d="M 81.1358732173502 109.22738970284198 l -17.323372299192783 8.473729476791375 a40.284795022563316,40.284795022563316 0 0,0 -0.2985309378259118,-0.6238148427717852 l 17.466282494978607 -8.175102131954485" fill="#ff5908" stroke="none" /><path d="M 80.9802524753101 108.90220220490708 l -18.7348691249527 8.768864729476407 a41.68546131399929,41.68546131399929 0 0,0 -0.2977841327039743,-0.6507120714377296 l 18.88263772251173 -8.44596367582399" fill="#ff720a" stroke="none" /><path d="M 80.5471966667186 107.91128576633889 l -20.47078108122183 8.325288454267806 a43.09894354764667,43.09894354764667 0 0,0 -0.27283955537068333,-0.6877339115231605 l 20.610679311558638 -7.97265352553108" fill="#ff8a0c" stroke="none" /><line stroke="#e1ed5e" stroke-width="0.3" x1="15.003131293944662" x2="10.003315487706104" y1="100.72959589197737" y2="100.7725132973878" /><path d="M 14.003168132696942 100.73817937305945 a86.0,86.0 0 0,1 10.791469493833604,-42.45332614584628" fill="none" id="id10" stroke="none" /><text fill="#e1ed5e" style="font-size:6.75px; font-family:Arial;" text-anchor="middle"><textPath startOffset="22.145653131862435" xlink:href="#id10">October</textPath></text><path d="M 80.41425534168474 92.42381321644754 l -35.820920576478606 -13.8563015999997 a59.40749204226361,59.40749204226361 0 0,0 0.37608146233512035,-0.9479709596787957 l 35.57778043917735 14.469173576892079" fill="#7bff26" stroke="none" /><path d="M 81.29705330413844 90.45014215332179 l -18.596541720977118 -9.49552670833676 a41.88052660851204,41.88052660851204 0 0,0 0.3324355167961563,-0.6374889367225424 l 18.43079813520602 9.813361888163788" fill="#ff750a" stroke="none" /><line stroke="#e1ed5e" stroke-width="0.3" x1="26.387840678322718" x2="22.05771365940052" y1="57.49999999999999" y2="54.99999999999999" /><path d="M 25.521815274538284 56.99999999999999 a86.0,86.0 0 0,1 29.574782752854787,-30.34633250058573" fill="none" id="id11" stroke="none" /><text fill="#e1ed5e" style="font-size:6.75px; font-family:Arial;" text-anchor="middle"><textPath startOffset="21.40746469413373" xlink:href="#id11">November</textPath></text><path d="M 88.12776184653039 82.6780497279521 l -20.730849121783187 -30.24692841761361 a57.6693984680739,57.6693984680739 0 0,0 0.8213871973816524,-0.5526659637443001 l 20.208565636304545 30.59834405541502" fill="#93ff23" stroke="none" /><line stroke="#e1ed5e" stroke-width="0.3" x1="56.869717070023135" x2="54.33264160355391" y1="26.7553504044142" y2="22.446841604673864" /><path d="M 56.362301976729285 25.89364864446614 a86.0,86.0 0 0,1 42.16139366436587,-11.88097634709845" fill="none" id="id12" stroke="none" /><text fill="#e1ed5e" style="font-size:6.75px; font-family:Arial;" text-anchor="middle"><textPath startOffset="22.145653131862474" xlink:href="#id12">December</textPath></text></svg>