<?xml version="1.0" encoding="utf-8" ?>
<svg baseProfile="full" height="200mm" version="1.1" viewBox="0,0,200,200" width="200mm" xmlns="http://www.w3.org/2000/svg" xmlns:ev="http://www.w3.org/2001/xml-events" xmlns:xlink="http://www.w3.org/1999/xlink"><defs /><rect fill="#1a1a1a" height="200" width="200" x="0" y="0" /><text alignment-baseline="middle" fill="#e1ed5e" style="dominant-baseline: central; font-size:9.0px; font-family:Arial;" text-anchor="middle" x="100.0" y="100.0">2021</text><line stroke="#e1ed5e" stroke-width="0.3" x1="100.0" x2="100.0" y1="15.0" y2="10.0" /><path d="M 100.0 14.0 a86.0,86.0 0 0,1 42.46469731375804,11.215312516191453" fill="none" id="id61" stroke="none" /><text fill="#e1ed5e" style="font-size:6.75px; font-family:Arial;" text-anchor="middle"><textPath startOffset="22.20632615414155" xlink:href="#id61">January</textPath></text><path d="M 108.76106565485865 80.91482961587045 l 1.2092743570783993 -2.634292225992037 a23.898592762464133,23.898592762464133 0 0,0 0.37238763195980934,0.1748409863781275 l -1.2544402003378066 2.613086256973906" fill="#ff0000" stroke="none" /><line stroke="#e1ed5e" stroke-width="0.3" x1="143.23703022742887" x2="145.7803849466894" y1="26.81831364943548" y2="22.513508569990506" /><path d="M 143.74570117128098 25.957352633546492 a86.0,86.0 0 0,1 28.547481713284135,27.462654790039103" fill="none" id="id62" stroke="none" /><text fill="#e1ed5e" style="font-size:6.75px; font-family:Arial;" text-anchor="middle"><textPath startOffset="19.985693538727396" xlink:href="#id62">February</textPath></text><line stroke="#e1ed5e" stroke-width="0.3" x1="172.23445277983987" x2="176.4835382374775" y1="55.19839476539836" y2="52.563006222186495" /><path d="M 173.08426987136738 54.67131705675599 a86.0,86.0 0 0,1 12.851231095245387,41.99856678651699" fill="none" id="id63" stroke="none" /><text fill="#e1ed5e" style="font-size:6.75px; font-family:Arial;" text-anchor="middle"><textPath startOffset="22.20632615414155" xlink:href="#id63">March</textPath></text><path d="M 120.67395015179393 96.31383870115 l 3.8062263081629317 -0.6786494118830712 a24.866254483760848,24.866254483760848 0 0,0 0.07150603901136787,0.4220326899698755 l -3.817344208694523 0.6130309335973578" fill="#ff0f01" stroke="none" /><path d="M 120.94382443527127 98.46500227214037 l 12.345778186508719 -0.9048367228019334 a33.37889205564882,33.37889205564882 0 0,0 0.03706552550786384,0.5733872740167468 l -12.359524303020997 0.6921903845321514" fill="#ff890c" stroke="none" /><path d="M 120.96714384426684 98.82574320788733 l 12.342708623697158 -0.6912486289069375 a33.36205002564113,33.36205002564113 0 0,0 0.027176395136776485,0.5736507487879466 l -12.35277862706743 0.4786867734959911" fill="#ff890c" stroke="none" /><line stroke="#e1ed5e" stroke-width="0.3" x1="184.98032266829074" x2="189.97916517819016" y1="98.17113171792111" y2="98.06355123074" /><path d="M 185.9800911702706 98.14961562048488 a86.0,86.0 0 0,1 -9.607161424134198,41.387399972396054" fill="none" id="id64" stroke="none" /><text fill="#e1ed5e" style="font-size:6.75px; font-family:Arial;" text-anchor="middle"><textPath startOffset="21.466115282336823" xlink:href="#id64">April</textPath></text><path d="M 120.99824983174949 100.27111621757518 l 15.232524581367795 0.1966727932904773 a36.233794186268725,36.233794186268725 0 0,0 -0.013420199041197116,0.6235839157848784 l -15.22688231964159 -0.4588465248654705" fill="#ffaf10" stroke="none" /><path d="M 120.92983693683757 101.71520430193887 l 12.091525671226984 0.9909029349287644 a33.13206007586476,33.13206007586476 0 0,0 -0.051473658864156266,0.5680075363351511 l -12.072677416085751 -1.198891859812486" fill="#ff850c" stroke="none" /><path d="M 120.89721153311464 102.0752229133903 l 12.972456895559654 1.2882455513250461 a34.03626535890022,34.03626535890022 0 0,0 -0.06291473746342767,0.5825123313949524 l -12.948359856595173 -1.5113542046047899" fill="#ff920d" stroke="none" /><path d="M 120.70491114924044 103.5080841355445 l 12.551543406265022 2.1266389400435464 a33.73042949238809,33.73042949238809 0 0,0 -0.10191979774853226,0.5716203517169605 l -12.5130771661773 -2.342378042493725" fill="#ff8e0d" stroke="none" /><path d="M 120.64145759157962 103.86396538481128 l 12.60992819657656 2.3605080135621783 a33.82896282654634,33.82896282654634 0 0,0 -0.11207062910507598,0.5714457233450517 l -12.567427634495818 -2.577217463975175" fill="#ff8f0d" stroke="none" /><path d="M 120.5718875245553 104.21870165774334 l 12.568970261374142 2.577533812320026 a33.830537556352056,33.830537556352056 0 0,0 -0.12189619736524802,0.5694584527567971 l -12.52274002528445 -2.7935060844929924" fill="#ff8f0d" stroke="none" /><path d="M 120.23288151984713 105.62410040840565 l 24.15188086858651 6.7134581361305035 a46.06758603527615,46.06758603527615 0 0,0 -0.21894687081922204,0.7621827804526767 l -24.032741360881186 -7.128198392087762" fill="#d2ff1c" stroke="none" /><path d="M 120.02730092923936 106.31721596034902 l 11.534130698252579 3.638213396462912 a33.09432791363682,33.09432791363682 0 0,0 -0.17604251787440725,0.5418031591049474 l -11.469795929361924 -3.8362154555456547" fill="#ff850c" stroke="none" /><path d="M 119.9155931802556 106.66101706037122 l 9.415548394112555 3.149146898025242 a30.92822631426266,30.92822631426266 0 0,0 -0.1732115712961969,0.5034339047260369 l -9.359945991873127 -3.3107535058405793" fill="#ff6709" stroke="none" /><path d="M 119.67450827220406 107.3425965602758 l 11.35475281525026 4.237634191947122 a33.11973411590341,33.11973411590341 0 0,0 -0.20393195616801915,0.5324019862038721 l -11.280126579488735 -4.432459744984138" fill="#ff850c" stroke="none" /><path d="M 119.54520255179757 107.68017299344265 l 15.970876751159393 6.275662581689362 a38.159628347954964,38.159628347954964 0 0,0 -0.24548885860562922,0.6092832146644092 l -15.860485278296371 -6.549645164196585" fill="#ffc912" stroke="none" /><path d="M 119.26925614724726 108.34839909993367 l 15.585329497081688 6.752339049901199 a37.98518702215036,37.98518702215036 0 0,0 -0.2650984669640994,0.5977270590526647 l -15.466789945386315 -7.0196144454465506" fill="#ffc712" stroke="none" /><path d="M 119.12269723197855 108.67885076344098 l 15.3643885989032 6.973139516030414 a37.87273278778905,37.87273278778905 0 0,0 -0.2745329171401843,0.5913194799250999 l -15.242081064923186 -7.236579063234345" fill="#ffc512" stroke="none" /><path d="M 118.97047184881838 109.00673069616215 l 7.50644619060075 3.5638828524017137 a29.309512344176852,29.309512344176852 0 0,0 -0.2203052892256737,0.45389414807611433 l -7.443987644760362 -3.6925659564431035" fill="#ff5007" stroke="none" /><line stroke="#e1ed5e" stroke-width="0.3" x1="174.80103733775053" x2="179.2010983576182" y1="140.37084112569926" y2="142.7455964860345" /><path d="M 175.68104954172406 140.8457921977663 a86.0,86.0 0 0,1 -30.038265399797805,32.042727171017184" fill="none" id="id65" stroke="none" /><text fill="#e1ed5e" style="font-size:6.75px; font-family:Arial;" text-anchor="middle"><textPath startOffset="22.206326154141568" xlink:href="#id65">May</textPath></text><path d="M 118.48025628344425 109.97397251340804 l 43.59737456648926 23.52992344443159 a70.54178404530438,70.54178404530438 0 0,0 -0.5859119646132558,1.0636004054075578 l -43.1858861924245 -24.27689436823695" fill="#3cffa2" stroke="none" /><path d="M 117.94076556474637 110.91462005526583 l 27.32388919890349 16.623029154577186 a52.983120848783315,52.983120848783315 0 0,0 -0.48072181059232366,0.7750766238315915 l -27.033702748643204 -17.09090210977405" fill="#82ff25" stroke="none" /><path d="M 117.75023020441432 111.22182372390056 l 13.235241169442661 8.367415049629072 a36.65839210858091,36.65839210858091 0 0,0 -0.3417873757751117,0.5304615973051199 l -13.089248930290502 -8.593998246855646" fill="#ffb510" stroke="none" /><path d="M 116.93607887273984 112.41649034213515 l 15.698316930561651 11.509039490234871 a40.46522911347679,40.46522911347679 0 0,0 -0.41667380411386207,0.558202652470425 l -15.497881859752697 -11.777555022214612" fill="#ffe715" stroke="none" /><path d="M 116.498646956653 112.99209946851258 l 15.304362437961421 12.051642757043345 a40.4798768675749,40.4798768675749 0 0,0 -0.43579881342779775,0.543726026882025 l -15.09464571247877 -12.313296617503621" fill="#ffe715" stroke="none" /><path d="M 116.0416608686014 113.55231037782055 l 38.86941227033086 32.83764340898433 a71.88361263605955,71.88361263605955 0 0,0 -0.8066624646095263,0.9383306865974137 l -38.29840729615056 -33.50185119474327" fill="#3dffb1" stroke="none" /><path d="M 115.32070863581623 114.36230785411682 l 18.324202701004484 17.177915632297655 a46.11687062708721,46.11687062708721 0 0,0 -0.5478979567791488,0.5744688172157727 l -18.025798192846374 -17.490791566095936" fill="#d1ff1c" stroke="none" /><path d="M 114.55890576462653 115.13401014063108 l 16.940466469983892 17.60964700840851 a45.43520149254758,45.43520149254758 0 0,0 -0.5682952042535971,0.5373585868199443 l -16.63483543133949 -17.898640231974376" fill="#d9ff1c" stroke="none" /><path d="M 114.29624159901734 115.38237550388516 l 8.852101518886188 9.524625659052864 a34.00300716164362,34.00300716164362 0 0,0 -0.43216275861543496,0.3947704335150923 l -8.686839210803889 -9.675588859154539" fill="#ff910d" stroke="none" /><path d="M 113.20401910651253 116.32954008644616 l 24.27998305125031 30.02729345779814 a59.61548820576699,59.61548820576699 0 0,0 -0.8035103454590224,0.6383572141668761 l -23.759515213073936 -30.440784585970142" fill="#3cff2e" stroke="none" /><path d="M 112.92097659922987 116.55440617244103 l 7.835125288871799 10.0383934176987 a33.73414821261379,33.73414821261379 0 0,0 -0.4608265709972121,0.35334216398759666 l -7.661169989381093 -10.171774923513667" fill="#ff8e0d" stroke="none" /><path d="M 112.34349029814194 116.9893568818739 l 10.370092067712475 14.273207235620974 a38.642654400169384,38.642654400169384 0 0,0 -0.5414989128261858,0.3863450966136329 l -10.122865827037405 -14.449596594078827" fill="#ffcf13" stroke="none" /><path d="M 111.7513745106137 117.40417183066458 l 28.469666028670453 42.16451097504321 a71.87600485050464,71.87600485050464 0 0,0 -1.0313361340450529,0.6835133526045606 l -27.739655195885437 -42.648322348739086" fill="#3dffb1" stroke="none" /><line stroke="#e1ed5e" stroke-width="0.3" x1="143.8653032363475" x2="146.44561519142675" y1="172.8068346515853" y2="177.08958963109032" /><path d="M 144.38136562736335 173.6633856474863 a86.0,86.0 0 0,1 -40.68145358897372,12.25698825130547" fill="none" id="id66" stroke="none" /><text fill="#e1ed5e" style="font-size:6.75px; font-family:Arial;" text-anchor="middle"><textPath startOffset="21.466115282336833" xlink:href="#id66">June</textPath></text><path d="M 110.8373102113329 117.98757091392108 l 6.411871950541163 10.642308760409229 a33.42460613709825,33.42460613709825 0 0,0 -0.4953719680041378,0.292674490333749 l -6.227732111508643 -10.751101823036727" fill="#ff890c" stroke="none" /><path d="M 110.5260780823613 118.17145234162733 l 6.625297553055471 11.437429761820704 a34.217767104284476,34.217767104284476 0 0,0 -0.5122093944016693,0.2908458619853087 l -6.427439391732603 -11.54977878960064" fill="#ff940d" stroke="none" /><path d="M 109.89434966115114 118.52300852407294 l 6.108967534873696 11.43647249157205 a33.96581610977979,33.96581610977979 0 0,0 -0.5180742810987895,0.2710319781682237 l -5.911202351248411 -11.539933888684992" fill="#ff910d" stroke="none" /><path d="M 109.57404056367764 118.69057910512821 l 13.226136044455114 25.82025220698651 a50.01062044663689,50.01062044663689 0 0,0 -0.7695588843662549,0.38587280040161803 l -12.779723252406098 -26.04409284829743" fill="#a3ff21" stroke="none" /><path d="M 109.2508944713604 118.85261126421891 l 8.528010218433526 17.37942876801306 a40.35901605423547,40.35901605423547 0 0,0 -0.62630914590717,0.300666450779559 l -8.227588404526122 -17.52364949529218" fill="#ffe515" stroke="none" /><path d="M 108.59647513512805 119.15986991738527 l 5.188055699264037 11.563166386168765 a33.67370264811706,33.67370264811706 0 0,0 -0.5308888930720955,0.23272608933638944 l -4.988246131534187 -11.65075702879961" fill="#ff8d0d" stroke="none" /><path d="M 107.93186726928326 119.44442032107085 l 14.130316952433361 34.63948812621703 a58.41069358916721,58.41069358916721 0 0,0 -0.9342343290656068,0.3717511199343999 l -13.531961547325887 -34.8775860905575" fill="#48ff2c" stroke="none" /><path d="M 104.13013068566511 120.58985236759428 l 4.883377508161979 24.34499767701504 a45.82994739787199,45.82994739787199 0 0,0 -0.7748150261295144,0.14849514383302587 l -4.46359486746076 -24.425450019196532" fill="#d5ff1c" stroke="none" /><path d="M 103.7750983002368 120.6578951692458 l 2.346307534323717 12.839341183733007 a34.05196694287596,34.05196694287596 0 0,0 -0.5775068119097632,0.10040696177421841 l -2.124951750941904 -12.877826724028232" fill="#ff920d" stroke="none" /><path d="M 102.70371172650421 120.8252237178851 l 0.5387228084771813 4.1494893477310235 a25.184314055052127,25.184314055052127 0 0,0 -0.43037903255332854,0.05211290722271446 l -0.46721635287247254 -4.158147783679088" fill="#ff1302" stroke="none" /><path d="M 102.34483914955558 120.86867818915974 l 5.677887193124605 50.53225107151849 a71.85023895059717,71.85023895059717 0 0,0 -1.2302382787015815,0.12751922772825824 l -4.807216317817422 -50.622499667702506" fill="#3dffb1" stroke="none" /><line stroke="#e1ed5e" stroke-width="0.3" x1="102.19456741930631" x2="102.32365962044197" y1="184.97166512339345" y2="189.96999836594603" /><path d="M 102.22038585953345 185.97133177190398 a86.0,86.0 0 0,1 -42.740103519485714,-10.115201625700543" fill="none" id="id67" stroke="none" /><text fill="#e1ed5e" style="font-size:6.75px; font-family:Arial;" text-anchor="middle"><textPath startOffset="22.20632615414155" xlink:href="#id67">July</textPath></text><path d="M 100.54218724476979 120.99299961872073 l 0.5084867538249754 19.688147097050525 a40.694712358750365,40.694712358750365 0 0,0 -0.7004147359369243,0.012058274870018397 l -0.16951232799538324 -19.693982849199703" fill="#ffea16" stroke="none" /><path d="M 100.18074693466247 120.99922214144158 l 0.11554622959178544 13.424188616725798 a34.42468587895461,34.42468587895461 0 0,0 -0.5925863285084726,0.0 l 0.1155462295917762 -13.424188616725798" fill="#ff970d" stroke="none" /><path d="M 99.81925306533755 120.99922214144158 l -0.15304825660156832 17.78118309302869 a38.78184174816147,38.78184174816147 0 0,0 -0.667491471808998,-0.0114914710206652 l 0.4590994183032342 -17.775914144728866" fill="#ffd113" stroke="none" /><path d="M 98.73552117531835 120.96189622390904 l -1.0912297920468446 18.089860589862177 a39.12274368355132,39.12274368355132 0 0,0 -0.6718627748947381,-0.046335590594046155 l 1.402455327720513 -18.068396654751844" fill="#ffd614" stroke="none" /><path d="M 98.37488393609728 120.93702456842531 l -1.3320197491275716 17.160946736405617 a38.21256429187169,38.21256429187169 0 0,0 -0.655355817304012,-0.05654685751045522 l 1.6272198841731254 -17.135475626616497" fill="#ffca12" stroke="none" /><path d="M 96.22490169976321 120.6578951692458 l -3.322170058262778 18.179404969056012 a39.48046479190813,39.48046479190813 0 0,0 -0.6674687425185406,-0.1279219730926711 l 3.634606415353014 -18.119525797614873" fill="#ffda14" stroke="none" /><path d="M 95.51606077576429 120.51570834832081 l -3.8807532063243264 17.755905459742564 a39.17504949494533,39.17504949494533 0 0,0 -0.65754359969074,-0.1496547825114432 l 4.185816955407929 -17.686473943653436" fill="#ffd614" stroke="none" /><path d="M 94.81253420990036 120.34920634021253 l -0.7516547807056211 2.948564645645998 a24.042863516313396,24.042863516313396 0 0,0 -0.40015288481573785,-0.10568401381281115 l 0.8022981083328482 -2.9351892825296053" fill="#ff0200" stroke="none" /><path d="M 93.76903079525671 120.05430185196036 l -4.4427531946504715 14.298949439752915 a35.97324317004126,35.97324317004126 0 0,0 -0.5897533224427771,-0.18882039005008575 l 4.688227862184189 -14.220356203043123" fill="#ffac0f" stroke="none" /><path d="M 90.42595943632237 118.69057910512821 l -9.44734705916686 18.44324623115354 a41.722106504873196,41.722106504873196 0 0,0 -0.6363795371080647,-0.33292369666057203 l 9.76341749880142 -18.277893115548252" fill="#fff717" stroke="none" /><path d="M 90.10565033884886 118.52300852407294 l -14.692259786146792 27.505077400410862 a52.18319708474772,52.18319708474772 0 0,0 -0.7886550646886564,-0.43003762269419654 l 15.163537662704089 -27.248099125956898" fill="#8bff24" stroke="none" /><line stroke="#e1ed5e" stroke-width="0.3" x1="58.666819895761336" x2="56.23545636021788" y1="174.27360380694188" y2="178.64263932499728" /><path d="M 58.180547188652646 175.14741091055294 a86.0,86.0 0 0,1 -31.652253787137756,-30.449443065178592" fill="none" id="id68" stroke="none" /><text fill="#e1ed5e" style="font-size:6.75px; font-family:Arial;" text-anchor="middle"><textPath startOffset="22.20632615414155" xlink:href="#id68">August</textPath></text><path d="M 88.54995079064634 117.60387380957326 l -9.640220456800476 14.821353281115 a38.68067768891602,38.68067768891602 0 0,0 -0.5550222313121457,-0.36783847047645274 l 9.893917386852584 -14.653216789547232" fill="#ffd013" stroke="none" /><path d="M 87.95078237400918 117.19931262002967 l -10.30481898535909 14.709320449130303 a38.95977178018195,38.95977178018195 0 0,0 -0.5459426737215125,-0.3895156020232832 l 10.556488986929487 -14.529760585262803" fill="#ffd313" stroke="none" /><path d="M 84.43433777217949 114.09645910891817 l -14.344501189081234 12.990560343029136 a40.35250300063106,40.35250300063106 0 0,0 -0.4618269995590738,-0.5188675297990275 l 14.565987038288645 -12.741718643489243" fill="#ffe515" stroke="none" /><path d="M 83.28015986056508 112.70617746262583 l -10.33242185503397 7.852083788715716 a33.97744817810481,33.97744817810481 0 0,0 -0.3498685883317511,-0.46870614877795097 l 10.466051710060807 -7.67306476042846" fill="#ff910d" stroke="none" /><path d="M 83.06392112726016 112.41649034213515 l -11.18279840342844 8.198539308747966 a34.86618285357608,34.86618285357608 0 0,0 -0.3506877324477321,-0.4870745883540419 l 11.322265928251777 -8.004831114942784" fill="#ff9d0e" stroke="none" /><path d="M 82.85270091963577 112.12312394758628 l -11.268603041718011 7.966891505807541 a34.80046284648181,34.80046284648181 0 0,0 -0.34160646864341454,-0.4921095962951944 l 11.404070417523556 -7.771740647325337" fill="#ff9c0e" stroke="none" /><path d="M 82.64656182679789 111.8261652097733 l -11.957035844342675 8.148580120148319 a35.469625570738586,35.469625570738586 0 0,0 -0.33948974247440583,-0.5074911024261026 l 12.095528692227814 -7.941552103516393" fill="#ffa50f" stroke="none" /><line stroke="#e1ed5e" stroke-width="0.3" x1="26.63291911575756" x2="22.317208475507996" y1="142.92168965132927" y2="145.44649492493687" /><path d="M 25.769776987707644 143.4266507060508 a86.0,86.0 0 0,1 -11.730757126820373,-40.83630448921669" fill="none" id="id69" stroke="none" /><text fill="#e1ed5e" style="font-size:6.75px; font-family:Arial;" text-anchor="middle"><textPath startOffset="21.46611528233685" xlink:href="#id69">September</textPath></text><path d="M 81.69416730710424 110.29060199501025 l -16.371539433910996 9.203241348609914 a39.78102645642314,39.78102645642314 0 0,0 -0.33041664143968785,-0.5998021802142746 l 16.5275324848022 -8.920068649997818" fill="#ffde14" stroke="none" /><path d="M 81.51974371655577 109.97397251340807 l -13.564316757756165 7.320792549085033 a36.413782554956576,36.413782554956576 0 0,0 -0.29295320136687203,-0.5541570546896609 l 13.688322467347923 -7.0862204793092465" fill="#ffb210" stroke="none" /><path d="M 81.35079622478065 109.6543875284942 l -21.66981590237821 11.21810898279086 a45.40137066627071,45.40137066627071 0 0,0 -0.3533120184670823,-0.6971181311554381 l 21.85970659063156 -10.843436639932735" fill="#daff1c" stroke="none" /><path d="M 80.87730276802145 108.67885076344099 l -12.253561933478428 5.561288454821052 a34.45651178185928,34.45651178185928 0 0,0 -0.24047185669967477,-0.5422005541416391 l 12.347474874909384 -5.349539564186718" fill="#ff980e" stroke="none" /><path d="M 80.58989483394504 108.01547362559985 l -22.4182546733063 9.257699921179213 a45.254549066676574,45.254549066676574 0 0,0 -0.2911319653270846,-0.722565662383116 l 22.574289252890775 -8.870434890953293" fill="#dcff1b" stroke="none" /><path d="M 80.45479744820244 107.68017299344265 l -4.550308392877455 1.788017061383628 a25.888999026599407,25.888999026599407 0 0,0 -0.15940931760653895,-0.4161674261742513 l 4.580411990077505 -1.7094260683762188" fill="#ff1e03" stroke="none" /><path d="M 80.32549172779595 107.34259656027581 l -24.77112903935354 9.244673582793935 a47.43998531649956,47.43998531649956 0 0,0 -0.2789374878502951,-0.7675161676799134 l 24.926590788209054 -8.816909618107903" fill="#c1ff1e" stroke="none" /><path d="M 80.0844068197444 106.66101706037122 l -12.637618163445262 4.226808080847018 a34.32573823085818,34.32573823085818 0 0,0 -0.18259290237974476,-0.561963169659191 l 12.708503316841258 -4.008646011210024" fill="#ff960d" stroke="none" /><path d="M 79.67330655649465 105.27499134158121 l -25.31099473626216 6.568470098281057 a47.149402554764094,47.149402554764094 0 0,0 -0.19710400390742094,-0.7873325173810123 l 25.42031005446464 -6.131809741502653" fill="#c5ff1e" stroke="none" /><path d="M 79.4281124754447 104.21870165774334 l -49.99743276928827 10.253033527183222 a72.03790728496853,72.03790728496853 0 0,0 -0.23865152562418981,-1.2168789876235218 l 50.16651422788812 -9.390890812491746" fill="#3effb3" stroke="none" /><path d="M 79.1416061653843 102.43462659150553 l -7.68479049927571 0.8969815915852578 a28.736962000255723,28.736962000255723 0 0,0 -0.0531191774619836,-0.4918176114642455 l 7.699091978238745 -0.7645676582362302" fill="#ff4706" stroke="none" /><path d="M 79.07016306316243 101.71520430193888 l -33.71986600480771 2.763349729230509 a54.832905064570284,54.832905064570284 0 0,0 -0.06899400239227343,-0.9413683466524005 l 33.76243656586433 -2.1825082460813476" fill="#6eff28" stroke="none" /><line stroke="#e1ed5e" stroke-width="0.3" x1="15.007084014347285" x2="10.007500721073583" y1="101.09737516637583" y2="101.16192664675087" /><path d="M 14.007167355692545 101.11028546245083 a86.0,86.0 0 0,1 10.666146001902534,-42.60595125391555" fill="none" id="id70" stroke="none" /><text fill="#e1ed5e" style="font-size:6.75px; font-family:Arial;" text-anchor="middle"><textPath startOffset="22.20632615414155" xlink:href="#id70">October</textPath></text><path d="M 79.00175016825051 100.2711162175752 l -53.63082714495447 0.6924475667007634 a74.63529718277522,74.63529718277522 0 0,0 -0.00552906352980912,-1.2847596439535796 l 53.63480050577378 0.2308215554564915" fill="#41ffcf" stroke="none" /><path d="M 79.01574976396665 99.18683210126434 l -20.669429887629313 -0.8009681871275953 a41.68494336265909,41.68494336265909 0 0,0 0.03395614152028858,-0.7167604794907196 l 20.652580137875525 1.156639773241324" fill="#fff617" stroke="none" /><path d="M 79.12142395522702 97.74499172005258 l -17.00603057854267 -1.8367507286615705 a38.104932893103296,38.104932893103296 0 0,0 0.07604591839866155,-0.6515149883799848 l 16.971894307140417 2.129209455366417" fill="#ffc812" stroke="none" /><path d="M 79.16333360222342 97.38593545837743 l -24.184679534281184 -3.0340896194323754 a45.374257403962616,45.374257403962616 0 0,0 0.10389408741724893,-0.77413162715603 l 24.1288694478061 3.449939588653065" fill="#daff1c" stroke="none" /><path d="M 79.54389044137918 95.25157060432595 l -36.48349602060604 -8.46882954281962 a58.45352527748104,58.45352527748104 0 0,0 0.2359496025074166,-0.9781634306703616 l 36.33231361783781 9.095578205149378" fill="#48ff2c" stroke="none" /><path d="M 80.38941819471856 92.48833698450439 l -58.83174541584431 -22.534989046486853 a84.0,84.0 0 0,0 0.5288258004732356,-1.3458039804169464 l 58.435126065489385 23.544342031799562" fill="#4dd2ff" stroke="none" /><path d="M 80.803312248108 91.48605970444005 l -22.160600208682798 -9.828467781995517 a45.242338594920994,45.242338594920994 0 0,0 0.3218619314876538,-0.7091801016172826 l 21.98813596023179 10.208469892454872" fill="#dcff1b" stroke="none" /><path d="M 81.10775173730289 90.83032412892265 l -22.173322936851335 -10.762201591279776 a45.64713438015143,45.64713438015143 0 0,0 0.34917881312101673,-0.7039231800719733 l 21.984784110776907 11.142284359850711" fill="#d7ff1c" stroke="none" /><line stroke="#e1ed5e" stroke-width="0.3" x1="26.266209847984257" x2="21.92892807433627" y1="57.711370442889674" y2="55.22380399835377" /><path d="M 25.39875349325466 57.213857153982495 a86.0,86.0 0 0,1 29.58750427330802,-30.492523968695096" fill="none" id="id71" stroke="none" /><text fill="#e1ed5e" style="font-size:6.75px; font-family:Arial;" text-anchor="middle"><textPath startOffset="21.46611528233685" xlink:href="#id71">November</textPath></text><path d="M 84.31358615837235 86.03803664274997 l -20.085748411136095 -17.877667014943825 a47.88955684150757,47.88955684150757 0 0,0 0.5533669293176763,-0.6110415845037146 l 19.775037841202373 18.220761386717097" fill="#bcff1f" stroke="none" /><path d="M 84.5562425177563 85.77008943001954 l -14.327282205778511 -13.201187906084698 a40.4818473850858,40.4818473850858 0 0,0 0.47659216859990755,-0.5083952960344028 l 14.097922715208147 13.44585261899715" fill="#ffe715" stroke="none" /><line stroke="#e1ed5e" stroke-width="0.3" x1="56.762969772571076" x2="54.21961505331055" y1="26.818313649435495" y2="22.513508569990535" /><path d="M 56.25429882871897 25.957352633546506 a86.0,86.0 0 0,1 42.265352541879196,-11.944610805530505" fill="none" id="id72" stroke="none" /><text fill="#e1ed5e" style="font-size:6.75px; font-family:Arial;" text-anchor="middle"><textPath startOffset="22.20632615414155" xlink:href="#id72">December</textPath></text><path d="M 92.91201910852362 80.23233633223022 l -5.093180783761647 -14.204367403645366 a36.08988216765863,36.08988216765863 0 0,0 0.58657744071702,-0.2046453513161993 l 4.847921338981341 14.289933608133778" fill="#ffae10" stroke="none" /><path d="M 95.33964822691252 79.52364482259891 l -5.442356707977801 -23.91227838168878 a45.523790570388,45.523790570388 0 0,0 0.7655741840020884,-0.1673248641687881 l 5.029939799822192 24.002416743953436" fill="#d8ff1c" stroke="none" /></svg>