<?xml version="1.0" encoding="utf-8" ?>
<svg baseProfile="full" height="200mm" version="1.1" viewBox="0,0,200,200" width="200mm" xmlns="http://www.w3.org/2000/svg" xmlns:ev="http://www.w3.org/2001/xml-events" xmlns:xlink="http://www.w3.org/1999/xlink"><defs /><rect fill="#1a1a1a" height="200" width="200" x="0" y="0" /><text alignment-baseline="middle" fill="#e1ed5e" style="dominant-baseline: central; font-size:9.0px; font-family:Arial;" text-anchor="middle" x="100.0" y="100.0">2018</text><line stroke="#e1ed5e" stroke-width="0.3" x1="100.0" x2="100.0" y1="15.0" y2="10.0" /><path d="M 100.0 14.0 a86.0,86.0 0 0,1 42.46469731375804,11.215312516191453" fill="none" id="id25" stroke="none" /><text fill="#e1ed5e" style="font-size:6.75px; font-family:Arial;" text-anchor="middle"><textPath startOffset="22.20632615414155" xlink:href="#id25">January</textPath></text><line stroke="#e1ed5e" stroke-width="0.3" x1="143.23703022742887" x2="145.7803849466894" y1="26.81831364943548" y2="22.513508569990506" /><path d="M 143.74570117128098 25.957352633546492 a86.0,86.0 0 0,1 28.547481713284135,27.462654790039103" fill="none" id="id26" stroke="none" /><text fill="#e1ed5e" style="font-size:6.75px; font-family:Arial;" text-anchor="middle"><textPath startOffset="19.985693538727396" xlink:href="#id26">February</textPath></text><line stroke="#e1ed5e" stroke-width="0.3" x1="172.23445277983987" x2="176.4835382374775" y1="55.19839476539836" y2="52.563006222186495" /><path d="M 173.08426987136738 54.67131705675599 a86.0,86.0 0 0,1 12.851231095245387,41.99856678651699" fill="none" id="id27" stroke="none" /><text fill="#e1ed5e" style="font-size:6.75px; font-family:Arial;" text-anchor="middle"><textPath startOffset="22.20632615414155" xlink:href="#id27">March</textPath></text><line stroke="#e1ed5e" stroke-width="0.3" x1="184.98032266829074" x2="189.97916517819016" y1="98.17113171792111" y2="98.06355123074" /><path d="M 185.9800911702706 98.14961562048488 a86.0,86.0 0 0,1 -9.607161424134198,41.387399972396054" fill="none" id="id28" stroke="none" /><text fill="#e1ed5e" style="font-size:6.75px; font-family:Arial;" text-anchor="middle"><textPath startOffset="21.466115282336823" xlink:href="#id28">April</textPath></text><path d="M 120.70491114924044 103.5080841355445 l 35.28623600907312 5.978633950865788 a56.78913963210702,56.78913963210702 0 0,0 -0.17159394981684603,0.9623899979552357 l -35.17809561691708 -6.585142699554242" fill="#77ff27" stroke="none" /><path d="M 120.5718875245553 104.21870165774334 l 38.78553692112251 7.953796593059199 a60.59268561872909,60.59268561872909 0 0,0 -0.2183239906480357,1.0199370005086366 l -38.64287889175003 -8.620247412984003" fill="#4aff2c" stroke="none" /><path d="M 119.79798401119884 107.00284435728193 l 36.30827062330529 12.842780755518051 a59.51269314381271,59.51269314381271 0 0,0 -0.3499225602619738,0.9628366000813564 l -36.08182380203809 -13.465865152605538" fill="#57ff2a" stroke="none" /><path d="M 119.41010516605496 108.01547362559984 l 39.94785699186959 16.49661304656622 a64.22001295986621,64.22001295986621 0 0,0 -0.43072980062925526,1.0181180131613612 l -39.657976210048034 -17.181805585393747" fill="#31ff40" stroke="none" /><line stroke="#e1ed5e" stroke-width="0.3" x1="174.80103733775053" x2="179.2010983576182" y1="140.37084112569926" y2="142.7455964860345" /><path d="M 175.68104954172406 140.8457921977663 a86.0,86.0 0 0,1 -30.038265399797805,32.042727171017184" fill="none" id="id29" stroke="none" /><text fill="#e1ed5e" style="font-size:6.75px; font-family:Arial;" text-anchor="middle"><textPath startOffset="22.206326154141568" xlink:href="#id29">May</textPath></text><path d="M 117.94076556474637 110.91462005526583 l 35.890390507538335 21.834629888629173 a63.01037006688963,63.01037006688963 0 0,0 -0.5717001697785629,0.9217627069800188 l -35.509225698091804 -22.44918892697446" fill="#2fff2f" stroke="none" /><path d="M 117.75023020441432 111.22182372390056 l 35.69460450577491 22.566386747960994 a63.22968862876254,63.22968862876254 0 0,0 -0.589526929699775,0.9149588865701387 l -35.30087271269809 -23.17746723445259" fill="#30ff32" stroke="none" /><path d="M 117.55443506779137 111.5257021239791 l 46.401787926430146 30.46598672043574 a76.50947909698996,76.50947909698996 0 0,0 -0.732293700244674,1.0946797229518057 l -45.87049112077475 -31.260203357593355" fill="#42ffda" stroke="none" /><path d="M 116.0416608686014 113.55231037782055 l 43.600604224363906 36.83464735659946 a78.07717525083612,78.07717525083612 0 0,0 -0.8761652942578354,1.0191781794777597 l -42.96009642053529 -37.57970263523875" fill="#45ffec" stroke="none" /><path d="M 114.81725581225074 114.88116024355365 l 32.398475834850075 32.5382052287096 a66.91727382943144,66.91727382943144 0 0,0 -0.8232419467007442,0.8057155143082765 l -31.83358393577354 -33.09107084594045" fill="#35ff64" stroke="none" /><path d="M 114.29624159901734 115.38237550388516 l 42.635557347130195 45.874725072921656 a83.62811789297659,83.62811789297659 0 0,0 -1.062875349660651,0.9709114313837001 l -41.83958244800268 -46.60182927089194" fill="#4cd6ff" stroke="none" /><path d="M 112.34349029814194 116.9893568818739 l 5.007996991404958 6.892916516743813 a29.52011337792642,29.52011337792642 0 0,0 -0.4136648879012523,0.2951389140335657 l -4.888604775654821 -6.978099692621598" fill="#ff0000" stroke="none" /><path d="M 111.7513745106137 117.40417183066458 l 28.151571442115856 41.69340243894811 a71.3075618729097,71.3075618729097 0 0,0 -1.0231796458796745,0.6781076770082534 l -27.42971709749622 -42.171808137047684" fill="#3bff9c" stroke="none" /><line stroke="#e1ed5e" stroke-width="0.3" x1="143.8653032363475" x2="146.44561519142675" y1="172.8068346515853" y2="177.08958963109032" /><path d="M 144.38136562736335 173.6633856474863 a86.0,86.0 0 0,1 -40.68145358897372,12.25698825130547" fill="none" id="id30" stroke="none" /><text fill="#e1ed5e" style="font-size:6.75px; font-family:Arial;" text-anchor="middle"><textPath startOffset="21.466115282336833" xlink:href="#id30">June</textPath></text><path d="M 110.21172684928248 118.3499491758327 l 24.29376770005585 43.654654023264776 a70.95914297658862,70.95914297658862 0 0,0 -1.0724196795295344,0.5847687159625565 l -23.538725208657667 -44.0663633909871" fill="#3bff98" stroke="none" /><path d="M 105.18746579009965 120.34920634021253 l 12.992531588964171 50.96664091552153 a73.59661931438127,73.59661931438127 0 0,0 -1.230278641157995,0.3023725574660084 l -12.113299663062966 -51.182734731301565" fill="#3effb8" stroke="none" /><path d="M 101.98527174616119 120.90594882070398 l 4.642626983901783 48.889287981228065 a70.10922993311037,70.10922993311037 0 0,0 -1.202392263770214,0.10374746392088179 l -3.8003904023900272 -48.96195969742761" fill="#39ff8d" stroke="none" /><line stroke="#e1ed5e" stroke-width="0.3" x1="102.19456741930631" x2="102.32365962044197" y1="184.97166512339345" y2="189.96999836594603" /><path d="M 102.22038585953345 185.97133177190398 a86.0,86.0 0 0,1 -42.740103519485714,-10.115201625700543" fill="none" id="id31" stroke="none" /><text fill="#e1ed5e" style="font-size:6.75px; font-family:Arial;" text-anchor="middle"><textPath startOffset="22.20632615414155" xlink:href="#id31">July</textPath></text><path d="M 93.08242187328487 119.8279376855182 l -10.643336790256832 30.507124715829953 a53.31045150501672,53.31045150501672 0 0,0 -0.8638335171978448,-0.30973996554272254 l 11.166889868084404 -30.31939720924727" fill="#a2ff22" stroke="none" /><line stroke="#e1ed5e" stroke-width="0.3" x1="58.666819895761336" x2="56.23545636021788" y1="174.27360380694188" y2="178.64263932499728" /><path d="M 58.180547188652646 175.14741091055294 a86.0,86.0 0 0,1 -31.652253787137756,-30.449443065178592" fill="none" id="id32" stroke="none" /><text fill="#e1ed5e" style="font-size:6.75px; font-family:Arial;" text-anchor="middle"><textPath startOffset="22.20632615414155" xlink:href="#id32">August</textPath></text><path d="M 83.28015986056508 112.70617746262583 l -32.555150607927146 24.740160043229565 a61.88903704013378,61.88903704013378 0 0,0 -0.6372765226199757,-0.8537360442903943 l 32.97618839724221 -24.176111119429866" fill="#3cff2e" stroke="none" /><line stroke="#e1ed5e" stroke-width="0.3" x1="26.63291911575756" x2="22.317208475507996" y1="142.92168965132927" y2="145.44649492493687" /><path d="M 25.769776987707644 143.4266507060508 a86.0,86.0 0 0,1 -11.730757126820373,-40.83630448921669" fill="none" id="id33" stroke="none" /><text fill="#e1ed5e" style="font-size:6.75px; font-family:Arial;" text-anchor="middle"><textPath startOffset="21.46611528233685" xlink:href="#id33">September</textPath></text><path d="M 81.69416730710424 110.29060199501025 l -46.34559294379652 26.053119746497682 a74.16652173913043,74.16652173913043 0 0,0 -0.6160186200110053,-1.1182527300236902 l 46.787187973259044 -25.25149649807617" fill="#3fffbf" stroke="none" /><path d="M 80.73074385275274 108.34839909993369 l -37.81089648220865 16.381558880509807 a62.20703051839465,62.20703051839465 0 0,0 -0.41722853387886316,-0.9862050067731559 l 38.08727599727982 -15.728279348070494" fill="#38ff2e" stroke="none" /><path d="M 80.58989483394504 108.01547362559985 l -37.35039124699435 15.423980106490424 a61.409787040133786,61.409787040133786 0 0,0 -0.39506198514917246,-0.9805114483426456 l 37.61035584640091 -14.778769290304972" fill="#41ff2d" stroke="none" /><path d="M 79.86692584326677 105.97154293290107 l -39.908627529686306 11.837043902556635 a62.62708444816054,62.62708444816054 0 0,0 -0.2976497218229611,-1.0361577296407503 l 40.106469888395374 -11.148328697411289" fill="#34ff2f" stroke="none" /><path d="M 79.76711848015287 105.62410040840567 l -38.6658196056429 10.747873535567434 a61.1318127090301,61.1318127090301 0 0,0 -0.2730901403308852,-1.016270004197011 l 38.84509782231556 -10.080712598194886" fill="#44ff2d" stroke="none" /><path d="M 79.29508885075956 103.50808413554451 l -40.75481283859198 6.905188403640899 a62.33565526755852,62.33565526755852 0 0,0 -0.1701414476512295,-1.0594709569369176 l 40.8676360406045 -6.202638217010768" fill="#37ff2e" stroke="none" /><path d="M 79.23777060512086 103.15116336523772 l -43.7207986165779 6.635673668718675 a65.22149247491639,65.22149247491639 0 0,0 -0.1589104550758497,-1.111419352683098 l 43.828543122670354 -5.8821088440551765" fill="#32ff4d" stroke="none" /><path d="M 79.18660465613746 102.79330883721812 l -40.35557776208975 5.416011666118139 a61.717389882943145,61.717389882943145 0 0,0 -0.13224711418839458,-1.0541396191777912 l 40.442826385524995 -4.720554292652939" fill="#3eff2e" stroke="none" /><path d="M 79.0235259727143 100.99374915477108 l -16.552393840737416 0.7841607396588406 a37.570958026755854,37.570958026755854 0 0,0 -0.025043489481506524,-0.6462611852736345 l 16.56343946307012 -0.49912230737120933" fill="#ff800b" stroke="none" /><line stroke="#e1ed5e" stroke-width="0.3" x1="15.007084014347285" x2="10.007500721073583" y1="101.09737516637583" y2="101.16192664675087" /><path d="M 14.007167355692545 101.11028546245083 a86.0,86.0 0 0,1 10.666146001902534,-42.60595125391555" fill="none" id="id34" stroke="none" /><text fill="#e1ed5e" style="font-size:6.75px; font-family:Arial;" text-anchor="middle"><textPath startOffset="22.20632615414155" xlink:href="#id34">October</textPath></text><path d="M 79.00486145842228 99.54816195383935 l -41.23141015788378 -0.8873444568747553 a62.24095735785953,62.24095735785953 0 0,0 0.032271360051692434,-1.0709293307734569 l 41.21002710337644 1.5969439350732064" fill="#38ff2e" stroke="none" /><path d="M 80.95270993114464 91.15688171328213 l -35.464911998842396 -16.465356000778865 a60.10074080267559,60.10074080267559 0 0,0 0.44372035264264587,-0.9345882254636305 l 35.176233452358 17.073386641883026" fill="#50ff2b" stroke="none" /><line stroke="#e1ed5e" stroke-width="0.3" x1="26.266209847984257" x2="21.92892807433627" y1="57.711370442889674" y2="55.22380399835377" /><path d="M 25.39875349325466 57.213857153982495 a86.0,86.0 0 0,1 29.58750427330802,-30.492523968695096" fill="none" id="id35" stroke="none" /><text fill="#e1ed5e" style="font-size:6.75px; font-family:Arial;" text-anchor="middle"><textPath startOffset="21.46611528233685" xlink:href="#id35">November</textPath></text><line stroke="#e1ed5e" stroke-width="0.3" x1="56.762969772571076" x2="54.21961505331055" y1="26.818313649435495" y2="22.513508569990535" /><path d="M 56.25429882871897 25.957352633546506 a86.0,86.0 0 0,1 42.265352541879196,-11.944610805530505" fill="none" id="id36" stroke="none" /><text fill="#e1ed5e" style="font-size:6.75px; font-family:Arial;" text-anchor="middle"><textPath startOffset="22.20632615414155" xlink:href="#id36">December</textPath></text><path d="M 89.94658935756843 81.56283822128135 l -18.697038187130858 -34.28889260566761 a60.05518394648829,60.05518394648829 0 0,0 0.9118520420472186,-0.4870797814255923 l 18.104041098555335 34.60565111359496" fill="#51ff2b" stroke="none" /><path d="M 90.58718382345135 81.22770947309562 l -20.898880445495237 -41.67932827449818 a67.62541806020067,67.62541806020067 0 0,0 1.0450662495698657,-0.5128094699910483 l 20.178342928914944 42.032892904624056" fill="#36ff6d" stroke="none" /><path d="M 92.23578459929587 80.48803036053334 l -15.054528021933859 -37.83299129926688 a61.718227424749166,61.718227424749166 0 0,0 0.990480079453289,-0.3842908827965816 l 14.401064777480892 38.08652488595401" fill="#3eff2e" stroke="none" /><path d="M 92.91201910852362 80.23233633223022 l -17.349975204135873 -48.38733057138155 a72.40384615384616,72.40384615384616 0 0,0 1.1767969365400466,-0.41056134414525763 l 16.514496263532543 48.67881276869901" fill="#3dffaa" stroke="none" /><path d="M 97.11714578562143 79.19881850522333 l -8.648562643135705 -62.403544484330034 a84.0,84.0 0 0,0 1.433941085968569,-0.1861667073434532 l 7.573106828659279 62.54316951483762" fill="#4dd2ff" stroke="none" /></svg>