<?xml version="1.0" encoding="utf-8" ?>
<svg baseProfile="full" height="200mm" version="1.1" viewBox="0,0,200,200" width="200mm" xmlns="http://www.w3.org/2000/svg" xmlns:ev="http://www.w3.org/2001/xml-events" xmlns:xlink="http://www.w3.org/1999/xlink"><defs /><rect fill="#1a1a1a" height="200" width="200" x="0" y="0" /><text alignment-baseline="middle" fill="#e1ed5e" style="dominant-baseline: central; font-size:9.0px; font-family:Arial;" text-anchor="middle" x="100.0" y="100.0">2017</text><line stroke="#e1ed5e" stroke-width="0.3" x1="100.0" x2="100.0" y1="15.0" y2="10.0" /><path d="M 100.0 14.0 a86.0,86.0 0 0,1 42.46469731375804,11.215312516191453" fill="none" id="id13" stroke="none" /><text fill="#e1ed5e" style="font-size:6.75px; font-family:Arial;" text-anchor="middle"><textPath startOffset="22.20632615414155" xlink:href="#id13">January</textPath></text><line stroke="#e1ed5e" stroke-width="0.3" x1="143.23703022742887" x2="145.7803849466894" y1="26.81831364943548" y2="22.513508569990506" /><path d="M 143.74570117128098 25.957352633546492 a86.0,86.0 0 0,1 28.547481713284135,27.462654790039103" fill="none" id="id14" stroke="none" /><text fill="#e1ed5e" style="font-size:6.75px; font-family:Arial;" text-anchor="middle"><textPath startOffset="19.985693538727396" xlink:href="#id14">February</textPath></text><path d="M 117.65298651832404 88.62581576622439 l 24.469544427533975 -15.766233444206605 a50.10898008361471,50.10898008361471 0 0,0 0.4609367682102565,0.729091273104308 l -24.737308791990188 15.34269452338809" fill="#ffe515" stroke="none" /><line stroke="#e1ed5e" stroke-width="0.3" x1="172.23445277983987" x2="176.4835382374775" y1="55.19839476539836" y2="52.563006222186495" /><path d="M 173.08426987136738 54.67131705675599 a86.0,86.0 0 0,1 12.851231095245387,41.99856678651699" fill="none" id="id15" stroke="none" /><text fill="#e1ed5e" style="font-size:6.75px; font-family:Arial;" text-anchor="middle"><textPath startOffset="22.20632615414155" xlink:href="#id15">March</textPath></text><path d="M 117.84615892207809 88.93136811851018 l 27.645892602652758 -17.146670585534245 a53.53157988733771,53.53157988733771 0 0,0 0.47893991207665126,0.7872512866833103 l -27.93694831301563 16.668251525643853" fill="#e2ff1b" stroke="none" /><path d="M 119.196687751892 91.48605970444005 l 30.9222936472339 -13.714374339832364 a54.827094287550246,54.827094287550246 0 0,0 0.3751982286405838,0.8660092416672096 l -31.153782585717163 13.180065953578552" fill="#ceff1d" stroke="none" /><path d="M 119.61058180528143 92.48833698450437 l 37.25344358911472 -14.269607969144598 a60.89286616477221,60.89286616477221 0 0,0 0.3665037560100878,0.9820478519037003 l -37.49355193362643 13.626236980211566" fill="#75ff27" stroke="none" /><path d="M 119.85752413597 93.16781622104841 l 38.23731662442994 -13.155938907753704 a61.43724905556081,61.43724905556081 0 0,0 0.33545529713944605,1.0029686408908052 l -38.45810921534115 12.495797163940585" fill="#6dff28" stroke="none" /><line stroke="#e1ed5e" stroke-width="0.3" x1="184.98032266829074" x2="189.97916517819016" y1="98.17113171792111" y2="98.06355123074" /><path d="M 185.9800911702706 98.14961562048488 a86.0,86.0 0 0,1 -9.607161424134198,41.387399972396054" fill="none" id="id16" stroke="none" /><text fill="#e1ed5e" style="font-size:6.75px; font-family:Arial;" text-anchor="middle"><textPath startOffset="21.466115282336823" xlink:href="#id16">April</textPath></text><path d="M 120.23288151984713 105.62410040840565 l 38.6089249803496 10.732058631247709 a61.07276095557682,61.07276095557682 0 0,0 -0.2902624394791289,1.010441630681467 l -38.418469903984374 -11.395057737433758" fill="#72ff27" stroke="none" /><path d="M 119.67450827220406 107.3425965602758 l 37.6252034127203 14.041859920241249 a61.160051816055436,61.160051816055436 0 0,0 -0.37658783619873826,0.9831520068744808 l -37.37792129692806 -14.687435493948874" fill="#71ff27" stroke="none" /><path d="M 119.12269723197855 108.67885076344098 l 35.864033044560585 16.27691882546491 a60.38485689541233,60.38485689541233 0 0,0 -0.4377194275226711,0.9428087055354873 l -35.578539000198084 -16.89184759827923" fill="#7cff26" stroke="none" /><line stroke="#e1ed5e" stroke-width="0.3" x1="174.80103733775053" x2="179.2010983576182" y1="140.37084112569926" y2="142.7455964860345" /><path d="M 175.68104954172406 140.8457921977663 a86.0,86.0 0 0,1 -30.038265399797805,32.042727171017184" fill="none" id="id17" stroke="none" /><text fill="#e1ed5e" style="font-size:6.75px; font-family:Arial;" text-anchor="middle"><textPath startOffset="22.206326154141568" xlink:href="#id17">May</textPath></text><path d="M 115.80600337817218 113.82643327865902 l 29.283611947313965 25.616083779079926 a59.906473456967426,59.906473456967426 0 0,0 -0.6856186068647067,0.7702997730054464 l -28.83833449080092 -26.116357721826237" fill="#83ff25" stroke="none" /><path d="M 114.0293411484842 115.62618273729858 l 34.09051146978555 37.970746893726925 a72.02882118900115,72.02882118900115 0 0,0 -0.9297125140191795,0.8203631978014708 l -33.431856602859774 -38.55193323330069" fill="#39ff8c" stroke="none" /><path d="M 112.04921762599082 117.19931262002967 l 20.84314734978313 29.751957212639702 a57.32651578981275,57.32651578981275 0 0,0 -0.8130622884073001,0.5592316558643099 l -20.32792817675295 -30.106329657869104" fill="#a8ff21" stroke="none" /><path d="M 111.45004920935366 117.60387380957326 l 30.00901689016373 46.137351623977416 a76.03813504824326,76.03813504824326 0 0,0 -1.1033430232196584,0.7042057202871405 l -29.21039206489714 -46.64707177308837" fill="#40ffc5" stroke="none" /><line stroke="#e1ed5e" stroke-width="0.3" x1="143.8653032363475" x2="146.44561519142675" y1="172.8068346515853" y2="177.08958963109032" /><path d="M 144.38136562736335 173.6633856474863 a86.0,86.0 0 0,1 -40.68145358897372,12.25698825130547" fill="none" id="id18" stroke="none" /><text fill="#e1ed5e" style="font-size:6.75px; font-family:Arial;" text-anchor="middle"><textPath startOffset="21.466115282336833" xlink:href="#id18">June</textPath></text><path d="M 107.93186726928326 119.44442032107085 l 20.927118180878796 51.301373081914974 a76.40555166629332,76.40555166629332 0 0,0 -1.2220483084810567,0.4862782421473925 l -20.040948796355874 -51.65399816846844" fill="#40ffca" stroke="none" /><path d="M 107.59598834532513 119.57807347666477 l 22.787965035975386 58.73422042999433 a84.0,84.0 0 0,0 -1.3525191169589008,0.5114069995734765 l -21.77357569825621 -59.11777567967444" fill="#4dd2ff" stroke="none" /><path d="M 105.53697534728816 120.25689768951611 l 10.724172722367708 39.23414066636561 a61.6734025427839,61.6734025427839 0 0,0 -1.026449695858889,0.2710946939324426 l -10.047232583697323 -39.41292670960164" fill="#6aff28" stroke="none" /><path d="M 103.06178313531738 120.77559828337769 l 7.9661692348413 54.05410003452434 a75.63795002395767,75.63795002395767 0 0,0 -1.2897041583246969,0.17874124453274814 l -7.034536485329772 -54.18321584454969" fill="#3fffc0" stroke="none" /><line stroke="#e1ed5e" stroke-width="0.3" x1="102.19456741930631" x2="102.32365962044197" y1="184.97166512339345" y2="189.96999836594603" /><path d="M 102.22038585953345 185.97133177190398 a86.0,86.0 0 0,1 -42.740103519485714,-10.115201625700543" fill="none" id="id19" stroke="none" /><text fill="#e1ed5e" style="font-size:6.75px; font-family:Arial;" text-anchor="middle"><textPath startOffset="22.20632615414155" xlink:href="#id19">July</textPath></text><path d="M 100.54218724476979 120.99299961872073 l 1.0409832906028673 40.30593126918596 a61.31937179182802,61.31937179182802 0 0,0 -1.0553948931440529,0.018169580200109812 l -0.3470287075661466 -40.31787832666523" fill="#6fff28" stroke="none" /><path d="M 99.45781275523022 120.99299961872073 l -0.42302815762643925 16.379267563793032 a37.38472943775598,37.38472943775598 0 0,0 -0.6431591382862428,-0.022151701151425868 l 0.7049076475873252 -16.36955906421551" fill="#ff0000" stroke="none" /><path d="M 93.08242187328487 119.8279376855182 l -6.858016315088806 19.657214945893124 a41.81918555580569,41.81918555580569 0 0,0 -0.6776309921445975,-0.2429743648271491 l 7.19536686786313 -19.536253040026015" fill="#ff5407" stroke="none" /><line stroke="#e1ed5e" stroke-width="0.3" x1="58.666819895761336" x2="56.23545636021788" y1="174.27360380694188" y2="178.64263932499728" /><path d="M 58.180547188652646 175.14741091055294 a86.0,86.0 0 0,1 -31.652253787137756,-30.449443065178592" fill="none" id="id20" stroke="none" /><text fill="#e1ed5e" style="font-size:6.75px; font-family:Arial;" text-anchor="middle"><textPath startOffset="22.20632615414155" xlink:href="#id20">August</textPath></text><line stroke="#e1ed5e" stroke-width="0.3" x1="26.63291911575756" x2="22.317208475507996" y1="142.92168965132927" y2="145.44649492493687" /><path d="M 25.769776987707644 143.4266507060508 a86.0,86.0 0 0,1 -11.730757126820373,-40.83630448921669" fill="none" id="id21" stroke="none" /><text fill="#e1ed5e" style="font-size:6.75px; font-family:Arial;" text-anchor="middle"><textPath startOffset="21.46611528233685" xlink:href="#id21">September</textPath></text><line stroke="#e1ed5e" stroke-width="0.3" x1="15.007084014347285" x2="10.007500721073583" y1="101.09737516637583" y2="101.16192664675087" /><path d="M 14.007167355692545 101.11028546245083 a86.0,86.0 0 0,1 10.666146001902534,-42.60595125391555" fill="none" id="id22" stroke="none" /><text fill="#e1ed5e" style="font-size:6.75px; font-family:Arial;" text-anchor="middle"><textPath startOffset="22.20632615414155" xlink:href="#id22">October</textPath></text><line stroke="#e1ed5e" stroke-width="0.3" x1="26.266209847984243" x2="21.928928074336255" y1="57.711370442889674" y2="55.22380399835377" /><path d="M 25.398753493254645 57.213857153982495 a86.0,86.0 0 0,1 29.58750427330803,-30.492523968695096" fill="none" id="id23" stroke="none" /><text fill="#e1ed5e" style="font-size:6.75px; font-family:Arial;" text-anchor="middle"><textPath startOffset="21.46611528233685" xlink:href="#id23">November</textPath></text><line stroke="#e1ed5e" stroke-width="0.3" x1="56.762969772571076" x2="54.21961505331055" y1="26.818313649435495" y2="22.513508569990535" /><path d="M 56.25429882871897 25.957352633546506 a86.0,86.0 0 0,1 42.265352541879196,-11.944610805530505" fill="none" id="id24" stroke="none" /><text fill="#e1ed5e" style="font-size:6.75px; font-family:Arial;" text-anchor="middle"><textPath startOffset="22.20632615414155" xlink:href="#id24">December</textPath></text><path d="M 96.75951476605007 79.25152402106235 l -4.90882602406247 -31.43068136153655 a52.81170073707085,52.81170073707085 0 0,0 0.8993858276140824,-0.1325460918897074 l 4.367071216019739 31.510521937587228" fill="#edff19" stroke="none" /></svg>