<?xml version="1.0" encoding="utf-8" ?>
<svg baseProfile="full" height="200mm" version="1.1" viewBox="0,0,200,200" width="200mm" xmlns="http://www.w3.org/2000/svg" xmlns:ev="http://www.w3.org/2001/xml-events" xmlns:xlink="http://www.w3.org/1999/xlink"><defs /><rect fill="#1a1a1a" height="200" width="200" x="0" y="0" /><text alignment-baseline="middle" fill="#e1ed5e" style="dominant-baseline: central; font-size:9.0px; font-family:Arial;" text-anchor="middle" x="100.0" y="100.0">2023</text><line stroke="#e1ed5e" stroke-width="0.3" x1="100.0" x2="100.0" y1="15.0" y2="10.0" /><path d="M 100.0 14.0 a86.0,86.0 0 0,1 42.46469731375804,11.215312516191453" fill="none" id="id85" stroke="none" /><text fill="#e1ed5e" style="font-size:6.75px; font-family:Arial;" text-anchor="middle"><textPath startOffset="22.20632615414155" xlink:href="#id85">January</textPath></text><path d="M 100.0 79.0 l 0.0 -12.009952042252962 a33.00995204225296,33.00995204225296 0 0,0 0.5682120611903227,0.004890780601615044 l -0.20673158191779437 12.008172638259905" fill="#ff8c0c" stroke="none" /><path d="M 105.71112130821622 79.79150937346287 l 5.2942033819649605 -18.733249329777607 a40.46697767762686,40.46697767762686 0 0,0 0.6686874815859157,0.1952082124930059 l -5.615881081274304 18.639342788365898" fill="#ffed16" stroke="none" /><path d="M 110.36928655335952 81.73862282372117 l 5.865731619218679 -10.330155017142687 a32.87934805058342,32.87934805058342 0 0,0 0.48975083355391574,0.283695294023395 l -6.042679185237923 10.227655565729243" fill="#ff8a0c" stroke="none" /><line stroke="#e1ed5e" stroke-width="0.3" x1="143.23703022742887" x2="145.7803849466894" y1="26.81831364943548" y2="22.513508569990506" /><path d="M 143.74570117128098 25.957352633546492 a86.0,86.0 0 0,1 28.547481713284135,27.462654790039103" fill="none" id="id86" stroke="none" /><text fill="#e1ed5e" style="font-size:6.75px; font-family:Arial;" text-anchor="middle"><textPath startOffset="19.985693538727396" xlink:href="#id86">February</textPath></text><path d="M 110.68208982089419 81.91981866633111 l 1.8915736316126222 -3.201620173483986 a24.718658701611616,24.718658701611616 0 0,0 0.36446830505897315,0.21958807573433176 l -1.9464040028892327 3.1685854882910394" fill="#ff1702" stroke="none" /><path d="M 110.99172775467656 82.1063720568725 l 4.324471986986808 -7.039884403313829 a29.262023382819425,29.262023382819425 0 0,0 0.4269201679681366,0.2673373700159157 l -4.445011307327207 6.9644026919749695" fill="#ff5808" stroke="none" /><path d="M 113.89432698308785 84.25364557470405 l 10.114920258779808 -11.463176271309868 a36.28777361385875,36.28777361385875 0 0,0 0.46481011365391217,0.4173111093953479 l -10.31074136002971 11.287366153145225" fill="#ffb811" stroke="none" /><path d="M 114.16331599549186 84.49514656593476 l 5.716027767408957 -6.257445134100834 a29.475175104036047,29.475175104036047 0 0,0 0.37165685672929294,0.3454145437023906 l -5.822892507933097 6.158126004323803" fill="#ff5b08" stroke="none" /><path d="M 114.42810811169701 84.74124197986012 l 8.210921018684306 -8.683637243126261 a32.950932170558126,32.950932170558126 0 0,0 0.40877476042957245,0.3932409956614305 l -8.359179022726297 8.541013160702528" fill="#ff8b0c" stroke="none" /><path d="M 115.4437574822437 85.77008943001954 l 11.361185159388237 -10.468219859898783 a36.448629559319585,36.448629559319585 0 0,0 0.42116627397139234,0.4650623189649718 l -11.539695073975665 10.271104753664263" fill="#ffba11" stroke="none" /><path d="M 115.68641384162765 86.03803664274999 l 11.525838406659483 -10.258771387779914 a36.43007911072262,36.43007911072262 0 0,0 0.41288834470736846,0.4720027529677893 l -11.700718614944698 10.058853078609177" fill="#ffb911" stroke="none" /><line stroke="#e1ed5e" stroke-width="0.3" x1="172.23445277983987" x2="176.4835382374775" y1="55.19839476539836" y2="52.563006222186495" /><path d="M 173.08426987136738 54.67131705675599 a86.0,86.0 0 0,1 12.851231095245387,41.99856678651699" fill="none" id="id87" stroke="none" /><text fill="#e1ed5e" style="font-size:6.75px; font-family:Arial;" text-anchor="middle"><textPath startOffset="22.20632615414155" xlink:href="#id87">March</textPath></text><path d="M 119.61058180528143 92.48833698450437 l 14.419789278603412 -5.523375027361729 a36.441437579843694,36.441437579843694 0 0,0 0.2193347856426991,0.5877081791277537 l -14.512728652747736 5.274343711204641" fill="#ffba11" stroke="none" /><path d="M 120.28053869075195 94.5502522615342 l 10.610024564866963 -2.851105597299417 a31.986419998982036,31.986419998982036 0 0,0 0.13830877458307636,0.5329601281685501 l -10.657529671320344 2.6680490435820166" fill="#ff7e0b" stroke="none" /><path d="M 120.37134235888165 94.90015583598534 l 14.35859404555314 -3.5945884545376456 a35.8016988593367,35.8016988593367 0 0,0 0.1445147503910224,0.599106938612072 l -14.41834159620498 3.3468962842661676" fill="#ffb110" stroke="none" /><path d="M 120.67395015179393 96.31383870115 l 14.772170210024772 -2.6338750808825506 a36.005142806905816,36.005142806905816 0 0,0 0.10353731189559878,0.6110830757190008 l -14.815319383440594 2.379206216847712" fill="#ffb410" stroke="none" /><path d="M 120.73433829027371 96.67025291283417 l 14.772941622261254 -2.372400731913876 a35.96222207452905,35.96222207452905 0 0,0 0.09289231458906265,0.6120442899899876 l -14.811589830289616 2.1177573295318064" fill="#ffb310" stroke="none" /><path d="M 120.78858239683441 97.02765380044208 l 14.84329634747326 -2.1222907192576193 a35.99425104351531,35.99425104351531 0 0,0 0.08241655243280338,0.6140990447624453 l -14.8776288989639 1.8664733324305094" fill="#ffb410" stroke="none" /><path d="M 120.83666639777658 97.38593545837742 l 14.782574193192996 -1.8545482417693373 a35.89845122683245,35.89845122683245 0 0,0 0.07164244850640136,0.6137887474968602 l -14.812306994702986 1.5998157559476245" fill="#ffb210" stroke="none" /><line stroke="#e1ed5e" stroke-width="0.3" x1="184.98032266829074" x2="189.97916517819016" y1="98.17113171792111" y2="98.06355123074" /><path d="M 185.9800911702706 98.14961562048488 a86.0,86.0 0 0,1 -9.607161424134198,41.387399972396054" fill="none" id="id88" stroke="none" /><text fill="#e1ed5e" style="font-size:6.75px; font-family:Arial;" text-anchor="middle"><textPath startOffset="21.466115282336823" xlink:href="#id88">April</textPath></text><path d="M 120.99980553446 99.90962569577887 l 14.91390874596598 -0.06418317178806014 a35.91404685397432,35.91404685397432 0 0,0 -0.002660551430268744,0.6182184541457377 l -14.912803897246206 -0.1925447605613623" fill="#ffb310" stroke="none" /><path d="M 120.9764740272857 100.99374915477107 l 16.231296947026333 0.768948947328529 a37.249501009758546,37.249501009758546 0 0,0 -0.03585468300123249,0.6402094508006699 l -16.21565591313757 -1.0482301144646222" fill="#ffc412" stroke="none" /><path d="M 120.92983693683757 101.71520430193887 l 14.88954602804705 1.220201259966525 a35.939460232423244,35.939460232423244 0 0,0 -0.05583520950794305,0.6161368842471849 l -14.866336222262031 -1.4763195327622807" fill="#ffb310" stroke="none" /><path d="M 120.49622156327973 104.57218783832717 l 21.71181893486042 4.843356819472506 a43.245475646542026,43.245475646542026 0 0,0 -0.16832670025773358,0.7251470191912753 l -21.625231668672136 -5.2163724960123465" fill="#eeff19" stroke="none" /><path d="M 120.41448212921028 104.9243191809786 l 16.173851056174772 3.9014070737680497 a37.637741287283355,37.637741287283355 0 0,0 -0.15734132573872048,0.6285003836863566 l -16.10429841614099 -4.179235296851802" fill="#ffc912" stroke="none" /><path d="M 119.9155931802556 106.66101706037122 l 14.58936174145085 4.879592918983501 a36.38375451825411,36.38375451825411 0 0,0 -0.20376491124082563,0.592236212306536 l -14.503205999266793 -5.130001834379336" fill="#ffb911" stroke="none" /><path d="M 119.79798401119884 107.00284435728193 l 14.604416657636135 5.165801564667916 a36.49111008660662,36.49111008660662 0 0,0 -0.2145603230801608,0.5903778591245898 l -14.513332073550746 -5.416427220798637" fill="#ffba11" stroke="none" /><path d="M 119.54520255179757 107.68017299344265 l 16.45048101010025 6.464120269313524 a38.674930730269324,38.674930730269324 0 0,0 -0.24880390644932482,0.6175108915473667 l -16.336774489393534 -6.746330528703704" fill="#ffd714" stroke="none" /><path d="M 118.81262510543309 109.33194174019688 l 15.901600831725453 7.887937579464775 a38.750506141208035,38.750506141208035 0 0,0 -0.30155520285959847,0.5949970237914958 l -15.763466959079585 -8.160488814958965" fill="#ffd814" stroke="none" /><line stroke="#e1ed5e" stroke-width="0.3" x1="174.80103733775053" x2="179.2010983576182" y1="140.37084112569926" y2="142.7455964860345" /><path d="M 175.68104954172406 140.8457921977663 a86.0,86.0 0 0,1 -30.038265399797805,32.042727171017184" fill="none" id="id89" stroke="none" /><text fill="#e1ed5e" style="font-size:6.75px; font-family:Arial;" text-anchor="middle"><textPath startOffset="22.206326154141568" xlink:href="#id89">May</textPath></text><path d="M 116.0416608686014 113.55231037782055 l 13.509156054641776 11.41280053820768 a38.68471977254879,38.68471977254879 0 0,0 -0.4341116180741201,0.5049698858178319 l -13.31070192699688 -11.64364752318704" fill="#ffd714" stroke="none" /><path d="M 115.80600337817218 113.82643327865902 l 11.935928825968858 10.441053287321628 a36.85818371337916,36.85818371337916 0 0,0 -0.42183515588316334,0.47393626947851814 l -11.754434820437357 -10.644963726541013" fill="#ffbf11" stroke="none" /><path d="M 114.29624159901734 115.38237550388516 l 12.057579477599116 12.97363463731039 a38.711589950115695,38.711589950115695 0 0,0 -0.49200670469237623,0.44943645937011173 l -11.832473223439875 -13.179263863267085" fill="#ffd714" stroke="none" /><path d="M 114.0293411484842 115.62618273729858 l 14.902441490901944 16.598660728547056 a43.30691149332794,43.30691149332794 0 0,0 -0.5589842634411488,0.49323862050093964 l -14.614514874554208 -16.852722490820284" fill="#eeff19" stroke="none" /><path d="M 113.75828350139079 115.86535959552629 l 9.827276047677136 11.332319785759553 a35.99989420775914,35.99989420775914 0 0,0 -0.47165779695850135,0.4019570069654157 l -9.630752774141587 -11.499801182947916" fill="#ffb410" stroke="none" /><path d="M 112.63410532772338 116.77436683061366 l 9.267654170384146 12.30471225945553 a36.40439410070496,36.40439410070496 0 0,0 -0.5037935270700293,0.37269440732420045 l -9.054475672895553 -12.4624166155195" fill="#ffb911" stroke="none" /><path d="M 112.34349029814194 116.9893568818739 l 8.9437678395633 12.310040355266452 a36.216046684874996,36.216046684874996 0 0,0 -0.5074948967956052,0.3620841340384355 l -8.73054561491881 -12.462168751149106" fill="#ffb710" stroke="none" /><path d="M 112.04921762599082 117.19931262002967 l 8.767501331555856 12.514920136613895 a36.28045502020989,36.28045502020989 0 0,0 -0.5145658928818414,0.35392311318644387 l -8.550778554051131 -12.663984039165436" fill="#ffb811" stroke="none" /><path d="M 111.45004920935366 117.60387380957326 l 9.657178624404057 14.847425609458464 a38.71177987137514,38.71177987137514 0 0,0 -0.5617230381886354,0.3585182199776888 l -9.40017378416849 -15.011458258259958" fill="#ffd714" stroke="none" /><path d="M 111.1453310114006 117.79835938074945 l 8.115016190208147 12.959146245740286 a36.29028970248193,36.29028970248193 0 0,0 -0.532293527087942,0.32697815970709176 l -7.8907434631878965 -13.096912872275755" fill="#ffb811" stroke="none" /><line stroke="#e1ed5e" stroke-width="0.3" x1="143.8653032363475" x2="146.44561519142675" y1="172.8068346515853" y2="177.08958963109032" /><path d="M 144.38136562736335 173.6633856474863 a86.0,86.0 0 0,1 -40.68145358897372,12.25698825130547" fill="none" id="id90" stroke="none" /><text fill="#e1ed5e" style="font-size:6.75px; font-family:Arial;" text-anchor="middle"><textPath startOffset="21.466115282336833" xlink:href="#id90">June</textPath></text><path d="M 110.21172684928248 118.3499491758327 l 7.393246178374005 13.285284028833441 a36.203909391364405,36.203909391364405 0 0,0 -0.5471569029520694,0.2983535696675166 l -7.163466463553287 -13.410578250260729" fill="#ffb710" stroke="none" /><path d="M 109.89434966115114 118.52300852407294 l 7.2111464459022425 13.499838964680901 a36.3051065052343,36.3051065052343 0 0,0 -0.5537550427795739,0.28969846630266927 l -6.977700500596173 -13.621966849928288" fill="#ffb811" stroke="none" /><path d="M 109.2508944713604 118.85261126421891 l 6.678605604253684 13.610484438432133 a36.16077370934518,36.16077370934518 0 0,0 -0.5611589555802775,0.2693904002521045 l -6.443333980673173 -13.723429115183798" fill="#ffb610" stroke="none" /><path d="M 108.92500713936063 119.00905698771935 l 6.47495298795449 13.790773320283082 a36.23517131402376,36.23517131402376 0 0,0 -0.5668768312146255,0.2602253496578396 l -6.2366081609724455 -13.900185740274996" fill="#ffb711" stroke="none" /><path d="M 108.2653958097858 119.30500536409082 l 6.013853173708575 14.046207882730217 a36.27947596875617,36.27947596875617 0 0,0 -0.5762019366693417,0.24085245625914561 l -5.7711797775417715 -14.147645382009335" fill="#ffb711" stroke="none" /><path d="M 107.93186726928326 119.44442032107085 l 5.797692170923847 14.212638668348738 a36.349668805086104,36.349668805086104 0 0,0 -0.5813851259279458,0.23134514002828746 l -5.552185968954035 -14.310330652783094" fill="#ffb811" stroke="none" /><path d="M 107.59598834532513 119.57807347666477 l 3.8957942255252056 10.041108823480451 a31.77037970791246,31.77037970791246 0 0,0 -0.511548165571366,0.19342374478254254 l -3.722375839193565 -10.106680818369625" fill="#ff7b0b" stroke="none" /><path d="M 107.2578585660854 119.70592522655815 l 5.411211671828809 14.692065382537582 a36.65688337320348,36.65688337320348 0 0,0 -0.5939819228656309,0.21298078467504558 l -5.157510188333443 -14.783033708252587" fill="#ffbc11" stroke="none" /><path d="M 104.48393922423573 120.51570834832081 l 3.3011257325881997 15.103891771070979 a36.46043265030386,36.46043265030386 0 0,0 -0.6142863043645999,0.12872966767346555 l -3.040647966794222 -15.158477419470984" fill="#ffba11" stroke="none" /><path d="M 103.7750983002368 120.6578951692458 l 2.7513284788814496 15.055675580508238 a36.305004919444364,36.305004919444364 0 0,0 -0.6157173734653523,0.10705035768637422 l -2.4917621339440474 -15.100804516715618" fill="#ffb811" stroke="none" /><path d="M 102.34483914955558 120.86867818915974 l 1.9888300571649964 17.70025651600481 a38.811640175139786,38.811640175139786 0 0,0 -0.6645428894882232,0.06888258764739616 l -1.6838545710711705 -17.731868472107966" fill="#ffd814" stroke="none" /><path d="M 101.26447882468166 120.96189622390904 l 0.9120845094069362 15.120079878313867 a36.147564612137884,36.147564612137884 0 0,0 -0.6214143867988785,0.032120025749442165 l -0.6516820541945781 -15.133539710825511" fill="#ffb610" stroke="none" /><line stroke="#e1ed5e" stroke-width="0.3" x1="102.19456741930631" x2="102.32365962044197" y1="184.97166512339345" y2="189.96999836594603" /><path d="M 102.22038585953345 185.97133177190398 a86.0,86.0 0 0,1 -42.740103519485714,-10.115201625700543" fill="none" id="id91" stroke="none" /><text fill="#e1ed5e" style="font-size:6.75px; font-family:Arial;" text-anchor="middle"><textPath startOffset="22.20632615414155" xlink:href="#id91">July</textPath></text><path d="M 100.54218724476979 120.99299961872073 l 0.5124674990059578 19.842277949210402 a40.848894607792616,40.848894607792616 0 0,0 -0.703068434980109,0.012103960705628667 l -0.17083937413318093 -19.848159387195192" fill="#fff216" stroke="none" /><path d="M 100.18074693466247 120.99922214144158 l 0.1269389909655921 14.74780236065883 a35.748348652526545,35.748348652526545 0 0,0 -0.615371851256085,0.0 l 0.12693899096558195 -14.74780236065883" fill="#ffb110" stroke="none" /><path d="M 99.45781275523022 120.99299961872073 l -0.3958821998890872 15.328200638247749 a36.33331202064863,36.33331202064863 0 0,0 -0.625070770919781,-0.02152870120574098 l 0.6596733224835112 -15.319115138615913" fill="#ffb811" stroke="none" /><path d="M 98.01472825383883 120.90594882070398 l -1.4429422424719167 15.194935771730192 a36.26329438299988,36.26329438299988 0 0,0 -0.6209094571343924,-0.06435980397757475 l 1.7042842962119025 -15.167846599296857" fill="#ffb711" stroke="none" /><path d="M 97.65516085044442 120.86867818915974 l -1.696060150918987 15.094653074900409 a36.18964026852301,36.18964026852301 0 0,0 -0.6184509267622886,-0.07488579445183337 l 1.955638500732665 -15.063221751723226" fill="#ffb610" stroke="none" /><path d="M 96.93821686468263 120.77559828337769 l -2.2303830827968385 15.13416884812308 a36.297636269029454,36.297636269029454 0 0,0 -0.6173435195752415,-0.09641636144693083 l 2.490562465980597 -15.093534179329042" fill="#ffb811" stroke="none" /><path d="M 95.86986931433489 120.58985236759428 l -0.8925350885907805 4.449536129877318 a25.538170408374874,25.538170408374874 0 0,0 -0.43026774999782835,-0.09016679042702011 l 0.9689943000179956 -4.433513358723757" fill="#ff2303" stroke="none" /><path d="M 95.51606077576429 120.51570834832081 l -4.771679441559337 21.83222806089567 a43.34759733832611,43.34759733832611 0 0,0 -0.7275787920948349,-0.1655945642876044 l 5.146778383047035 -21.746856763030376" fill="#edff1a" stroke="none" /><path d="M 94.81253420990036 120.34920634021253 l -3.7840619151015673 14.843983523033994 a36.31871311205438,36.31871311205438 0 0,0 -0.6044636827357469,-0.1596443524954313 l 4.039016040648804 -14.776647821234983" fill="#ffb811" stroke="none" /><path d="M 93.08242187328487 119.8279376855182 l -7.329263523851352 21.007956508714496 a43.24977169487583,43.24977169487583 0 0,0 -0.7008119673807791,-0.2512862378072492 l 7.689795051861857 -20.87868272986729" fill="#eeff19" stroke="none" /><path d="M 92.7421414339146 119.70592522655815 l -4.000666345731207 10.862271722099464 a32.575589754936374,32.575589754936374 0 0,0 -0.5245131891638202,-0.19832600733224032 l 4.18704975565531 -10.79179746466059" fill="#ff860c" stroke="none" /><path d="M 92.06813273071674 119.44442032107085 l -3.0943238964824915 7.585519576927584 a29.192371306788665,29.192371306788665 0 0,0 -0.46364233313149444,-0.19380253285147195 l 3.2244376891114483 -7.531132001056139" fill="#ff5708" stroke="none" /><path d="M 91.07499286063937 119.00905698771935 l -6.48580843206673 13.813893946690927 a36.260713515032386,36.260713515032386 0 0,0 -0.5627098658962604,-0.27013493145244466 l 6.722630965963233 -13.70020473873892" fill="#ffb711" stroke="none" /><path d="M 90.7491055286396 118.85261126421891 l -3.5941689300024136 7.324639781055113 a29.158945901255247,29.158945901255247 0 0,0 -0.4486952106704962,-0.224985093389964 l 3.7197180483556704 -7.261686846755848" fill="#ff5708" stroke="none" /><line stroke="#e1ed5e" stroke-width="0.3" x1="58.666819895761336" x2="56.23545636021788" y1="174.27360380694188" y2="178.64263932499728" /><path d="M 58.180547188652646 175.14741091055294 a86.0,86.0 0 0,1 -31.652253787137756,-30.449443065178592" fill="none" id="id92" stroke="none" /><text fill="#e1ed5e" style="font-size:6.75px; font-family:Arial;" text-anchor="middle"><textPath startOffset="22.20632615414155" xlink:href="#id92">August</textPath></text><path d="M 89.4739219176387 118.17145234162733 l -5.905476078805086 10.19478254683002 a32.78169083342833,32.78169083342833 0 0,0 -0.48584359187510806,-0.2870449577655098 l 6.0800875417085765 -10.09161901677076" fill="#ff890c" stroke="none" /><path d="M 88.54995079064634 117.60387380957326 l -6.305517243559392 9.694415092035532 a32.56465441271425,32.56465441271425 0 0,0 -0.4672644905400073,-0.309677425176021 l 6.471456432839361 -9.584439645768194" fill="#ff860c" stroke="none" /><path d="M 88.24862548938628 117.40417183066458 l -6.5908773636510265 9.761305968779764 a32.77806260124402,32.77806260124402 0 0,0 -0.46489144196097004,-0.3197565728872416 l 6.757925690234889 -9.64640860652742" fill="#ff890c" stroke="none" /><path d="M 87.65650970185807 116.9893568818739 l -6.932711599263003 9.542058905066394 a32.794633451969275,32.794633451969275 0 0,0 -0.45383873194078056,-0.33573904413806477 l 7.095935301622347 -9.42130991218856" fill="#ff890c" stroke="none" /><path d="M 85.97065885151581 115.62618273729859 l -7.934931251289883 8.838097557699912 a32.8775040476574,32.8775040476574 0 0,0 -0.41785812584404736,-0.3817034906379964 l 8.085888926600788 -8.700201300475339" fill="#ff8a0c" stroke="none" /><path d="M 83.95833913139862 113.55231037782056 l -8.738460474647008 7.382423150992507 a32.439443301458255,32.439443301458255 0 0,0 -0.3566855818825494,-0.42965076094271526 l 8.864242056423093 -7.23091113293603" fill="#ff840c" stroke="none" /><path d="M 83.72743513129214 113.27417163493432 l -6.372273166885676 5.198114028390639 a29.223518393337656,29.223518393337656 0 0,0 -0.3146149550223311,-0.39253053065115856 l 6.460806033962868 -5.08765566416122" fill="#ff5708" stroke="none" /><path d="M 83.50135304334701 112.99209946851258 l -12.314731436488241 9.697414349869295 a36.67457991226185,36.67457991226185 0 0,0 -0.38629366942778526,-0.49933664064608174 l 12.479831923134094 -9.48399971510996" fill="#ffbd11" stroke="none" /><path d="M 83.06392112726016 112.41649034213515 l -12.649785635102091 9.274044030412313 a36.68518311311862,36.68518311311862 0 0,0 -0.36898342828056063,-0.5124857096790626 l 12.80754885575826 -9.054924715282109" fill="#ffbd11" stroke="none" /><path d="M 82.85270091963577 112.12312394758628 l -12.804941382570151 9.0530812342475 a36.68198978589585,36.68198978589585 0 0,0 -0.3600758141882156,-0.5187160660613626 l 12.9588781039205 -8.831323905999126" fill="#ffbd11" stroke="none" /><path d="M 82.44556493220864 111.52570212397912 l -13.120257867703199 8.614357761384026 a36.69548744563688,36.69548744563688 0 0,0 -0.3421332370411609,-0.5309983816706054 l 13.266595968121404 -8.387237779791972" fill="#ffbd11" stroke="none" /><path d="M 82.05923443525364 110.91462005526583 l -6.375871429431391 3.8788876607480542 a28.46307617335794,28.46307617335794 0 0,0 -0.2510431449411371,-0.42076275089606474 l 6.4416954500707595 -3.768562815965878" fill="#ff4d07" stroke="none" /><line stroke="#e1ed5e" stroke-width="0.3" x1="26.63291911575756" x2="22.317208475507996" y1="142.92168965132927" y2="145.44649492493687" /><path d="M 25.769776987707644 143.4266507060508 a86.0,86.0 0 0,1 -11.730757126820373,-40.83630448921669" fill="none" id="id93" stroke="none" /><text fill="#e1ed5e" style="font-size:6.75px; font-family:Arial;" text-anchor="middle"><textPath startOffset="21.46611528233685" xlink:href="#id93">September</textPath></text><path d="M 81.87401531095188 110.60418214915194 l -7.245846941524953 4.239012782529337 a29.39473211427581,29.39473211427581 0 0,0 -0.2517420902089612,-0.43893355368325637 l 7.3177410278862896 -4.113659382987774" fill="#ff5a08" stroke="none" /><path d="M 81.69416730710424 110.29060199501025 l -13.633455605564976 7.664030793199466 a36.63996418627679,36.63996418627679 0 0,0 -0.3043273386161026,-0.5524425174391985 l 13.763359353632598 -7.428217757362445" fill="#ffbc11" stroke="none" /><path d="M 81.51974371655577 109.97397251340807 l -13.645915364869596 7.364832104164735 a36.5065069589421,36.5065069589421 0 0,0 -0.2936991801992385,-0.5555681655110353 l 13.770667053293721 -7.128848923567574" fill="#ffba11" stroke="none" /><path d="M 80.87730276802145 108.67885076344099 l -14.1103574929109 6.403996539514553 a36.495591639426394,36.495591639426394 0 0,0 -0.25470258679830965,-0.5742870937110339 l 14.21850116444049 -6.160161109310824" fill="#ffba11" stroke="none" /><path d="M 80.20201598880116 107.00284435728193 l -14.71661601281029 5.205488162092565 a36.61012152016089,36.61012152016089 0 0,0 -0.2050326652882644,-0.5959208989909027 l 14.804039509041782 -4.951394560012366" fill="#ffbc11" stroke="none" /><path d="M 80.0844068197444 106.66101706037122 l -11.442465333989 3.8270743990678784 a33.06550916354303,33.06550916354303 0 0,0 -0.1758892189362368,-0.5413313534866722 l 11.506646803941486 -3.6295441456034028" fill="#ff8d0d" stroke="none" /><path d="M 79.97269907076064 106.31721596034903 l -14.568018079131294 4.595193163836717 a36.27556712423038,36.27556712423038 0 0,0 -0.1827135149476361,-0.597118338582101 l 14.644958366585062 -4.343747852702568" fill="#ffb711" stroke="none" /><path d="M 79.76711848015287 105.62410040840567 l -15.05351965324434 4.1844018088429955 a36.62426550108715,36.62426550108715 0 0,0 -0.16360918091555432,-0.6088506262959923 l 15.123316910501668 -3.924660249371464" fill="#ffbc11" stroke="none" /><path d="M 79.58551787078972 104.9243191809786 l -15.062981272813863 3.633446449190341 a36.49501009758545,36.49501009758545 0 0,0 -0.14205149865406236,-0.6119541383685765 l 15.12329333739848 -3.3736236534731905" fill="#ffba11" stroke="none" /><path d="M 79.50377843672027 104.57218783832718 l -8.142690840378213 1.8164280629330771 a29.342830756391386,29.342830756391386 0 0,0 -0.1057263569394476,-0.49391834150451 l 8.172751236042101 -1.6759959020124033" fill="#ff5908" stroke="none" /><path d="M 79.4281124754447 104.21870165774334 l -14.445515134315892 2.962359120977761 a35.74613437675751,35.74613437675751 0 0,0 -0.1184219506881835,-0.6038309752637626 l 14.494367017979743 -2.7132644186460433" fill="#ffb010" stroke="none" /><path d="M 79.23777060512086 103.15116336523772 l -30.73980552035132 4.665498447587462 a52.09184007410084,52.09184007410084 0 0,0 -0.12692040150871078,-0.8876809925423719 l 30.81555997287663 -4.135671983064689" fill="#88ff25" stroke="none" /><path d="M 79.18660465613746 102.79330883721812 l -8.273206623780194 1.1103244229275306 a29.347380916425813,29.347380916425813 0 0,0 -0.0628851356570006,-0.5012564044231647 l 8.291093268684044 -0.9677502642169573" fill="#ff5908" stroke="none" /><path d="M 79.1416061653843 102.43462659150553 l -15.42507977078143 1.8004410926269407 a36.52979954999388,36.52979954999388 0 0,0 -0.0675239402456511,-0.6251878247180682 l 15.453786012528134 -1.5346569460240904" fill="#ffbb11" stroke="none" /><path d="M 79.10278846688536 102.07522291339032 l -2.180620425167327 0.21654915367742808 a23.191346383987558,23.191346383987558 0 0,0 -0.03602985898360872,-0.3975864915644015 l 2.184024880428011 -0.17898127356446042" fill="#ff0000" stroke="none" /><path d="M 79.07016306316243 101.71520430193888 l -7.451189760256375 0.6106264836139584 a28.476168373293916,28.476168373293916 0 0,0 -0.03583039830839243,-0.48887731753399033 l 7.460596717229103 -0.4822760295832075" fill="#ff4d07" stroke="none" /><path d="M 79.04373962182676 101.35467743843564 l -15.242557591845365 0.9853260315106265 a36.274371650876354,36.274371650876354 0 0,0 -0.03491606763457546,-0.6234498429029172 l 15.257260010367471 -0.7228044722722716" fill="#ffb711" stroke="none" /><path d="M 79.0235259727143 100.99374915477108 l -33.564329647260585 1.5900920323423415 a54.601973414388844,54.601973414388844 0 0,0 -0.036395769996041785,-0.9392131026292427 l 33.58672755010783 -1.012101682699102" fill="#6dff28" stroke="none" /><line stroke="#e1ed5e" stroke-width="0.3" x1="15.007084014347285" x2="10.007500721073583" y1="101.09737516637583" y2="101.16192664675087" /><path d="M 14.007167355692545 101.11028546245083 a86.0,86.0 0 0,1 10.666146001902534,-42.60595125391555" fill="none" id="id94" stroke="none" /><text fill="#e1ed5e" style="font-size:6.75px; font-family:Arial;" text-anchor="middle"><textPath startOffset="22.20632615414155" xlink:href="#id94">October</textPath></text><path d="M 79.00486145842228 99.54816195383935 l -2.2432511121879593 -0.048277185576625456 a23.243770540625693,23.243770540625693 0 0,0 0.012051679792819462,-0.3999365801300733 l 2.2420877379394946 0.08688391313169319" fill="#ff0100" stroke="none" /><path d="M 79.12142395522702 97.74499172005258 l -7.539478719177852 -0.8143077814202685 a28.583326217420513,28.583326217420513 0 0,0 0.05704367198835028,-0.4887153456127609 l 7.524344694185913 0.9439668653578912" fill="#ff4e07" stroke="none" /><path d="M 79.16333360222342 97.38593545837743 l -15.38893907353326 -1.9306197640907587 a36.50956925521842,36.50956925521842 0 0,0 0.0835964839269525,-0.6228909049173712 l 15.353426590548473 2.1952290110727892" fill="#ffbb11" stroke="none" /><path d="M 79.21141760316559 97.0276538004421 l -15.327675156298053 -2.1915470775832286 a36.483555931705745,36.483555931705745 0 0,0 0.0942389474129821,-0.6209169177659233 l 15.287680315445769 2.455063107741244" fill="#ffba11" stroke="none" /><path d="M 79.26566170972629 96.67025291283419 l -8.218651685898548 -1.319841083348593 a29.323954349911936,29.323954349911936 0 0,0 0.08432471505034002,-0.4976892415755481 l 8.194715109327985 1.461116113239969" fill="#ff5908" stroke="none" /><path d="M 79.46518482838121 95.60439243477599 l -8.228059926148726 -1.7612684680251105 a29.414454038424246,29.414454038424246 0 0,0 0.11024203029021769,-0.49419340550121127 l 8.19652350885647 1.902640043076281" fill="#ff5a08" stroke="none" /><path d="M 79.54389044137918 95.25157060432595 l -14.626034739150041 -3.395107613131707 a36.014914182091374,36.014914182091374 0 0,0 0.14537540114585495,-0.6026748916241117 l 14.565426537743372 3.6463677364152156" fill="#ffb410" stroke="none" /><path d="M 80.02781315780177 93.51064311812611 l -8.005783836929007 -2.6012368524012826 a29.417779279948142,29.417779279948142 0 0,0 0.16062486587921596,-0.4802479042600298 l 7.959821677278018 2.7386578595836344" fill="#ff5a08" stroke="none" /><path d="M 81.10775173730289 90.83032412892265 l -28.14593877164229 -13.661112856152089 a52.28609713284098,52.28609713284098 0 0,0 0.39996371267315123,-0.8063024386324996 l 27.906615046015723 14.14357488328355" fill="#86ff25" stroke="none" /><path d="M 81.6062741919709 89.86733742301443 l -13.646426817330308 -7.517489374620141 a36.580038876019486,36.580038876019486 0 0,0 0.30856544610060765,-0.5489034979552566 l 13.515003729937272 7.751276382510183" fill="#ffbb11" stroke="none" /><line stroke="#e1ed5e" stroke-width="0.3" x1="26.266209847984257" x2="21.92892807433627" y1="57.711370442889674" y2="55.22380399835377" /><path d="M 25.39875349325466 57.213857153982495 a86.0,86.0 0 0,1 29.58750427330802,-30.492523968695096" fill="none" id="id95" stroke="none" /><text fill="#e1ed5e" style="font-size:6.75px; font-family:Arial;" text-anchor="middle"><textPath startOffset="21.46611528233685" xlink:href="#id95">November</textPath></text><path d="M 82.15384107792192 88.93136811851018 l -13.26571178530837 -8.227724578641238 a36.61007882468396,36.61007882468396 0 0,0 0.33676461562804677,-0.5326807477261987 l 13.122119573434361 8.454852974081653" fill="#ffbc11" stroke="none" /><path d="M 82.34701348167596 88.62581576622439 l -4.727658838040691 -3.046128345619872 a26.624024892094017,26.624024892094017 0 0,0 0.25153791042409224,-0.3831094945999884 l 4.6745242922586785 3.127055904197527" fill="#ff3204" stroke="none" /><path d="M 82.54541684631803 88.32363383020206 l -31.714724894267516 -21.2157882877746 a59.15669597581459,59.15669597581459 0 0,0 0.573469332978492,-0.8414954837469703 l 31.344831095620282 21.758561794791987" fill="#3dff2e" stroke="none" /><path d="M 82.95767976084542 87.72973835380427 l -12.661516946642196 -9.116136980931888 a36.60185773698829,36.60185773698829 0 0,0 0.37253264046912465,-0.508134102939283 l 12.50272169365944 9.332733527542672" fill="#ffbc11" stroke="none" /><path d="M 83.39014120810768 87.1503855733568 l -12.246095860313531 -9.473747610277726 a36.48285366472315,36.48285366472315 0 0,0 0.38853530240012485,-0.493400377670443 l 12.081206477319435 9.683140381901218" fill="#ffba11" stroke="none" /><path d="M 84.07557802195018 86.31012108654704 l -25.395639838658866 -21.832078727888536 a54.48997140034014,54.48997140034014 0 0,0 0.6175741212710266,-0.7059939790942481 l 25.016073853809996 22.265988263185722" fill="#6eff28" stroke="none" /><path d="M 84.5562425177563 85.77008943001954 l -11.263077420613538 -10.377823183403947 a36.315225333266596,36.315225333266596 0 0,0 0.42753859106618297,-0.4560683596832098 l 11.082771507576899 10.570160959965207" fill="#ffb811" stroke="none" /><path d="M 85.05521093208273 85.24692304244772 l -11.997777816092436 -11.843870036306429 a37.858942136481666,37.858942136481666 0 0,0 0.4618145532811341,-0.459831374825159 l 11.792127462643988 12.0486372617817" fill="#ffcc13" stroke="none" /><path d="M 85.57189188830299 84.74124197986013 l -31.400135461745457 -33.20789289220487 a66.70265481737484,66.70265481737484 0 0,0 0.8410636726473294,-0.7816770212953223 l 30.823863905303273 33.74347449957484" fill="#37ff79" stroke="none" /><path d="M 86.37877921826538 84.01681056812374 l -10.122469436725863 -11.877742026068525 a36.60593294664832,36.60593294664832 0 0,0 0.48309801994017937,-0.40458069854460893 l 9.916513879826573 12.050223882006946" fill="#ffbc11" stroke="none" /><path d="M 86.93701828274178 83.55741782278169 l -14.708357342579705 -18.51364256123443 a44.64509963189348,44.64509963189348 0 0,0 0.6058285698454072,-0.47285880825788085 l 14.387496217574872 18.764079758715532" fill="#ddff1b" stroke="none" /><path d="M 87.51073957382395 83.11751280151077 l -27.325232618775026 -36.9371663445612 a66.94586592105922,66.94586592105922 0 0,0 0.9323158113983507,-0.6773670865127344 l 26.685371491022888 37.4020526658906" fill="#37ff7b" stroke="none" /><path d="M 88.70189139769569 82.29822771554957 l -8.333973377793072 -13.057592571581079 a36.49050793315613,36.49050793315613 0 0,0 0.5323806071870378,-0.3333766873798338 l 8.10797361823379 13.199113600283843" fill="#ffba11" stroke="none" /><line stroke="#e1ed5e" stroke-width="0.3" x1="56.762969772571076" x2="54.21961505331055" y1="26.818313649435495" y2="22.513508569990535" /><path d="M 56.25429882871897 25.957352633546506 a86.0,86.0 0 0,1 42.265352541879196,-11.944610805530505" fill="none" id="id96" stroke="none" /><text fill="#e1ed5e" style="font-size:6.75px; font-family:Arial;" text-anchor="middle"><textPath startOffset="22.20632615414155" xlink:href="#id96">December</textPath></text><path d="M 89.63071344664047 81.73862282372117 l -15.366140979491455 -27.061350337497885 a52.119687830863654,52.119687830863654 0 0,0 0.7839692319454638,-0.436278028792174 l 14.898047658473947 27.321843763850243" fill="#87ff25" stroke="none" /><path d="M 90.58718382345135 81.22770947309562 l -7.533087383045082 -15.023485242535738 a37.80632364181061,37.80632364181061 0 0,0 0.5842494433557416,-0.28668866448719155 l 7.273366672678915 15.150929067157756" fill="#ffcb13" stroke="none" /><path d="M 91.90106846888425 80.62456947434976 l -3.246044123767969 -7.76565429175778 a29.416780205787994,29.416780205787994 0 0,0 0.4688700399833563,-0.19126386193479938 l 3.111890214196232 7.820379039876157" fill="#ff5a08" stroke="none" /><path d="M 92.23578459929587 80.48803036053334 l -23.29264620211241 -58.53590891839998 a84.0,84.0 0 0,0 1.34806734000129,-0.5230291844377941 l 22.281595697111445 58.92818080672833" fill="#4dd2ff" stroke="none" /><path d="M 94.63758080256005 79.69619591428918 l -4.71514714880584 -17.853028720760285 a39.46519014630457,39.46519014630457 0 0,0 0.6583002530765162,-0.16781539217576677 l 4.407138007044324 17.931547109104915" fill="#ffe115" stroke="none" /><path d="M 95.33964822691252 79.52364482259891 l -4.397136334373045 -19.31985603877027 a40.81392553992953,40.81392553992953 0 0,0 0.6863683219182166,-0.1500135305429935 l 4.0639252883013075 19.39268306740913" fill="#fff216" stroke="none" /><path d="M 95.692805502759 79.44645832069477 l -3.4251358617416257 -16.344437832255714 a37.69946716886082,37.69946716886082 0 0,0 0.636283690944531,-0.1276325225572897 l 3.1432857613299583 16.400974310890216" fill="#ffca12" stroke="none" /><path d="M 97.47563105711357 79.15227682838746 l -1.8955624566402298 -15.654669441999735 a36.769014945940796,36.769014945940796 0 0,0 0.6289835451300362,-0.07067363000562923 l 1.6258122080004755 15.684979025475961" fill="#ffbe11" stroke="none" /><path d="M 97.83486435360386 79.11191278185805 l -1.6270327697308207 -15.69675436154833 a36.78085337111287,36.78085337111287 0 0,0 0.6303097586877093,-0.05985550648689373 l 1.356597883952875 15.722435412550404" fill="#ffbe11" stroke="none" /><path d="M 98.19473922651362 79.07773832637324 l -1.4296634663002974 -16.569236747659694 a37.630801063895575,37.630801063895575 0 0,0 0.6458338040753465,-0.05012913301907699 l 1.1442394728626168 16.591391142867234" fill="#ffc912" stroke="none" /><path d="M 98.91598698831166 79.02799685794201 l -1.9683258284147067 -38.08047967414563 a59.131315723166736,59.131315723166736 0 0,0 1.0169436555382367,-0.04379173300528614 l 1.312541340487146 38.1087191336751" fill="#3eff2e" stroke="none" /></svg>