<?xml version="1.0" encoding="utf-8" ?>
<svg baseProfile="full" height="200mm" version="1.1" viewBox="0,0,200,200" width="200mm" xmlns="http://www.w3.org/2000/svg" xmlns:ev="http://www.w3.org/2001/xml-events" xmlns:xlink="http://www.w3.org/1999/xlink"><defs /><rect fill="#1a1a1a" height="200" width="200" x="0" y="0" /><text alignment-baseline="middle" fill="#e1ed5e" style="dominant-baseline: central; font-size:9.0px; font-family:Arial;" text-anchor="middle" x="100.0" y="100.0">2020</text><line stroke="#e1ed5e" stroke-width="0.3" x1="100.0" x2="100.0" y1="15.0" y2="10.0" /><path d="M 100.0 14.0 a86.0,86.0 0 0,1 42.35913384403234,11.155469271406648" fill="none" id="id49" stroke="none" /><text fill="#e1ed5e" style="font-size:6.75px; font-family:Arial;" text-anchor="middle"><textPath startOffset="22.145653131862478" xlink:href="#id49">January</textPath></text><line stroke="#e1ed5e" stroke-width="0.3" x1="143.13028292997686" x2="145.6673583964461" y1="26.7553504044142" y2="22.446841604673864" /><path d="M 143.63769802327073 25.89364864446614 a86.0,86.0 0 0,1 29.32050498858742,28.57503671076993" fill="none" id="id50" stroke="none" /><text fill="#e1ed5e" style="font-size:6.75px; font-family:Arial;" text-anchor="middle"><textPath startOffset="20.669276256404974" xlink:href="#id50">February</textPath></text><line stroke="#e1ed5e" stroke-width="0.3" x1="172.87174338648825" x2="177.1583165268699" y1="56.24261187166439" y2="53.66864786411523" /><path d="M 173.72905801456457 55.72781907015455 a86.0,86.0 0 0,1 12.242430191666344,42.057860355516425" fill="none" id="id51" stroke="none" /><text fill="#e1ed5e" style="font-size:6.75px; font-family:Arial;" text-anchor="middle"><textPath startOffset="22.145653131862474" xlink:href="#id51">March</textPath></text><line stroke="#e1ed5e" stroke-width="0.3" x1="184.99686870605535" x2="189.99668451229388" y1="99.2704041080226" y2="99.22748670261217" /><path d="M 185.99683186730306 99.26182062694052 a86.0,86.0 0 0,1 -10.086455211305974,41.156179273409016" fill="none" id="id52" stroke="none" /><text fill="#e1ed5e" style="font-size:6.75px; font-family:Arial;" text-anchor="middle"><textPath startOffset="21.40746469413373" xlink:href="#id52">April</textPath></text><line stroke="#e1ed5e" stroke-width="0.3" x1="174.33088141563837" x2="178.70328620479359" y1="141.23008692659167" y2="143.65538615756765" /><path d="M 175.20536237346943 141.71514677278685 a86.0,86.0 0 0,1 -30.301960400862466,31.631185727798858" fill="none" id="id53" stroke="none" /><text fill="#e1ed5e" style="font-size:6.75px; font-family:Arial;" text-anchor="middle"><textPath startOffset="22.145653131862474" xlink:href="#id53">May</textPath></text><line stroke="#e1ed5e" stroke-width="0.3" x1="143.1302829299769" x2="145.66735839644613" y1="173.24464959558577" y2="177.55315839532614" /><path d="M 143.63769802327073 174.10635135553383 a86.0,86.0 0 0,1 -40.68552437913181,11.842963189579606" fill="none" id="id54" stroke="none" /><text fill="#e1ed5e" style="font-size:6.75px; font-family:Arial;" text-anchor="middle"><textPath startOffset="21.407464694133747" xlink:href="#id54">June</textPath></text><path d="M 105.3480935250658 120.30758222061773 l 6.256905904734951 23.758490855021115 a45.56857259200927,45.56857259200927 0 0,0 -0.7581627647105844,0.19272201001699868 l -5.848137846798968 -23.862398096873385" fill="#ff0000" stroke="none" /><path d="M 103.2317021107853 120.74984581791261 l 5.456127151749862 35.03225027576114 a56.45458902426636,56.45458902426636 0 0,0 -0.9588540275329391,0.1409185220954636 l -4.853948018609238 -35.12074987115549" fill="#ffed16" stroke="none" /><path d="M 102.51750503828377 120.84855314841334 l 4.832032137814549 40.016157786418994 a61.30684084083562,61.30684084083562 0 0,0 -1.0459066695021557,0.11719602387026311 l -4.144389566711594 -40.093209570796226" fill="#b5ff20" stroke="none" /><path d="M 101.08105385017728 120.97215588758144 l 2.0194363637581416 39.17652596014629 a60.22853947744276,60.22853947744276 0 0,0 -1.0329889712576599,0.04436099110378509 l -1.3466216318996522 -39.20541951967591" fill="#c9ff1d" stroke="none" /><path d="M 100.72087961077811 120.9876233191556 l 0.9634110071026469 28.048660298178962 a49.065200966521644,49.065200966521644 0 0,0 -0.8420211986084606,0.02168747922133782 l -0.48177649442344256 -28.061065494750345" fill="#ff5007" stroke="none" /><line stroke="#e1ed5e" stroke-width="0.3" x1="101.45913802915013" x2="101.54496967792366" y1="184.9874750549273" y2="189.98673829345242" /><path d="M 101.47630435890484 185.9873277026323 a86.0,86.0 0 0,1 -42.54439059252881,-10.42667462771756" fill="none" id="id55" stroke="none" /><text fill="#e1ed5e" style="font-size:6.75px; font-family:Arial;" text-anchor="middle"><textPath startOffset="22.145653131862474" xlink:href="#id55">July</textPath></text><path d="M 98.55909050195518 120.95050786540614 l -2.6034230693062477 37.85320005488902 a58.94262202422556,58.94262202422556 0 0,0 -1.0088478992738428,-0.07809120780383266 l 3.252839963355327 -37.80293108009014" fill="#e1ff1b" stroke="none" /><path d="M 93.27111125876986 119.89276391827306 l -8.890600041999546 26.28347926807204 a48.74642412171296,48.74642412171296 0 0,0 -0.7903750498518372,-0.2749334704596169 l 9.340480863896405 -26.12698736504383" fill="#ff4906" stroke="none" /><path d="M 92.59220618246901 119.65005319985036 l -11.272429109231478 29.90145745737932 a52.955669545451784,52.955669545451784 0 0,0 -0.8478649980670298,-0.32797239546697227 l 11.784066369792036 -29.70354517377431" fill="#ffa50f" stroke="none" /><path d="M 92.25597844496254 119.51999308798841 l -11.808612389828324 29.765417178912813 a53.02223268930393,53.02223268930393 0 0,0 -0.8431684792531152,-0.34290928018216893 l 12.317835330271881 -29.55832064215135" fill="#ffa60f" stroke="none" /><line stroke="#e1ed5e" stroke-width="0.3" x1="58.13341422392154" x2="55.670673884152215" y1="173.97424548756322" y2="178.32567169271397" /><path d="M 57.64086615596767 174.84453072859336 a86.0,86.0 0 0,1 -31.369924170532244,-30.572349798747897" fill="none" id="id56" stroke="none" /><text fill="#e1ed5e" style="font-size:6.75px; font-family:Arial;" text-anchor="middle"><textPath startOffset="22.145653131862474" xlink:href="#id56">August</textPath></text><path d="M 88.72937992617639 117.7192867562869 l -14.884473715887072 23.400864926746 a48.73351829679646,48.73351829679646 0 0,0 -0.7020280702593676,-0.4550461134796084 l 15.283987418403452 -23.141904971562496" fill="#ff4906" stroke="none" /><path d="M 88.4268655584334 117.5232005979908 l -17.42746904999896 26.387409359176985 a52.62296713114462,52.62296713114462 0 0,0 -0.7495107047749878,-0.5043042517725835 l 17.877876042870955 -26.08435543334728" fill="#ff9e0e" stroke="none" /><path d="M 86.96720088162412 116.46651593811092 l -22.5918156030781 28.54402099810063 a57.40262719891921,57.40262719891921 0 0,0 -0.7674163507466982,-0.618176289608398 l 23.07848272418006 -28.15199641469882" fill="#ffff18" stroke="none" /><path d="M 86.68645165197938 116.24036423190432 l -22.673513087819334 27.657999305480537 a56.763852160043896,56.763852160043896 0 0,0 -0.748271008082859,-0.6242342881233337 l 23.144958430064086 -27.264702833445334" fill="#fff316" stroke="none" /><path d="M 83.8745106332314 113.45245675266167 l -34.702424185153184 28.949996489740204 a66.19248323651041,66.19248323651041 0 0,0 -0.7204048850570536,-0.8787768235737956 l 35.19427588944887 -28.35001738446791" fill="#60ff29" stroke="none" /><path d="M 82.37810715431573 111.42229804090321 l -41.13582216718736 26.66374293986703 a70.02153662354712,70.02153662354712 0 0,0 -0.6451394543726755,-1.0142663770890203 l 41.58747931318592 -25.953662888099338" fill="#31ff3f" stroke="none" /><path d="M 82.18462484594161 111.11811171558189 l -42.69324480648699 26.64374233798149 a71.3249655526894,71.3249655526894 0 0,0 -0.6393163548157557,-1.0442752191022149 l 43.14432912575815 -25.90693000275472" fill="#34ff58" stroke="none" /><line stroke="#e1ed5e" stroke-width="0.3" x1="26.387840678322732" x2="22.057713659400548" y1="142.50000000000003" y2="145.00000000000006" /><path d="M 25.521815274538298 143.00000000000003 a86.0,86.0 0 0,1 -11.493303480769221,-40.785679425670985" fill="none" id="id57" stroke="none" /><text fill="#e1ed5e" style="font-size:6.75px; font-family:Arial;" text-anchor="middle"><textPath startOffset="21.40746469413373" xlink:href="#id57">September</textPath></text><path d="M 81.63589988554817 110.18625677009913 l -34.38780498374528 19.07433574971991 a60.323675004927246,60.323675004927246 0 0,0 -0.49452386573293944,-0.9098682135647893 l 34.71017419909355 -18.481212702680534" fill="#c7ff1e" stroke="none" /><path d="M 81.29705330413844 109.54985784667822 l -35.487129535021616 18.119981196390903 a60.84557793774566,60.84557793774566 0 0,0 -0.4670045491756127,-0.9343219322965947 l 35.79295399740897 -17.508127407930555" fill="#bdff1f" stroke="none" /><path d="M 81.1358732173502 109.22738970284198 l -44.43358427863658 21.734692665984053 a70.46453554953771,70.46453554953771 0 0,0 -0.5221782528442486,-1.091151714690416 l 44.80014178944074 -20.968728449228532" fill="#32ff48" stroke="none" /><path d="M 80.83023694016515 108.57439118712176 l -37.34057295730385 16.70196333088855 a61.90567158580919,61.90567158580919 0 0,0 -0.42557530895122675,-0.9737995914662962 l 37.62178214827204 -16.058501669646407" fill="#aaff21" stroke="none" /><path d="M 80.05021161711548 106.5578916946017 l -46.022949588652374 15.12865766172387 a69.44572397524135,69.44572397524135 0 0,0 -0.36255722314666156,-1.135705337658001 l 46.27587152757629 -14.336383290374478" fill="#30ff34" stroke="none" /><path d="M 79.73907114497094 105.5222062557868 l -40.78643853180702 11.116525191079921 a63.274232109321474,63.274232109321474 0 0,0 -0.27663048103041254,-1.050410994483327 l 40.97125849364217 -10.414733692223791" fill="#92ff23" stroke="none" /><path d="M 79.48165901384964 104.47187691870673 l -51.332860648898226 11.187758058117044 a73.53787693432393,73.53787693432393 0 0,0 -0.258231018393002,-1.2357289036914805 l 51.5173493781156 -10.304912703140154" fill="#38ff81" stroke="none" /><path d="M 79.407916724674 104.11899336999214 l -61.776249825978 12.35698010997642 a84.0,84.0 0 0,0 -0.27069483087137236,-1.4163897398667418 l 61.97927094913153 -11.294687805076363" fill="#4dd2ff" stroke="none" /><line stroke="#e1ed5e" stroke-width="0.3" x1="15.003131293944662" x2="10.003315487706104" y1="100.72959589197737" y2="100.7725132973878" /><path d="M 14.003168132696942 100.73817937305945 a86.0,86.0 0 0,1 10.791469493833615,-42.45332614584628" fill="none" id="id58" stroke="none" /><text fill="#e1ed5e" style="font-size:6.75px; font-family:Arial;" text-anchor="middle"><textPath startOffset="22.145653131862435" xlink:href="#id58">October</textPath></text><path d="M 79.2786578344484 96.59031103205396 l -43.71656698532147 -7.19354446132986 a65.30446152363471,65.30446152363471 0 0,0 0.1915136753097336,-1.1045999864078162 l 43.586638492519505 7.942937480658268" fill="#6fff28" stroke="none" /><line stroke="#e1ed5e" stroke-width="0.3" x1="26.387840678322718" x2="22.05771365940052" y1="57.49999999999999" y2="54.99999999999999" /><path d="M 25.521815274538284 56.99999999999999 a86.0,86.0 0 0,1 29.574782752854787,-30.34633250058573" fill="none" id="id59" stroke="none" /><text fill="#e1ed5e" style="font-size:6.75px; font-family:Arial;" text-anchor="middle"><textPath startOffset="21.40746469413373" xlink:href="#id59">November</textPath></text><line stroke="#e1ed5e" stroke-width="0.3" x1="56.869717070023135" x2="54.33264160355391" y1="26.7553504044142" y2="22.446841604673864" /><path d="M 56.362301976729285 25.89364864446614 a86.0,86.0 0 0,1 42.16139366436587,-11.88097634709845" fill="none" id="id60" stroke="none" /><text fill="#e1ed5e" style="font-size:6.75px; font-family:Arial;" text-anchor="middle"><textPath startOffset="22.145653131862474" xlink:href="#id60">December</textPath></text></svg>