<?xml version="1.0" encoding="utf-8" ?>
<svg baseProfile="full" height="200mm" version="1.1" viewBox="0,0,200,200" width="200mm" xmlns="http://www.w3.org/2000/svg" xmlns:ev="http://www.w3.org/2001/xml-events" xmlns:xlink="http://www.w3.org/1999/xlink"><defs /><rect fill="#1a1a1a" height="200" width="200" x="0" y="0" /><text alignment-baseline="middle" fill="#e1ed5e" style="dominant-baseline: central; font-size:9.0px; font-family:Arial;" text-anchor="middle" x="100.0" y="100.0">2024</text><line stroke="#e1ed5e" stroke-width="0.3" x1="100.0" x2="100.0" y1="15.0" y2="10.0" /><path d="M 100.0 14.0 a86.0,86.0 0 0,1 42.35913384403234,11.155469271406648" fill="none" id="id97" stroke="none" /><text fill="#e1ed5e" style="font-size:6.75px; font-family:Arial;" text-anchor="middle"><textPath startOffset="22.145653131862478" xlink:href="#id97">January</textPath></text><path d="M 100.36049292484886 79.00309439819443 l 0.2654866211694051 -15.463264710600107 a36.46554359394168,36.46554359394168 0 0,0 0.6257950669728357,0.016118261077296137 l -0.5308950022129821 15.456428732172768" fill="#ffa90f" stroke="none" /><path d="M 100.72087961077811 79.0123766808444 l 0.5242820176968135 -15.263898903383538 a36.27290022774959,36.27290022774959 0 0,0 0.622122107158641,0.02671660010806565 l -0.7862298854562907 15.25264973484964" fill="#ffa60f" stroke="none" /><path d="M 101.08105385017728 79.02784411241856 l 0.8983933109701454 -17.428590225118413 a38.451729649988536,38.451729649988536 0 0,0 0.65890819451543,0.039638280768662375 l -1.1974458576180378 17.41059996652506" fill="#ffc412" stroke="none" /><path d="M 101.80034050326958 79.07731436759882 l 3.280615867261223 -38.12572918662807 a59.26661294758957,59.26661294758957 0 0,0 1.0128958696943497,0.09592229196391999 l -3.9346113003405856 38.06379513915897" fill="#43ff2d" stroke="none" /><path d="M 102.51750503828377 79.15144685158666 l 1.8605825989817635 -15.408292977371149 a36.52022100629172,36.52022100629172 0 0,0 0.6217518551999561,0.08049822556142733 l -2.1248122760725114 15.374083155609323" fill="#ffaa0f" stroke="none" /><path d="M 102.87502721639298 79.19773525538626 l 2.193601083021232 -15.871804695584414 a37.02267362228312,37.02267362228312 0 0,0 0.6288122954451948,0.09241375308980278 l -2.465738484074109 15.831809869195729" fill="#ffb110" stroke="none" /><path d="M 103.58742460773223 79.30868818359171 l 3.1401087088319923 -18.11131258112608 a39.381510441596966,39.381510441596966 0 0,0 0.6651073282824261,0.12120471110387575 l -3.450550770665472 18.054739696090838" fill="#ffd013" stroke="none" /><path d="M 103.94208987418118 79.37332000966035 l 3.038238692397956 -15.89734867609476 a37.1850730391097,37.1850730391097 0 0,0 0.6259549526244448,0.12520852141576652 l -3.3106901305533576 15.842850758016134" fill="#ffb310" stroke="none" /><line stroke="#e1ed5e" stroke-width="0.3" x1="143.13028292997686" x2="145.6673583964461" y1="26.7553504044142" y2="22.446841604673864" /><path d="M 143.63769802327073 25.89364864446614 a86.0,86.0 0 0,1 29.32050498858742,28.57503671076993" fill="none" id="id98" stroke="none" /><text fill="#e1ed5e" style="font-size:6.75px; font-family:Arial;" text-anchor="middle"><textPath startOffset="20.669276256404974" xlink:href="#id98">February</textPath></text><path d="M 113.86319453409587 84.22622945171908 l 2.4962155915112123 -2.840235119163834 a24.781273305572512,24.781273305572512 0 0,0 0.31712356271693465,0.2835738452624081 l -2.5446041810515223 2.7969657440180393" fill="#ff0000" stroke="none" /><path d="M 114.13192950727249 84.46653392183569 l 3.4814490927644157 -3.8267224130634205 a26.17342171218934,26.17342171218934 0 0,0 0.32974800799476045,0.3052098333480362 l -3.546626872073141 3.7663948335830093" fill="#ff1502" stroke="none" /><path d="M 116.35404254752997 86.82634096563983 l 11.557702061618748 -9.310066654038584 a35.84108547404089,35.84108547404089 0 0,0 0.3818501896565775,0.48245524056955663 l -11.715818681916884 9.11029146955435" fill="#ffa10e" stroke="none" /><path d="M 116.57777611688842 87.10902102172516 l 11.67363079577161 -9.077485914116634 a35.787643709427584,35.787643709427584 0 0,0 0.3729550029027052,0.4882100708160719 l -11.82773777602862 8.875754930059681" fill="#ffa00e" stroke="none" /><path d="M 117.01052211995028 87.68569379921539 l 25.268905099641536 -18.292738609746042 a52.19522160170021,52.19522160170021 0 0,0 0.5191806534037151,0.7302926077868362 l -25.579200851575212 17.8562687752497" fill="#90ff24" stroke="none" /><path d="M 117.42321728460499 88.27688183743584 l 12.266661396139027 -8.253557231026765 a35.78486350201995,35.78486350201995 0 0,0 0.3385513254480527,0.5126098567760866 l -12.406537160507805 8.04176749591162" fill="#ffa00e" stroke="none" /><path d="M 117.62189284568427 88.57770195909679 l 13.592763387185245 -8.810665004465255 a37.19848864310842,37.19848864310842 0 0,0 0.34272616431889213,0.5388224556121097 l -13.742007243130027 8.576028874174472" fill="#ffb310" stroke="none" /><path d="M 117.81537515405839 88.88188828441811 l 13.780780503594144 -8.600226256362026 a37.24419289927509,37.24419289927509 0 0,0 0.33383572579267623,0.5452955693535477 l -13.926384193842223 8.362393570883924" fill="#ffb410" stroke="none" /><line stroke="#e1ed5e" stroke-width="0.3" x1="172.87174338648825" x2="177.1583165268699" y1="56.24261187166439" y2="53.66864786411523" /><path d="M 173.72905801456457 55.72781907015455 a86.0,86.0 0 0,1 12.242430191666344,42.057860355516425" fill="none" id="id99" stroke="none" /><text fill="#e1ed5e" style="font-size:6.75px; font-family:Arial;" text-anchor="middle"><textPath startOffset="22.145653131862474" xlink:href="#id99">March</textPath></text><path d="M 118.18653347947321 89.5 l 13.927127040394355 -8.040830545809799 a37.081661091619594,37.081661091619594 0 0,0 0.3135459894979362,0.5540057200464092 l -14.063106394913667 7.800568055664272" fill="#ffb110" stroke="none" /><path d="M 118.36410011445183 89.81374322990088 l 31.921453171832525 -17.70629197491102 a57.50331420710036,57.50331420710036 0 0,0 0.4714029977753591,0.8673284206804863 l -32.220701519223226 17.155708720755932" fill="#56ff2b" stroke="none" /><path d="M 119.0197475246899 91.09779779509293 l 13.72756879345061 -6.425195340917757 a36.15682289095806,36.15682289095806 0 0,0 0.2582897683394381,0.5644097577032555 l -13.8358430266451 6.188596600999817" fill="#ffa50f" stroke="none" /><path d="M 119.16976305983485 91.42560881287824 l 14.726914776091302 -6.58716166055202 a37.13296989287784,37.13296989287784 0 0,0 0.25527346250549954,0.584115638928046 l -14.837822120613772 6.333383951848125" fill="#ffb210" stroke="none" /><path d="M 119.58574465831526 92.42381321644754 l 16.77739944422083 -6.489858524614289 a38.988868663160844,38.988868663160844 0 0,0 0.23610417936870234,0.626294386639436 l -16.886334307403974 6.2008958577806945" fill="#ffcb12" stroke="none" /><path d="M 119.71291397450082 92.76114493625339 l 14.137625449885345 -5.191531891715006 a36.06069243905936,36.06069243905936 0 0,0 0.20839616678580503,0.58292116817903 l -14.224661786715092 4.94807576715506" fill="#ffa40f" stroke="none" /><path d="M 119.94978838288452 93.4421083053983 l 18.842756595044577 -6.193988357493411 a40.83469102035269,40.83469102035269 0 0,0 0.21318680743639293,0.6678046379063508 l -18.946308118258226 5.869614685895673" fill="#ffe315" stroke="none" /><path d="M 120.26092885502905 94.47779374421319 l 16.091214980104787 -4.385732197282211 a37.67818474661516,37.67818474661516 0 0,0 0.16472636685343,0.6254928458339758 l -16.164130827762946 4.108858847075436" fill="#ffba11" stroke="none" /><path d="M 120.43855184770803 95.1765574152323 l 14.505661600493854 -3.423296640847762 a35.90413292879802,35.90413292879802 0 0,0 0.13641713490037208,0.6010790670216484 l -14.562289596951892 3.1737832398870873" fill="#ffa10e" stroke="none" /><path d="M 120.51834098615036 95.52812308129327 l 15.177311773563375 -3.307824460760553 a36.53359248001412,36.53359248001412 0 0,0 0.12828908291837807,0.6139097029352498 l -15.23185856730612 3.0467983065398987" fill="#ffaa0f" stroke="none" /><path d="M 120.592083275326 95.88100663000786 l 18.743179149512383 -3.7491607632493964 a40.114470200855806,40.114470200855806 0 0,0 0.12927118722042105,0.6764014763414562 l -18.80477662901496 3.4268567218746258" fill="#ffda14" stroke="none" /><path d="M 120.7213421655516 96.59031103205396 l 30.648482283723148 -5.043196096671314 a52.06063896904203,52.06063896904203 0 0,0 0.1375355508729017,0.8830768979511104 l -30.730539326734316 4.5163310167887625" fill="#92ff23" stroke="none" /><path d="M 120.82617615685814 97.30363454192243 l 15.152316788428905 -1.961770768212507 a36.27878426459113,36.27878426459113 0 0,0 0.07466158899768434,0.618305061039455 l -15.183760463686253 1.701372030249639" fill="#ffa70f" stroke="none" /><path d="M 120.86939407059847 97.66154086499901 l 15.990707470016982 -1.7917921254393827 a37.09078134872398,37.09078134872398 0 0,0 0.06546983455156385,0.6333612598402387 l -16.01910969705021 1.5170263433162126" fill="#ffb210" stroke="none" /><path d="M 120.93736805541906 98.37931529534042 l 20.015679259420878 -1.5493401626819747 a41.07555406846124,41.07555406846124 0 0,0 0.04838316669542309,0.7034806251060132 l -20.039326387281367 1.2055161134216275" fill="#ffe615" stroke="none" /><path d="M 120.99303781780057 99.45929381324524 l 31.209760596510964 -0.803852724323653 a52.220111077539926,52.220111077539926 0 0,0 0.015388939491838746,0.896328575539866 l -31.218960967601472 0.26797723281472047" fill="#90ff24" stroke="none" /><line stroke="#e1ed5e" stroke-width="0.3" x1="184.99686870605535" x2="189.99668451229388" y1="99.2704041080226" y2="99.22748670261217" /><path d="M 185.99683186730306 99.26182062694052 a86.0,86.0 0 0,1 -10.086455211305974,41.156179273409016" fill="none" id="id100" stroke="none" /><text fill="#e1ed5e" style="font-size:6.75px; font-family:Arial;" text-anchor="middle"><textPath startOffset="21.40746469413373" xlink:href="#id100">April</textPath></text><path d="M 120.99922638620191 100.18025310272382 l 15.352945928270591 0.13178657578263464 a36.35351153247872,36.35351153247872 0 0,0 -0.01071315203558777,0.6239873974874237 l -15.348421344636336 -0.3953208892391294" fill="#ffa80f" stroke="none" /><path d="M 120.99303781780057 100.54070618675476 l 16.440621795448 0.42345209855031574 a37.44607420330841,37.44607420330841 0 0,0 -0.022066994714537123,0.6424564739104515 l -16.43093011373662 -0.7056148370248779" fill="#ffb610" stroke="none" /><path d="M 120.98066250479742 100.90099992219065 l 19.319404071985687 0.8296583371306073 a40.33721041549239,40.33721041549239 0 0,0 -0.03564735766987241,0.6915492155273899 l -19.30231512485924 -1.161179346034728" fill="#ffdd14" stroke="none" /><path d="M 120.93736805541906 101.62068470465957 l 45.4641075963999 3.5192094630734387 a66.60010871458546,66.60010871458546 0 0,0 -0.09801752801449806,1.1391122520367696 l -45.39699644568766 -4.299142762485865" fill="#36ff72" stroke="none" /><path d="M 120.86939407059847 102.33845913500097 l 15.588154938978406 1.7466852746922794 a36.685709542460096,36.685709542460096 0 0,0 -0.07549903954805116,0.6252403529427484 l -15.555873813170692 -2.0140193045584365" fill="#ffac0f" stroke="none" /><path d="M 120.82617615685814 102.69636545807757 l 15.489803258095126 2.00546514842531 a36.61908753532174,36.61908753532174 0 0,0 -0.08606441755299431,0.6227192524718059 l -15.453094323986921 -2.2710727090972007" fill="#ffab0f" stroke="none" /><path d="M 120.7213421655516 103.40968896794604 l 15.362887056996794 2.527957218964657 a36.56948510474753,36.56948510474753 0 0,0 -0.10724468639956643,0.6185588519863382 l -15.317227553104994 -2.791309103871583" fill="#ffab0f" stroke="none" /><path d="M 120.592083275326 104.11899336999214 l 44.71132988206524 8.94351819023723 a66.59703430533574,66.59703430533574 0 0,0 -0.23385798866589463,1.1190951333111536 l -44.55121418257498 -9.709729774833791" fill="#36ff72" stroke="none" /><path d="M 120.43855184770803 104.8234425847677 l 15.141814672872446 3.573427033774101 a36.55776116134076,36.55776116134076 0 0,0 -0.14938628144195917,0.6095470064767478 l -15.078240864914191 -3.8328298648589483" fill="#ffaa0f" stroke="none" /><path d="M 120.35273937422433 105.17358676015961 l 15.593691803073717 3.963855477683886 a37.08960454135567,37.08960454135567 0 0,0 -0.16215313569948084,0.6157218680104571 l -15.523349186569506 -4.2309578500671465" fill="#ffb210" stroke="none" /><path d="M 120.16314734710363 105.8691983318838 l 14.35250240853045 4.177804275511855 a35.94818965464907,35.94818965464907 0 0,0 -0.17755612000893575,0.5910265765113952 l -14.278669968517884 -4.423568455613974" fill="#ffa20f" stroke="none" /><path d="M 119.83427380445688 106.89939002012753 l 59.30954860731519 20.630939745705703 a83.79536790874326,83.79536790874326 0 0,0 -0.48425674288144277,1.3545522962961078 l -58.94665169438981 -21.646026998382734" fill="#4dd4ff" stroke="none" /><path d="M 119.58574465831526 107.57618678355244 l 11.209861173859457 4.336215117294249 a33.0193073461266,33.0193073461266 0 0,0 -0.20903002239499294,0.5268922049523673 l -11.13377247649834 -4.528008339460181" fill="#ff790b" stroke="none" /><path d="M 119.4528033332814 107.91128576633889 l 16.340726525717482 6.645631221355593 a38.6404012913126,38.6404012913126 0 0,0 -0.2551630959925747,0.6122985415186715 l -16.224237585188423 -6.925162272315543" fill="#ffc612" stroke="none" /><line stroke="#e1ed5e" stroke-width="0.3" x1="174.33088141563837" x2="178.70328620479359" y1="141.23008692659167" y2="143.65538615756765" /><path d="M 175.20536237346943 141.71514677278685 a86.0,86.0 0 0,1 -30.301960400862466,31.631185727798858" fill="none" id="id101" stroke="none" /><text fill="#e1ed5e" style="font-size:6.75px; font-family:Arial;" text-anchor="middle"><textPath startOffset="22.145653131862474" xlink:href="#id101">May</textPath></text><path d="M 117.21940702142032 112.02048342749411 l 12.754283299253222 8.903480290437578 a36.55453965117001,36.55453965117001 0 0,0 -0.36360435301510924,0.5114550579363891 l -12.599563847708152 -9.121112575083473" fill="#ffaa0f" stroke="none" /><path d="M 117.01052211995028 112.31430620078461 l 12.600207286886462 9.121578375427955 a36.555333996143624,36.555333996143624 0 0,0 -0.37233867215303584,0.5051489184880856 l -12.441766595149598 -9.336533603184916" fill="#ffaa0f" stroke="none" /><path d="M 116.57777611688842 112.89097897827486 l 11.62971266051109 9.043334906501592 a35.7320101410908,35.7320101410908 0 0,0 -0.38068810329610286,0.4809869824154603 l -11.472758126573426 -9.241641832831734" fill="#ff9f0e" stroke="none" /><path d="M 116.35404254752997 113.17365903436017 l 6.577352659458302 5.298249716094358 a29.445887641981578,29.445887641981578 0 0,0 -0.3204738705198513,0.3909260137117624 l -6.485431969699823 -5.410378011504614" fill="#ff4606" stroke="none" /><path d="M 116.1254893667686 113.45245675266167 l 29.375644350888045 24.506207298506382 a59.255492117959065,59.255492117959065 0 0,0 -0.658315640627675,0.7754941693482678 l -28.950634146753256 -25.006868250304205" fill="#43ff2d" stroke="none" /><path d="M 115.6541949942343 113.99807769240083 l 11.611248340465606 10.38284986455465 a36.57641355812845,36.57641355812845 0 0,0 -0.4225486678171524,0.4644550055626561 l -11.431301971806572 -10.580642445674979" fill="#ffab0f" stroke="none" /><path d="M 115.41159269507618 114.26474011684316 l 5.890856899391649 5.452489200689906 a29.026944218863754,29.026944218863754 0 0,0 -0.34161142515024623,0.36277949533121423 l -5.796389640505143 -5.552810155965618" fill="#ff4006" stroke="none" /><path d="M 114.13192950727249 115.5334660781643 l 15.78212309919352 17.3473179070542 a44.45218216044087,44.45218216044087 0 0,0 -0.5688502847870665,0.5086694323615192 l -15.482007787583075 -17.615682869299107" fill="#edff1a" stroke="none" /><path d="M 113.31354834802062 116.24036423190432 l 9.611627045511144 11.724622166826837 a36.16080932591821,36.16080932591821 0 0,0 -0.4834342553134351,0.3894204155651336 l -9.408942019842454 -11.887890876185375" fill="#ffa50f" stroke="none" /><path d="M 112.7482090630111 116.68781488649013 l 19.414436524476272 25.414120622324358 a52.981211242993446,52.981211242993446 0 0,0 -0.7274749478954506,0.5459107631185539 l -18.975308587670053 -25.743650412706923" fill="#87ff25" stroke="none" /><path d="M 112.16784306229584 117.11559508785304 l 9.166798579453973 12.894250191638934 a36.82061579714456,36.82061579714456 0 0,0 -0.5183026083638566,0.3618154740470762 l -8.944100879916357 -13.049710481491132" fill="#ffae10" stroke="none" /><line stroke="#e1ed5e" stroke-width="0.3" x1="143.1302829299769" x2="145.66735839644613" y1="173.24464959558577" y2="177.55315839532614" /><path d="M 143.63769802327073 174.10635135553383 a86.0,86.0 0 0,1 -40.68552437913181,11.842963189579606" fill="none" id="id102" stroke="none" /><text fill="#e1ed5e" style="font-size:6.75px; font-family:Arial;" text-anchor="middle"><textPath startOffset="21.407464694133747" xlink:href="#id102">June</textPath></text><path d="M 110.65571695917076 118.09573695890943 l 7.482820384746068 12.70746491408944 a35.74694088457621,35.74694088457621 0 0,0 -0.5314506759577982,0.3068331908252445 l -7.263577240927871 -12.834045002190857" fill="#ff9f0e" stroke="none" /><path d="M 108.4095320186766 119.2426549942271 l 9.311975633273027 21.30762259157447 a44.2535517867625,44.2535517867625 0 0,0 -0.6987107415056829,0.29823806763987026 l -8.944829816596913 -21.464335308873746" fill="#efff19" stroke="none" /><path d="M 106.72888874123015 119.89276391827305 l 4.598551236766007 13.594799622492374 a35.351489478548245,35.351489478548245 0 0,0 -0.5765276826994348,0.1895161005981511 l -4.364500816418839 -13.671736644492546" fill="#ff9a0e" stroke="none" /><path d="M 106.0420521117495 120.11202640906438 l 8.932950637503927 29.734887387511506 a52.04772350817484,52.04772350817484 0 0,0 -0.8578951605088186,0.24972077812607954 l -8.421195464613502 -29.883851859940105" fill="#92ff23" stroke="none" /><path d="M 105.3480935250658 120.30758222061773 l 4.574715645607807 17.370940443301944 a38.963228972623824,38.963228972623824 0 0,0 -0.6482640934229336,0.16478619753108933 l -4.275846258959476 -17.446911872668302" fill="#ffcb12" stroke="none" /><path d="M 104.29559338865022 120.5559693870025 l 3.1373969697847928 15.013580250908182 a36.337889414664424,36.337889414664424 0 0,0 -0.6116938864986309,0.12235590878614956 l -2.879206597755203 -15.065225556357193" fill="#ffa70f" stroke="none" /><path d="M 103.2317021107853 120.74984581791261 l 4.881776456394195 31.344506800189073 a52.722387172426096,52.722387172426096 0 0,0 -0.8954643750874188,0.13160242612854026 l -4.342986975699091 -31.423690299616496" fill="#8aff24" stroke="none" /><path d="M 102.51750503828377 120.84855314841334 l 1.839325811396326 15.232256282707148 a36.34290555607184,36.34290555607184 0 0,0 -0.6200170615358752,0.06947420497692798 l -1.5775728482596514 -15.261586248191048" fill="#ffa70f" stroke="none" /><path d="M 100.72087961077811 120.9876233191556 l 1.0313670438937268 30.027126162811197 a51.044833558810254,51.044833558810254 0 0,0 -0.8759942095271479,0.02256250347203714 l -0.515759520295835 -30.04040638363328" fill="#9dff22" stroke="none" /><line stroke="#e1ed5e" stroke-width="0.3" x1="101.45913802915013" x2="101.54496967792366" y1="184.9874750549273" y2="189.98673829345242" /><path d="M 101.47630435890484 185.9873277026323 a86.0,86.0 0 0,1 -42.54439059252881,-10.42667462771756" fill="none" id="id103" stroke="none" /><text fill="#e1ed5e" style="font-size:6.75px; font-family:Arial;" text-anchor="middle"><textPath startOffset="22.145653131862474" xlink:href="#id103">July</textPath></text><path d="M 100.0 121.0 l 1.8778399026524385e-15 15.333726458599031 a36.33372645859903,36.33372645859903 0 0,0 -0.6237167296056425,-0.0053538579785990855 l 0.26322380475678847 -15.331466998814866" fill="#ffa70f" stroke="none" /><path d="M 98.91894614982273 120.97215588758144 l -1.6254658077282365 31.533602423246712 a52.57546865652962,52.57546865652962 0 0,0 -0.9009323493017014,-0.054197852921608454 l 2.166542509162384 -31.501052592500415" fill="#8cff24" stroke="none" /><path d="M 98.55909050195518 120.95050786540614 l -1.0498890062074848 15.26515573129295 a36.30121715504951,36.30121715504951 0 0,0 -0.6213229987105661,-0.04809432962147348 l 1.3117809996932872 -15.244883634676423" fill="#ffa70f" stroke="none" /><path d="M 98.19965949673042 120.92268563240118 l -2.663538982029352 30.95436040540004 a52.06874422979126,52.06874422979126 0 0,0 -0.8898807160983833,-0.08427262902000955 l 3.1945192615127507 -30.904076020874843" fill="#91ff23" stroke="none" /><path d="M 97.48249496171623 120.84855314841334 l -1.8436039735567955 15.267685602539144 a36.3785922395158,36.3785922395158 0 0,0 -0.619340644477064,-0.08018604605922906 l 2.1054224399246535 -15.23378796027952" fill="#ffa80f" stroke="none" /><path d="M 95.00130118170881 120.39639698878247 l -3.6382176666906694 14.845169624920977 a36.28449178032742,36.28449178032742 0 0,0 -0.6036956840977932,-0.15345708216405166 l 3.8925186440138413 -14.780527310921663" fill="#ffa70f" stroke="none" /><path d="M 94.6519064749342 120.30758222061772 l -3.876387353369788 14.719274172856025 a36.22115012372822,36.22115012372822 0 0,0 -0.5999233186937736,-0.16351176825048566 l 4.128492072998257 -14.650561910461395" fill="#ffa60f" stroke="none" /><path d="M 93.95794788825049 120.11202640906438 l -3.6017976461308776 11.989212942772012 a33.51855316203937,33.51855316203937 0 0,0 -0.5496394168542086,-0.1702796963385997 l 3.80707769585672 -11.925616658626762" fill="#ff800b" stroke="none" /><path d="M 92.93061703081489 119.77432235084164 l -5.1422992011640405 14.383926075519229 a36.275489203959864,36.275489203959864 0 0,0 -0.5845723369368528,-0.21466305929378343 l 5.3884606897550125 -14.293532167216727" fill="#ffa70f" stroke="none" /><path d="M 92.59220618246901 119.65005319985036 l -5.208308443273848 13.815656930050999 a35.76478422629819,35.76478422629819 0 0,0 -0.57262440394359,-0.22150342081862784 l 5.4447051097109656 -13.72421362109433" fill="#ffa00e" stroke="none" /><path d="M 91.92203290615298 119.3841803445677 l -6.227773585806946 14.94438946456831 a37.190118600701325,37.190118600701325 0 0,0 -0.5871875656306802,-0.2506354554367893 l 6.483396226608058 -14.835279359472118" fill="#ffb310" stroke="none" /><path d="M 91.26138138417905 119.09545874513695 l -12.743830887169862 27.847570383765127 a51.62502901157054,51.62502901157054 0 0,0 -0.8026740294756926,-0.37569197518233827 l 13.219993630517045 -27.624702177012264" fill="#97ff23" stroke="none" /><path d="M 90.6110303473126 118.78422872680471 l -6.945761995479423 13.896176772462828 a36.53535769106659,36.53535769106659 0 0,0 -0.558595657121847,-0.2852229226780501 l 7.183284874314853 -13.774895898111941" fill="#ffaa0f" stroke="none" /><path d="M 89.97174638481275 118.45085714620012 l -7.305053902522244 13.440476395272423 a36.2973925311025,36.2973925311025 0 0,0 -0.5449030452480637,-0.3022485337758338 l 7.53470113592641 -13.31309494606344" fill="#ffa70f" stroke="none" /><line stroke="#e1ed5e" stroke-width="0.3" x1="58.13341422392154" x2="55.67067388415222" y1="173.97424548756322" y2="178.32567169271397" /><path d="M 57.64086615596768 174.84453072859336 a86.0,86.0 0 0,1 -31.369924170532247,-30.572349798747897" fill="none" id="id104" stroke="none" /><text fill="#e1ed5e" style="font-size:6.75px; font-family:Arial;" text-anchor="middle"><textPath startOffset="22.145653131862474" xlink:href="#id104">August</textPath></text><path d="M 89.03521579738668 117.91015095944536 l -16.21116626301339 26.479721774190264 a52.047988289832716,52.047988289832716 0 0,0 -0.7580067544458965,-0.473052276711399 l 16.663337146248995 -26.197533700637315" fill="#92ff23" stroke="none" /><path d="M 88.72937992617639 117.7192867562869 l -8.994768904309769 14.141270708979427 a37.759516845857384,37.759516845857384 0 0,0 -0.5439426840431114,-0.3525770760676784 l 9.23619722060989 -13.984779791207853" fill="#ffbb11" stroke="none" /><path d="M 88.1277618465304 117.32195027204791 l -8.654744504133868 12.627530881704429 a36.308792852482995,36.308792852482995 0 0,0 -0.5110979714642321,-0.3567860779508354 l 8.870237566771864 -12.477099987948465" fill="#ffa70f" stroke="none" /><path d="M 87.54013794807813 116.9041958592261 l -8.739246338320509 11.856466078788397 a35.72922993368317,35.72922993368317 0 0,0 -0.49059126951892956,-0.36814883467419246 l 8.941490596750205 -11.70469821685019" fill="#ff9f0e" stroke="none" /><path d="M 86.96720088162412 116.46651593811092 l -19.272902754418464 24.35068303414792 a52.0547990624768,52.0547990624768 0 0,0 -0.695921177909619,-0.5605848392485857 l 19.688074702683345 -24.016249901105923" fill="#92ff23" stroke="none" /><path d="M 86.40962598614128 116.0094264158162 l -9.94254799090461 11.712296533104317 a36.363337874004095,36.363337874004095 0 0,0 -0.472412607444981,-0.40805875872270736 l 10.142140078112453 -11.539893641916887" fill="#ffa80f" stroke="none" /><path d="M 86.13680546590413 115.77377054828092 l -10.082350076062545 11.471863595083384 a36.27276783692065,36.27276783692065 0 0,0 -0.4641791091284269,-0.4150718216530624 l 10.277794212014342 -11.29709624354694" fill="#ffa60f" stroke="none" /><path d="M 85.34317274990678 115.03919595460226 l -10.277264158748435 10.545378404432336 a35.725052267525676,35.725052267525676 0 0,0 -0.43551914448885604,-0.4317967810059035 l 10.456775223367254 -10.367401613197773" fill="#ff9f0e" stroke="none" /><path d="M 84.83555147118756 114.52719865689866 l -15.226862220082953 14.586989561281 a42.08643159783823,42.08643159783823 0 0,0 -0.49530552610780704,-0.5259973044435571 l 15.475023579927013 -14.323450796892953" fill="#fff417" stroke="none" /><path d="M 84.58840730492382 114.26474011684316 l -11.219191568638308 10.384316223126879 a36.28738966847189,36.28738966847189 0 0,0 -0.41920972209609025,-0.46078491931800586 l 11.39579899157628 -10.190193728251199" fill="#ffa70f" stroke="none" /><path d="M 84.3458050057657 113.99807769240083 l -9.302591456008644 8.318434642588434 a33.4793654766747,33.4793654766747 0 0,0 -0.379415169958821,-0.4317048151310351 l 9.444017689926056 -8.1575175496461" fill="#ff800b" stroke="none" /><path d="M 83.64595745247003 113.17365903436017 l -11.47503780871422 9.243478183394132 a35.73493744941946,35.73493744941946 0 0,0 -0.3807192907790069,-0.48102638678129883 l 11.632023530134788 -9.045131852698152" fill="#ff9f0e" stroke="none" /><path d="M 83.4222238831116 112.89097897827486 l -11.662436432368343 9.06878110942576 a35.77346318063947,35.77346318063947 0 0,0 -0.3728072228700894,-0.48801662200956886 l 11.816395632592728 -8.86724357417532" fill="#ffa00e" stroke="none" /><path d="M 82.98947788004972 112.3143062007846 l -17.877266467903215 12.941762267284405 a43.070021906362555,43.070021906362555 0 0,0 -0.42841320391537996,-0.6026168229623744 l 18.09679477034856 -12.632968217612525" fill="#feff18" stroke="none" /><path d="M 82.37810715431573 111.42229804090323 l -12.374505015966987 8.021004646821655 a35.746690813010446,35.746690813010446 0 0,0 -0.32935010739223114,-0.5177930724193964 l 12.510372814985109 -7.807397899723586" fill="#ff9f0e" stroke="none" /><path d="M 82.18462484594161 111.11811171558189 l -12.622162601672468 7.877162994553374 a35.87846381807679,35.87846381807679 0 0,0 -0.3215941084137956,-0.5252998073584108 l 12.755524674541668 -7.6593260710704065" fill="#ffa10e" stroke="none" /><path d="M 81.99639281039703 110.81064883170644 l -6.314807340983034 3.791860369108343 a28.365799129255947,28.365799129255947 0 0,0 -0.2470881139961424,-0.419609636186807 l 6.378969165108947 -3.6828995646279767" fill="#ff3605" stroke="none" /><line stroke="#e1ed5e" stroke-width="0.3" x1="26.387840678322732" x2="22.057713659400548" y1="142.50000000000003" y2="145.00000000000006" /><path d="M 25.521815274538298 143.00000000000003 a86.0,86.0 0 0,1 -11.493303480769221,-40.785679425670985" fill="none" id="id105" stroke="none" /><text fill="#e1ed5e" style="font-size:6.75px; font-family:Arial;" text-anchor="middle"><textPath startOffset="21.40746469413373" xlink:href="#id105">September</textPath></text><path d="M 81.63589988554817 110.18625677009913 l -13.325978055530053 7.39169539157064 a36.23872868379233,36.23872868379233 0 0,0 -0.2970793174734855,-0.5465924834103364 l 13.450902722618867 -7.161848074685717" fill="#ffa60f" stroke="none" /><path d="M 81.4637452351635 109.86951160357371 l -13.509786461540317 7.1932003490216045 a36.30543895148331,36.30543895148331 0 0,0 -0.288182082168326,-0.5526271407896075 l 13.631276612683592 -6.960226965127494" fill="#ffa70f" stroke="none" /><path d="M 81.1358732173502 109.22738970284198 l -13.307125993989603 6.509182152247617 a35.81381296328034,35.81381296328034 0 0,0 -0.2653986737443148,-0.5545811537636882 l 13.416903925693829 -6.279788496418824" fill="#ffa00e" stroke="none" /><path d="M 80.9802524753101 108.90220220490708 l -15.836820438902597 7.412431613348389 a38.48568054256424,38.48568054256424 0 0,0 -0.2749261886671491,-0.6007633385151585 l 15.961731092424802 -7.1394792926185415" fill="#ffc412" stroke="none" /><path d="M 80.68587082218212 108.24405325689762 l -22.346918643730053 9.538570739086419 a45.297512313281075,45.297512313281075 0 0,0 -0.2991235364115429,-0.7177875952877716 l 22.507368024678083 -9.153550634357366" fill="#e2ff1b" stroke="none" /><path d="M 80.28708602549918 107.23885506374661 l -14.236867235280561 5.22797484995409 a36.16641387100977,36.16641387100977 0 0,0 -0.209007135119339,-0.5846301553460943 l 14.324514540443843 -4.982809738227075" fill="#ffa50f" stroke="none" /><path d="M 80.16572619554312 106.89939002012753 l -14.550965080728368 5.061580991114612 a36.40617366221052,36.40617366221052 0 0,0 -0.20025922870254442,-0.5920308259260844 l 14.63570973100328 -4.8110484907143665" fill="#ffa80f" stroke="none" /><path d="M 80.05021161711548 106.5578916946017 l -13.994576431965072 4.600295240795064 a35.73128934657771,35.73128934657771 0 0,0 -0.18654333634081874,-0.5843443441784603 l 14.071484484083145 -4.359381862925212" fill="#ff9f0e" stroke="none" /><path d="M 79.83685265289637 105.86919833188381 l -21.628411802334387 6.295715459808496 a43.52607889185841,43.52607889185841 0 0,0 -0.20266883943461547,-0.7192002132879975 l 21.733299133843577 -5.923507322617502" fill="#f8ff18" stroke="none" /><path d="M 79.64726062577567 105.17358676015961 l -14.503054359588615 3.686619704454517 a35.964282495410686,35.964282495410686 0 0,0 -0.14696114466656943,-0.5996516208531872 l 14.564203030771479 -3.43711225899323" fill="#ffa20f" stroke="none" /><path d="M 79.48165901384964 104.47187691870673 l -14.97202650917269 3.2630834928529144 a36.32348823449475,36.32348823449475 0 0,0 -0.12755129396456294,-0.6103791157086284 l 15.025835513961619 -3.005587925858877" fill="#ffa70f" stroke="none" /><path d="M 79.34024301695615 103.76489593502545 l -14.499515311994509 2.6422946941133247 a35.73830606051125,35.73830606051125 0 0,0 -0.10480714767880826,-0.6044997763957048 l 14.542737277165552 -2.393001884797027" fill="#ff9f0e" stroke="none" /><path d="M 79.0935383218832 101.97986365728391 l -15.255615023092197 1.4447226038899674 a36.32387069688944,36.32387069688944 0 0,0 -0.05345901203983534,-0.6212747539128872 l 15.278167657829774 -1.1826268026014182" fill="#ffa70f" stroke="none" /><line stroke="#e1ed5e" stroke-width="0.3" x1="15.003131293944662" x2="10.003315487706104" y1="100.72959589197737" y2="100.7725132973878" /><path d="M 14.003168132696942 100.73817937305945 a86.0,86.0 0 0,1 10.791469493833604,-42.45332614584628" fill="none" id="id106" stroke="none" /><text fill="#e1ed5e" style="font-size:6.75px; font-family:Arial;" text-anchor="middle"><textPath startOffset="22.145653131862435" xlink:href="#id106">October</textPath></text><path d="M 79.00077361379809 100.18025310272382 l -17.713696349806675 0.15205077887337284 a38.71434892431868,38.71434892431868 0 0,0 0.0,-0.6646077631943743 l 17.713696349806675 0.15205077887336635" fill="#ffc712" stroke="none" /><path d="M 79.00696218219943 99.45929381324524 l -16.694477925971366 -0.42999053198291465 a37.700014523297284,37.700014523297284 0 0,0 0.022216641902337485,-0.646813288504048 l 16.684636597072178 0.7165100850511011" fill="#ffba11" stroke="none" /><path d="M 79.06263194458094 98.37931529534042 l -13.715525953503978 -1.061668451849765 a34.75655451349989,34.75655451349989 0 0,0 0.051152342262889845,-0.5944677546185214 l 13.695279988543344 1.296957253843967" fill="#ff920d" stroke="none" /><path d="M 79.13060592940154 97.66154086499901 l -15.370440051926167 -1.722289867488287 a36.46663214075737,36.46663214075737 0 0,0 0.07504817915522184,-0.6215065821182909 l 15.338609786511276 1.9858901265300142" fill="#ffa90f" stroke="none" /><path d="M 79.17382384314186 97.30363454192245 l -15.162411914088498 -1.963077784340587 a36.288963648327,36.288963648327 0 0,0 0.08528854021779364,-0.6171053905771583 l 15.126478857315497 2.2230714831178124" fill="#ffa70f" stroke="none" /><path d="M 79.22317932658666 96.9465228501225 l -14.568720585115358 -2.1411002245653616 a35.72521407853882,35.72521407853882 0 0,0 0.0943800747675377,-0.6059877837049749 l 14.529819018209553 2.3908761902017863" fill="#ff9f0e" stroke="none" /><path d="M 79.2786578344484 96.59031103205396 l -21.788283912734027 -3.585253826425954 a43.08128983691411,43.08128983691411 0 0,0 0.12634138558458602,-0.7287035381351978 l 21.723527709657205 3.9587503974817446" fill="#feff18" stroke="none" /><path d="M 79.64726062577567 94.8264132398404 l -14.903952724435696 -3.7885265010977776 a36.37793028537112,36.37793028537112 0 0,0 0.1590417460356866,-0.6039074146689565 l 14.836721497595283 4.043814420139518" fill="#ffa80f" stroke="none" /><path d="M 79.73907114497095 94.47779374421319 l -14.896599178864031 -4.060134348433538 a36.439992163957285,36.439992163957285 0 0,0 0.16967416107534083,-0.6021137397109272 l 14.824706525714108 4.315256012047477" fill="#ffa90f" stroke="none" /><path d="M 79.83685265289637 94.1308016681162 l -29.813560936748367 -8.678293081194738 a52.05094501834559,52.05094501834559 0 0,0 0.2570912173615021,-0.8557730482095949 l 29.660193399383235 9.188803732995055" fill="#92ff23" stroke="none" /><path d="M 80.28708602549916 92.7611449362534 l -14.223445360311288 -5.223046151553027 a36.15211566148482,36.15211566148482 0 0,0 0.21892570606344974,-0.5807264452718506 l 14.131688970433402 5.466440877019023" fill="#ffa50f" stroke="none" /><path d="M 80.5471966667186 92.08871423366112 l -14.225119123093434 -5.78523210844698 a36.35652710136001,36.35652710136001 0 0,0 0.24008146149370138,-0.5761081089976311 l 14.123711817063255 6.0285727268858755" fill="#ffa80f" stroke="none" /><path d="M 80.9802524753101 91.09779779509293 l -42.64098469603866 -19.95813390728345 a68.08057651419384,68.08057651419384 0 0,0 0.5045118969360147,-1.0542358254579562 l 42.292093541142734 20.687182234806492" fill="#38ff83" stroke="none" /><path d="M 81.29705330413844 90.45014215332179 l -13.712228006079837 -7.001561323397125 a36.39633261059304,36.39633261059304 0 0,0 0.2889035697661962,-0.5540106883902265 l 13.590016367338702 7.235918254891838" fill="#ffa80f" stroke="none" /><path d="M 81.63589988554816 89.8137432299009 l -13.50123304210602 -7.488906378353368 a36.43913897861526,36.43913897861526 0 0,0 0.30811310904530387,-0.5444063408551593 l 13.370686568039346 7.7195694893076325" fill="#ffa90f" stroke="none" /><line stroke="#e1ed5e" stroke-width="0.3" x1="26.387840678322718" x2="22.05771365940052" y1="57.49999999999999" y2="54.99999999999999" /><path d="M 25.521815274538284 56.99999999999999 a86.0,86.0 0 0,1 29.574782752854787,-30.34633250058573" fill="none" id="id107" stroke="none" /><text fill="#e1ed5e" style="font-size:6.75px; font-family:Arial;" text-anchor="middle"><textPath startOffset="21.40746469413373" xlink:href="#id107">November</textPath></text><path d="M 82.18462484594161 88.88188828441811 l -53.44612546217515 -33.35433514674566 a84.0,84.0 0 0,0 0.7739292334964403,-1.2167453012853122 l 52.865678537052815 34.266894122709644" fill="#4dd2ff" stroke="none" /><path d="M 82.576782715395 88.27688183743585 l -12.855522361554142 -8.649769168587948 a36.494610735938906,36.494610735938906 0 0,0 0.3541893437578285,-0.5167728376194489 l 12.705143280981 8.869176741277432" fill="#ffa90f" stroke="none" /><path d="M 83.64595745247003 86.82634096563983 l -17.58334873162556 -14.16390107824867 a43.57853508030076,43.57853508030076 0 0,0 0.47428632407255655,-0.5785521974909542 l 17.337615588314375 14.463655557438118" fill="#f8ff18" stroke="none" /><path d="M 84.10781606972428 86.27271002978789 l -11.784132602609603 -10.178853076025652 a36.571603358010485,36.571603358010485 0 0,0 0.4144589034524419,-0.47157815095734595 l 11.607662635198569 10.379643504794297" fill="#ffab0f" stroke="none" /><path d="M 84.58840730492382 85.73525988315684 l -11.397144942306142 -10.549027209104228 a36.52987082671185,36.52987082671185 0 0,0 0.4299116413899711,-0.45655126502830407 l 11.214377467179899 10.743119934077043" fill="#ffaa0f" stroke="none" /><path d="M 85.34317274990677 84.96080404539775 l -21.976524342582678 -22.54985000161511 a52.48751113180383,52.48751113180383 0 0,0 0.650663966479041,-0.6233213612725388 l 21.586187890238335 22.923783493193216" fill="#8dff24" stroke="none" /><path d="M 85.86807049272753 84.46653392183569 l -10.407205697034493 -11.439342135139528 a36.46507287099436,36.46507287099436 0 0,0 0.46664001808903477,-0.4172723816203558 l 10.209300652122067 11.616310046643285" fill="#ffa90f" stroke="none" /><path d="M 86.40962598614128 83.9905735841838 l -9.96954612391604 -11.744100265905944 a36.40505569521063,36.40505569521063 0 0,0 0.47989779917616515,-0.4003478122294405 l 9.766473990577966 11.913510262047266" fill="#ffa80f" stroke="none" /><path d="M 86.96720088162412 83.53348406188908 l -23.838153119107016 -30.11872773496878 a59.410874820852094,59.410874820852094 0 0,0 0.8051306740254689,-0.6260744819115511 l 23.3176125004463 30.523503268501138" fill="#42ff2d" stroke="none" /><path d="M 87.25179093698888 83.31218511350988 l -9.292175632743364 -12.163756186106102 a36.3069099606937,36.3069099606937 0 0,0 0.49852328424059345,-0.37410116639682084 l 9.081999359592018 12.321476379766924" fill="#ffa70f" stroke="none" /><path d="M 88.12776184653039 82.6780497279521 l -8.852696731895863 -12.916349097883158 a36.65893717483108,36.65893717483108 0 0,0 0.5221344849243449,-0.35131538357879527 l 8.62966595887453 13.066414155519064" fill="#ffac0f" stroke="none" /><line stroke="#e1ed5e" stroke-width="0.3" x1="56.869717070023135" x2="54.33264160355391" y1="26.7553504044142" y2="22.446841604673864" /><path d="M 56.362301976729285 25.89364864446614 a86.0,86.0 0 0,1 42.16139366436587,-11.88097634709845" fill="none" id="id108" stroke="none" /><text fill="#e1ed5e" style="font-size:6.75px; font-family:Arial;" text-anchor="middle"><textPath startOffset="22.145653131862474" xlink:href="#id108">December</textPath></text><path d="M 89.97174638481275 81.54914285379989 l -7.300867242786305 -13.432773412911597 a36.28862531620861,36.28862531620861 0 0,0 0.5498784016832615,-0.2927792768721872 l 7.069200025316482 13.556123157506361" fill="#ffa70f" stroke="none" /><path d="M 90.28995756902619 81.37971332152246 l -7.109228006974826 -13.63288209022345 a36.3751942082398,36.3751942082398 0 0,0 0.5561468888165505,-0.28397256413320476 l 6.874153896444693 13.75291260602949" fill="#ffa80f" stroke="none" /><path d="M 90.93487009805054 81.0573650232925 l -9.066181876571807 -18.94483319907071 a42.002436971925206,42.002436971925206 0 0,0 0.653060462677791,-0.305665271489065 l 8.739632700022494 19.09767470213032" fill="#fff216" stroke="none" /><path d="M 91.26138138417902 80.90454125486306 l -9.248496887685777 -20.209634787538963 a43.22530163861086,43.22530163861086 0 0,0 0.6773746393709472,-0.30298106033304867 l 8.900208845459211 20.365419598781855" fill="#fcff18" stroke="none" /><path d="M 91.5904679813234 80.7573450057729 l -8.843233861242458 -20.235049684956728 a43.08302562778236,43.08302562778236 0 0,0 0.6802295311288594,-0.2903495378907038 l 8.494569254943167 20.383873872506836" fill="#feff18" stroke="none" /><path d="M 92.25597844496254 80.48000691201159 l -5.70253333822193 -14.374109182806498 a36.46395490399447,36.46395490399447 0 0,0 0.5838187170432397,-0.22583362160680784 l 5.4549423586851615 14.469882692551346" fill="#ffa90f" stroke="none" /><path d="M 92.592206182469 80.34994680014964 l -5.55096509389842 -14.724594405891738 a36.73616515837632,36.73616515837632 0 0,0 0.5919960388676302,-0.21738914547175225 l 5.297379903376663 14.817714400372212" fill="#ffad10" stroke="none" /><path d="M 93.27111125876988 80.10723608172694 l -5.815697517566976 -17.193076328959606 a39.15004714234279,39.15004714234279 0 0,0 0.6384762364890788,-0.20987982068343317 l 5.5196985434301356 17.290377071045068" fill="#ffcd13" stroke="none" /><path d="M 93.95794788825049 79.88797359093562 l -9.153557135259476 -30.469214670164813 a52.81447234899624,52.81447234899624 0 0,0 0.8705333716644098,-0.2533995772022161 l 8.629163751213442 30.62185794166955" fill="#89ff24" stroke="none" /></svg>