<?xml version="1.0" encoding="utf-8" ?>
<svg baseProfile="full" height="200mm" version="1.1" viewBox="0,0,200,200" width="200mm" xmlns="http://www.w3.org/2000/svg" xmlns:ev="http://www.w3.org/2001/xml-events" xmlns:xlink="http://www.w3.org/1999/xlink"><defs /><rect fill="#1a1a1a" height="200" width="200" x="0" y="0" /><text alignment-baseline="middle" fill="#e1ed5e" style="dominant-baseline: central; font-size:9.0px; font-family:Arial;" text-anchor="middle" x="100.0" y="100.0">2025</text><line stroke="#e1ed5e" stroke-width="0.3" x1="100.0" x2="100.0" y1="15.0" y2="10.0" /><path d="M 100.0 14.0 a86.0,86.0 0 0,1 42.46469731375804,11.215312516191453" fill="none" id="id109" stroke="none" /><text fill="#e1ed5e" style="font-size:6.75px; font-family:Arial;" text-anchor="middle"><textPath startOffset="22.20632615414155" xlink:href="#id109">January</textPath></text><path d="M 104.66035177308747 79.52364482259891 l 13.951165280243995 -61.29773659288539 a83.86531256652945,83.86531256652945 0 0,0 1.4048490688756798,0.3324823857498741 l -15.004238036082198 61.04850829499465" fill="#4dd4ff" stroke="none" /><path d="M 105.36241919743992 79.69619591428918 l 16.00920543992159 -60.61588228224401 a83.69433661561847,83.69433661561847 0 0,0 1.389732944661306,0.3798665112420566 l -17.050236273806608 60.331329230175655" fill="#4dd6ff" stroke="none" /><line stroke="#e1ed5e" stroke-width="0.3" x1="143.23703022742887" x2="145.7803849466894" y1="26.81831364943548" y2="22.513508569990506" /><path d="M 143.74570117128098 25.957352633546492 a86.0,86.0 0 0,1 28.547481713284135,27.462654790039103" fill="none" id="id110" stroke="none" /><text fill="#e1ed5e" style="font-size:6.75px; font-family:Arial;" text-anchor="middle"><textPath startOffset="19.985693538727396" xlink:href="#id110">February</textPath></text><path d="M 115.19652480421416 85.50635884689758 l 22.70221968067325 -21.652175722394876 a52.37208140916082,52.37208140916082 0 0,0 0.6165757114651315,0.6577199794927604 l -23.071562714108843 21.25818632602406" fill="#eeff19" stroke="none" /><path d="M 115.68641384162765 86.03803664274999 l 23.4643123324994 -20.88481614070644 a52.41256911601144,52.41256911601144 0 0,0 0.5940294238285291,0.6790783198049776 l -23.820333619905778 20.477822264698517" fill="#edff19" stroke="none" /><path d="M 116.15771136456269 86.58626213691792 l 24.440838258193153 -20.290187771791736 a52.765489049874944,52.765489049874944 0 0,0 0.5741425625820077,0.7038308943447801 l -24.78647931285157 19.866472707838856" fill="#e8ff1a" stroke="none" /><path d="M 116.60985879189232 87.15038557335679 l 49.829576375676965 -38.54884327992963 a84.0,84.0 0 0,0 0.874896239103546,1.1512608964758657 l -50.48574855500462 37.68539760757273" fill="#4dd2ff" stroke="none" /><path d="M 116.82858285166822 87.43820079747576 l 25.178887779712756 -18.794935688853283 a52.42015272673733,52.42015272673733 0 0,0 0.5335307854975971,0.7277353918247661 l -25.49868117772398 18.35873785335702" fill="#edff19" stroke="none" /><path d="M 117.2510076193507 88.02491185347247 l 38.13075511682518 -26.46912943829675 a67.41733834463795,67.41733834463795 0 0,0 0.6535486036524506,0.9590019321980036 l -38.58072818614636 25.808849482828343" fill="#32ff49" stroke="none" /><path d="M 117.65298651832404 88.62581576622439 l 38.76659019650162 -24.97811566063277 a67.11675159222995,67.11675159222995 0 0,0 0.6173859160587686,0.9765562536565313 l -39.19080370880634 24.307111759262032" fill="#31ff44" stroke="none" /><line stroke="#e1ed5e" stroke-width="0.3" x1="172.23445277983987" x2="176.4835382374775" y1="55.19839476539836" y2="52.563006222186495" /><path d="M 173.08426987136738 54.67131705675599 a86.0,86.0 0 0,1 12.851231095245387,41.99856678651699" fill="none" id="id111" stroke="none" /><text fill="#e1ed5e" style="font-size:6.75px; font-family:Arial;" text-anchor="middle"><textPath startOffset="22.20632615414155" xlink:href="#id111">March</textPath></text><path d="M 118.03404312379186 89.2402003453031 l 53.902985844181735 -32.16058232156484 a83.76810446540668,83.76810446540668 0 0,0 0.7281455741961411,1.2446368181569751 l -54.448591092848204 31.22796609105397" fill="#4dd5ff" stroke="none" /><path d="M 118.3937258080291 89.86733742301442 l 40.67506159890053 -22.40691629206822 a67.43845964062659,67.43845964062659 0 0,0 0.5513636819751441,1.0215931650690382 l -41.054733380094135 21.703442143666724" fill="#32ff49" stroke="none" /><path d="M 120.28053869075195 94.5502522615342 l 60.54503260801508 -16.269545871645395 a83.69289510283588,83.69289510283588 0 0,0 0.36188675579673707,1.394497292983209 l -60.816115695682115 15.224952153113335" fill="#4cd6ff" stroke="none" /><path d="M 120.67395015179393 96.31383870115 l 61.77374923245261 -11.014247496662962 a83.74798596091898,83.74798596091898 0 0,0 0.24082785588620922,1.421379637923677 l -61.95418894985904 9.949282070423447" fill="#4dd5ff" stroke="none" /><line stroke="#e1ed5e" stroke-width="0.3" x1="184.98032266829074" x2="189.97916517819016" y1="98.17113171792111" y2="98.06355123074" /><path d="M 185.9800911702706 98.14961562048488 a86.0,86.0 0 0,1 -9.607161424134198,41.387399972396054" fill="none" id="id112" stroke="none" /><text fill="#e1ed5e" style="font-size:6.75px; font-family:Arial;" text-anchor="middle"><textPath startOffset="21.466115282336823" xlink:href="#id112">April</textPath></text><path d="M 120.95626037817324 101.35467743843564 l 62.59871645353389 4.046574499663877 a83.72937164368271,83.72937164368271 0 0,0 -0.10535324474755803,1.437461321037771 l -62.51978665012199 -5.1235089571984185" fill="#4dd5ff" stroke="none" /><line stroke="#e1ed5e" stroke-width="0.3" x1="174.80103733775053" x2="179.2010983576182" y1="140.37084112569926" y2="142.7455964860345" /><path d="M 175.68104954172406 140.8457921977663 a86.0,86.0 0 0,1 -30.038265399797805,32.042727171017184" fill="none" id="id113" stroke="none" /><text fill="#e1ed5e" style="font-size:6.75px; font-family:Arial;" text-anchor="middle"><textPath startOffset="22.206326154141568" xlink:href="#id113">May</textPath></text><path d="M 111.1453310114006 117.79835938074945 l 17.856430353350977 28.51554290861073 a54.645033694988236,54.645033694988236 0 0,0 -0.8015146189741059,0.49235574312588865 l -17.36293653444456 -28.818687118564995" fill="#cbff1d" stroke="none" /><line stroke="#e1ed5e" stroke-width="0.3" x1="143.8653032363475" x2="146.44561519142675" y1="172.8068346515853" y2="177.08958963109032" /><path d="M 144.38136562736335 173.6633856474863 a86.0,86.0 0 0,1 -40.68145358897372,12.25698825130547" fill="none" id="id114" stroke="none" /><text fill="#e1ed5e" style="font-size:6.75px; font-family:Arial;" text-anchor="middle"><textPath startOffset="21.466115282336833" xlink:href="#id114">June</textPath></text><path d="M 110.5260780823613 118.17145234162733 l 18.861981648079993 32.561947375355835 a58.63050316655292,58.63050316655292 0 0,0 -0.8776462364969739,0.498350438242748 l -18.29868664466182 -32.88180097939321" fill="#90ff24" stroke="none" /><path d="M 109.2508944713604 118.85261126421891 l 13.841857715309455 28.208641174022986 a52.42171958845755,52.42171958845755 0 0,0 -0.8135035397867795,0.3905311356263536 l -13.354241507522444 -28.4427265861489" fill="#edff19" stroke="none" /><path d="M 108.59647513512805 119.15986991738527 l 12.905770510786546 28.764450578104753 a52.52701269605667,52.52701269605667 0 0,0 -0.8281241869359068,0.36302530722619253 l -12.408725649192885 -28.9823404386254" fill="#ecff1a" stroke="none" /><path d="M 107.2578585660854 119.70592522655815 l 10.850613865383586 29.460671291205756 a52.39533363708896,52.39533363708896 0 0,0 -0.8490051024276317,0.304423023575853 l -10.34188920232622 -29.643081855821567" fill="#eeff19" stroke="none" /><line stroke="#e1ed5e" stroke-width="0.3" x1="102.19456741930631" x2="102.32365962044197" y1="184.97166512339345" y2="189.96999836594603" /><path d="M 102.22038585953345 185.97133177190398 a86.0,86.0 0 0,1 -42.740103519485714,-10.115201625700543" fill="none" id="id115" stroke="none" /><text fill="#e1ed5e" style="font-size:6.75px; font-family:Arial;" text-anchor="middle"><textPath startOffset="22.20632615414155" xlink:href="#id115">July</textPath></text><path d="M 98.73552117531835 120.96189622390904 l -1.5167156779965711 25.143352362064572 a46.18905703774595,46.18905703774595 0 0,0 -0.7932140005865347,-0.0547046816076415 l 1.949292439362036 -25.113519335940644" fill="#ffab0f" stroke="none" /><path d="M 98.01472825383883 120.90594882070398 l -3.52882974223959 37.160421051118654 a58.327597458799,58.327597458799 0 0,0 -0.9987001316425975,-0.10351935208321923 l 4.1679624704877805 -37.094172330579674" fill="#95ff23" stroke="none" /><path d="M 97.2962882734958 120.8252237178851 l -2.033250693888803 15.661026343783822 a36.7924619526181,36.7924619526181 0 0,0 -0.6273489850037561,-0.08694485290454644 l 2.3025282700793905 -15.62370692538667" fill="#ff0000" stroke="none" /><path d="M 96.93821686468263 120.77559828337769 l -4.650188565137042 31.553655272593225 a52.89447310668388,52.89447310668388 0 0,0 -0.8996194670014888,-0.14050205913684857 l 5.192643895747048 -31.46893490610927" fill="#e6ff1a" stroke="none" /><path d="M 95.16358092515715 120.4354850818985 l -7.232933881089531 30.561560141511528 a52.40580027338006,52.40580027338006 0 0,0 -0.8760420974463538,-0.21530983355397604 l 7.757929263279095 -30.432529049643524" fill="#eeff19" stroke="none" /><path d="M 92.7421414339146 119.70592522655815 l -10.843314085430341 29.44085154456575 a52.37421234110032,52.37421234110032 0 0,0 -0.8432990884166817,-0.31886355700459246 l 11.348483394607307 -29.249839737454522" fill="#eeff19" stroke="none" /><path d="M 91.40352486487194 119.15986991738527 l -15.413532580843953 34.353764138695524 a58.653128649792976,58.653128649792976 0 0,0 -0.9175919004679942,-0.4212214364641769 l 16.002592477079368 -34.08335563189728" fill="#90ff24" stroke="none" /><path d="M 90.42595943632237 118.69057910512821 l -14.298827305480321 27.914375449542536 a52.36349500693398,52.36349500693398 0 0,0 -0.7986906583918751,-0.4178372040189214 l 14.777208866398691 -27.6641088265789" fill="#eeff19" stroke="none" /><line stroke="#e1ed5e" stroke-width="0.3" x1="58.666819895761336" x2="56.23545636021788" y1="174.27360380694188" y2="178.64263932499728" /><path d="M 58.180547188652646 175.14741091055294 a86.0,86.0 0 0,1 -31.652253787137756,-30.449443065178592" fill="none" id="id116" stroke="none" /><text fill="#e1ed5e" style="font-size:6.75px; font-family:Arial;" text-anchor="middle"><textPath startOffset="22.20632615414155" xlink:href="#id116">August</textPath></text><path d="M 89.7882731507175 118.34994917583269 l -15.270320627437874 27.43998263445942 a52.402791898877226,52.402791898877226 0 0,0 -0.7844229642944489,-0.44541583130820145 l 15.74039235865353 -27.173063637356584" fill="#eeff19" stroke="none" /><path d="M 89.1626897886671 117.98757091392108 l -16.906692969995117 28.06142232596246 a53.76094763796839,53.76094763796839 0 0,0 -0.7885471478021087,-0.4843900632066325 l 17.387219317729535 -27.76624379592745" fill="#d9ff1c" stroke="none" /><path d="M 88.54995079064634 117.60387380957326 l -17.30226443541468 26.60135988691533 a52.73327437290712,52.73327437290712 0 0,0 -0.7566604660402138,-0.501473297457334 l 17.757599600194858 -26.299588568366676" fill="#e8ff1a" stroke="none" /><path d="M 87.95078237400918 117.19931262002967 l -18.021755096173496 25.724641174386 a52.40924736916456,52.40924736916456 0 0,0 -0.7344099651787023,-0.5239820103610406 l 18.461892389201086 -25.410614902180743" fill="#eeff19" stroke="none" /><path d="M 87.07902340077011 116.55440617244103 l -30.892218773182886 39.57923251479754 a71.20801556714426,71.20801556714426 0 0,0 -0.9597569173688527,-0.7624889405735932 l 31.5689331832691 -39.04160966021882" fill="#38ff82" stroke="none" /><path d="M 86.24171649860922 115.8653595955263 l -20.998890311555513 24.21486269462058 a53.05172334892568,53.05172334892568 0 0,0 -0.6847654907243065,-0.6042259292457977 l 21.412598155186405 -23.849813623602493" fill="#e4ff1b" stroke="none" /><path d="M 85.18274418774928 114.88116024355367 l -26.576274860143677 26.690894041495987 a58.66566354355477,58.66566354355477 0 0,0 -0.70946167829636,-0.7186809344529252 l 27.03177716349557 -26.2294726130624" fill="#90ff24" stroke="none" /><path d="M 84.43433777217949 114.09645910891817 l -23.320480557163666 21.11931993402945 a52.46220729530816,52.46220729530816 0 0,0 -0.6004203453019858,-0.6745786229591657 l 23.68055975211399 -20.714767141329418" fill="#edff1a" stroke="none" /><path d="M 83.95833913139862 113.55231037782056 l -23.979186518219624 20.258088047394057 a52.39094642427233,52.39094642427233 0 0,0 -0.5760609094632336,-0.6939024750984475 l 24.324343427576395 -19.84232431518185" fill="#eeff19" stroke="none" /><line stroke="#e1ed5e" stroke-width="0.3" x1="26.63291911575756" x2="22.317208475507996" y1="142.92168965132927" y2="145.44649492493687" /><path d="M 25.769776987707644 143.4266507060508 a86.0,86.0 0 0,1 -11.730757126820373,-40.83630448921669" fill="none" id="id117" stroke="none" /><text fill="#e1ed5e" style="font-size:6.75px; font-family:Arial;" text-anchor="middle"><textPath startOffset="21.46611528233685" xlink:href="#id117">September</textPath></text><path d="M 80.87730276802145 108.67885076344099 l -28.598609570723 12.979500825393748 a52.40617632019291,52.40617632019291 0 0,0 -0.36574249308898854,-0.8246527687173733 l 28.817793148543267 -12.485299720183678" fill="#eeff19" stroke="none" /><line stroke="#e1ed5e" stroke-width="0.3" x1="15.007084014347285" x2="10.007500721073583" y1="101.09737516637583" y2="101.16192664675087" /><path d="M 14.007167355692545 101.11028546245083 a86.0,86.0 0 0,1 10.666146001902534,-42.60595125391555" fill="none" id="id118" stroke="none" /><text fill="#e1ed5e" style="font-size:6.75px; font-family:Arial;" text-anchor="middle"><textPath startOffset="22.20632615414155" xlink:href="#id118">October</textPath></text><line stroke="#e1ed5e" stroke-width="0.3" x1="26.266209847984243" x2="21.928928074336255" y1="57.711370442889674" y2="55.22380399835377" /><path d="M 25.398753493254645 57.213857153982495 a86.0,86.0 0 0,1 29.58750427330803,-30.492523968695096" fill="none" id="id119" stroke="none" /><text fill="#e1ed5e" style="font-size:6.75px; font-family:Arial;" text-anchor="middle"><textPath startOffset="21.46611528233685" xlink:href="#id119">November</textPath></text><line stroke="#e1ed5e" stroke-width="0.3" x1="56.762969772571076" x2="54.21961505331055" y1="26.818313649435495" y2="22.513508569990535" /><path d="M 56.25429882871897 25.957352633546506 a86.0,86.0 0 0,1 42.265352541879196,-11.944610805530505" fill="none" id="id120" stroke="none" /><text fill="#e1ed5e" style="font-size:6.75px; font-family:Arial;" text-anchor="middle"><textPath startOffset="22.20632615414155" xlink:href="#id120">December</textPath></text></svg>